<svg xmlns="http://www.w3.org/2000/svg" width="90.914" height="90.914" viewBox="0 0 90.914 90.914"><g transform="translate(-1084.051 -2617)"><g transform="translate(1084.051 2617)"><rect width="90.914" height="90.914" rx="45.457" transform="translate(0 0)" fill="#98b7ca" opacity="0.859"/><rect width="90.914" height="90.914" rx="45.457" transform="translate(0 0)" fill="none"/></g><g transform="translate(1101.051 2633.999)"><path d="M25.75,365.875A7.875,7.875,0,1,1,17.875,358,7.875,7.875,0,0,1,25.75,365.875Zm0,0" transform="translate(-8.906 -318.843)" fill="#ffb954"/><path d="M373.75,365.875A7.875,7.875,0,1,1,365.875,358,7.875,7.875,0,0,1,373.75,365.875Zm0,0" transform="translate(-318.844 -318.843)" fill="#b5eb7c"/><path d="M199.879,365.875A7.875,7.875,0,1,1,192,358,7.875,7.875,0,0,1,199.879,365.875Zm0,0" transform="translate(-163.99 -318.843)" fill="#ff5d5d"/><path d="M187.359,10H177a1.369,1.369,0,0,0-1.369,1.369V30.506A1.369,1.369,0,0,0,177,31.875h14.843a1.369,1.369,0,0,0,1.369-1.369V15.852Zm0,0" transform="translate(-156.42 -8.906)" fill="#fff"/><path d="M288.727,15.852h-4.482a1.369,1.369,0,0,1-1.369-1.369V10Zm0,0" transform="translate(-251.936 -8.906)" fill="#ffb954"/><path d="M339.188,247.223a1.094,1.094,0,1,0-.32.773A1.1,1.1,0,0,0,339.188,247.223Zm0,0" transform="translate(-300.141 -219.208)"/><path d="M77.867,310.258a1.093,1.093,0,1,0-.773.32A1.1,1.1,0,0,0,77.867,310.258Zm0,0" transform="translate(-67.688 -274.66)"/><path d="M8.969,348a8.969,8.969,0,1,0,8.969,8.969A8.979,8.979,0,0,0,8.969,348Zm0,15.75a6.781,6.781,0,1,1,6.781-6.781A6.789,6.789,0,0,1,8.969,363.75Zm0,0" transform="translate(0 -309.937)"/><path d="M357.625,257.3V247.222a1.094,1.094,0,0,0-1.094-1.094h-4.594a1.094,1.094,0,0,0,0,2.188h3.5V257.4a8.972,8.972,0,1,0,2.187-.107Zm-.656,15.723a6.781,6.781,0,1,1,6.781-6.781A6.789,6.789,0,0,1,356.969,273.021Zm0,0" transform="translate(-309.938 -219.208)"/><path d="M230.965,386h-2.172a1.094,1.094,0,0,0-1.094,1.094v7.437a1.094,1.094,0,0,0,1.094,1.094h2.172a5.159,5.159,0,0,0,0-9.625Zm-1.079,2.188h1.078a.766.766,0,0,1,0,1.531h-1.078Zm1.079,5.25h-1.078v-1.531h1.078a.766.766,0,1,1,0,1.531Zm0,0" transform="translate(-202.795 -343.781)"/><path d="M96.765,38.128a1.067,1.067,0,0,0,.015-.175V29.108h4.193a1.094,1.094,0,1,0,0-2.187H96.781V24.063h6.328a2.466,2.466,0,0,0,2.463-2.463V6.946a1.094,1.094,0,0,0-.32-.773L99.4.321A1.094,1.094,0,0,0,98.626,0H88.265A2.466,2.466,0,0,0,85.8,2.464V21.6a2.466,2.466,0,0,0,2.463,2.463h6.328v2.858h-17.5A1.094,1.094,0,0,0,76,28.015V30.79a1.094,1.094,0,0,0,2.187,0V29.109H94.593v8.845a1.114,1.114,0,0,0,.016.178,8.969,8.969,0,1,0,2.156,0Zm5.072-32.276H100a.276.276,0,0,1-.276-.276V3.735ZM87.99,21.6V2.464a.276.276,0,0,1,.276-.276h9.267V5.577A2.466,2.466,0,0,0,100,8.04h3.388V21.6a.276.276,0,0,1-.276.276H88.265a.276.276,0,0,1-.276-.276ZM95.7,53.813a6.781,6.781,0,1,1,6.781-6.781A6.789,6.789,0,0,1,95.7,53.813Zm0,0" transform="translate(-67.687)"/><path d="M53.292,390.508l-1.885-5.124a1.094,1.094,0,0,0-2.053,0l-1.885,5.124a1.092,1.092,0,0,0-.675,1.834l-.23.625a1.094,1.094,0,1,0,2.053.755l.38-1.034h2.765l.38,1.034a1.094,1.094,0,0,0,2.053-.755l-.23-.625a1.092,1.092,0,0,0-.675-1.834ZM49.8,390.5l.578-1.571.578,1.571Zm0,0" transform="translate(-41.412 -342.594)"/><path d="M400.68,388.188a.923.923,0,0,1,.922.922,1.094,1.094,0,1,0,2.187,0,3.109,3.109,0,1,0-6.219,0v3.406a3.109,3.109,0,1,0,6.219,0,1.094,1.094,0,1,0-2.187,0,.922.922,0,0,1-1.844,0v-3.406A.923.923,0,0,1,400.68,388.188Zm0,0" transform="translate(-354.086 -343.781)"/></g></g></svg>