<svg xmlns="http://www.w3.org/2000/svg" width="400" height="263.65" viewBox="0 0 400 263.65"><g transform="translate(-5.052 -11.35)"><g transform="translate(5.052 7)"><g transform="translate(0 157.625)"><path d="M53.87,149.111l-47.5,62.481s-3.81,9.524,1.651,13.08A20.063,20.063,0,0,0,19.2,227.847H388.624s21.335,1.27,15.366-17.525L355.479,146.19s-8.255-8.89-29.589-8.89H78.126S66.189,136.793,53.87,149.111Z" transform="translate(-5.044 -117.49)" fill="#122327"/><path d="M16.656,185,5.1,187.286v18.922H16.656Z" transform="translate(-5.039 -104.613)" fill="#122327"/><rect width="13.715" height="20.065" transform="translate(386.247 78.99)" fill="#122327"/><path d="M79.277,123.986h245.1c21.081,0,29.335,8.89,29.335,8.89l47.876,63.37c5.334,16.382-10.54,17.4-14.35,17.4H20.86a20.721,20.721,0,0,1-10.667-3.175c-5.334-3.429-1.524-12.953-1.524-12.953l46.987-61.846c11.3-11.3,22.224-11.683,23.748-11.683m-.127-2.286c-2.159,0-13.588.635-25.4,12.318h0v.254L6.764,196.118v.254c-.127,0-.254.254-.254.254-.127.508-4.445,11.175,2.413,15.62a22.813,22.813,0,0,0,11.81,3.556h366.5c3.3,0,11.3-.635,15.366-6.1,2.54-3.556,2.921-8.255,1.016-14.1v-.381l-.381-.254-47.876-63.37h0v-.127c-.381-.381-9.144-9.524-30.986-9.524H79.277Z" transform="translate(-5.052 -121.7)" fill="#fff"/><path d="M55.068,135.211,8.08,196.93s-3.81,9.4,1.524,12.953a20.843,20.843,0,0,0,11.048,3.175h365.36s21.081,1.27,15.112-17.4l-47.876-63.37s-8.255-8.89-29.335-8.89H79.069s-11.81-.508-24,11.683Z" transform="translate(-4.591 -121.242)" fill="#233d44"/><path d="M75.416,126.3H317.592l50.162,80.387H25Z" transform="translate(0.332 -120.458)" fill="#bde3de"/><path d="M34.243,156.426l5.461-7.239a8.246,8.246,0,0,1,8.382-2.413c5.08,1.524,3.3,3.937,3.3,3.937l-6.35,9.271s-2.921,3.556-8.255,1.778-2.413-5.207-2.413-5.207Z" transform="translate(2.646 -115.026)" fill="#fff"/></g><ellipse cx="81.784" cy="28.954" rx="81.784" ry="28.954" transform="translate(118.164 175.023)" fill="#a0c3bd"/><path d="M244.829,160.548c0,6.1-30.351,11.048-67.814,11.048S109.2,166.644,109.2,160.548,139.551,149.5,177.014,149.5,244.829,154.453,244.829,160.548Z" transform="translate(23.06 40.72)" fill="#7f9893"/><g transform="translate(106.966 18.607)"><g transform="translate(0 0)"><path d="M92.6,111.617a94.025,94.025,0,0,0,94.017,94.017V17.6A94.025,94.025,0,0,0,92.6,111.617Z" transform="translate(-92.6 -17.6)" fill="#efecec"/><path d="M162.5,17.6h0V205.768h0a94.017,94.017,0,1,0,0-188.033Z" transform="translate(-68.483 -17.6)" fill="#dbdad9"/></g><g transform="translate(0.941 4.573)"><path d="M170.6,54.869v0Z" transform="translate(-66.63 -9.408)" fill="#186c6c"/><path d="M170.835,55.2a.664.664,0,0,0-.135-.4A.664.664,0,0,0,170.835,55.2Z" transform="translate(-66.596 -9.339)" fill="#186c6c"/><path d="M184.5,51.7v0Z" transform="translate(-61.834 -10.408)" fill="#186c6c"/><path d="M184.7,52.9a1.355,1.355,0,0,1,.134.4A.664.664,0,0,0,184.7,52.9Z" transform="translate(-61.765 -9.994)" fill="#186c6c"/><path d="M184.6,52.5v0Z" transform="translate(-61.8 -10.132)" fill="#186c6c"/><path d="M162.5,31.969h0v0Z" transform="translate(-69.425 -17.308)" fill="none"/><path d="M168.014,55.6a1.15,1.15,0,0,1-.807.4c-.269,0-.673-.4-.807-.538,0,.4.269,1.076.807,1.076a14.52,14.52,0,0,0,4.708-1.345,1.019,1.019,0,0,0-.538.269c-.269,0-.538-.135-1.345-.269a5.244,5.244,0,0,0-2.152.269Z" transform="translate(-68.079 -9.201)" fill="#186c6c"/><path d="M170.6,54.845s-.134-.269-.269-.269h.673c1.614,0,4.977.538,4.977-1.076a31.211,31.211,0,0,0-5.111.673s-.673.134-.673.4c0,0,.269.269.269.4Z" transform="translate(-66.768 -9.787)" fill="#186c6c"/><path d="M164.418,30.107c0-.269-.807-.269-.807-.673h-.269a2.626,2.626,0,0,1-.942-.134v1.883c.135-.269.269-.4.4-.673.269-.269,1.345-.135,1.48-.4Z" transform="translate(-69.459 -18.136)" fill="none"/><path d="M164.652,23.1c0-.269-1.21-.269-2.152-.4h0c.4,0,.941.135,1.21.135v.135h-1.076v.269c1.076,0,2.018.135,2.152-.269Z" transform="translate(-69.425 -20.413)" fill="#186c6c"/><path d="M162.5,22.4Z" transform="translate(-69.425 -20.517)" fill="none"/><path d="M164.652,24.238A7.121,7.121,0,0,1,162.5,23.7v.269a3.927,3.927,0,0,1,1.21.269h.942Z" transform="translate(-69.425 -20.068)" fill="#186c6c"/><path d="M165.021,22.369a19.294,19.294,0,0,0,2.959.538,5.588,5.588,0,0,1-1.749-.4h2.69a5.6,5.6,0,0,0,2.287-.269h-.673c-.942.135-2.018,0-3.5.135a4.641,4.641,0,0,1-1.614-.135h-.941A7.147,7.147,0,0,1,162.6,22.1v.269h2.421Z" transform="translate(-69.39 -20.62)" fill="#186c6c"/><path d="M162.235,27.538c0,.135.134.135.4.135V27a.6.6,0,0,0-.538.4Z" transform="translate(-69.563 -18.93)" fill="none"/><path d="M133.8,27.8h0Z" transform="translate(-79.327 -18.654)" fill="#228081"/><path d="M162.6,55.294c0-.538,0-1.883.538-1.883,2.018-.135,1.076-1.076,2.018-1.076.4,0,2.421.807,2.421,1.345s-.4.942-.538,1.614c.673,0,.538-.134,1.076-.269.269.673.269,1.076.807,1.345.807,0,1.211-2.152,1.48-2.825.135,0,.942.807,1.48.807a.579.579,0,0,0,.538-.538c0-.673-.807-1.076-1.48-1.48h-1.48c-1.48-.673-3.094-.538-4.3-1.48-.4-.4,0-.807-.4-1.211,0,0-1.48-.942-2.152-1.345v2.825c.135,0,.4-.134.538-.134,1.345,0,2.018.538,3.094.538v.538a7.115,7.115,0,0,1-2.421,0,2,2,0,0,0-1.211.269v2.959Z" transform="translate(-69.39 -11.581)" fill="#186c6c"/><path d="M115.076,46.069c-.673,0-.942,0-1.076.807.4-.4.269-.134.807-.269a.809.809,0,0,1-.134.538s.269.538.538.4c.269,0,.269-.134.4-.4.134-.538-.807-.538-.538-1.345Z" transform="translate(-86.158 -12.444)" fill="#228081"/><path d="M198.3,33.911c-1.211-.4-1.614-.942-2.69-1.211-.4,0-.942,0-.807.135a2.28,2.28,0,0,0,1.076.807,2.626,2.626,0,0,1,.942.134c.672,0,1.614.269,1.614,0Z" transform="translate(-58.286 -16.963)" fill="#186c6c"/><path d="M119.383,51.345a6.847,6.847,0,0,0,2.959.673h.4v-.269a8.223,8.223,0,0,0-3.632-1.48c-.269,0-.538-.269-1.076-.269a.7.7,0,0,0-.538.269h.673l-.4.4c0,.4,1.211.4,2.018.269a1.05,1.05,0,0,0-.538.4Z" transform="translate(-84.951 -10.995)" fill="#228081"/><path d="M150.6,23.535c0,.4.942.269,1.48.538,0,0-.4,0-.538.135,0,.269,1.614,0,3.363-.135-.135-.269,0-.269,0-.4,0-.538-1.614,0-1.614-.269h-1.614c-.538,0-1.076,0-1.076.269Z" transform="translate(-73.53 -20.172)" fill="#228081"/><path d="M115.073,49.345s.269-.269.269-.4v-.269a5.825,5.825,0,0,1,.134-.673c0,.134-.269.4-.538.538-.269,0,.269-.4.269-.4H114.4V48.4c.134.134.134.538.269.4.269,0,.269.269.538.269a.5.5,0,0,0-.269.4c0,.269,0,.538.4.4.4,0-.269-.4-.134-.538Z" transform="translate(-86.02 -11.685)" fill="#228081"/><path d="M95.7,83.2v.807c0,.134,0,.4.269.4.538,0,.4-.135.673-.269v-.4A1.015,1.015,0,0,0,95.7,83.2Z" transform="translate(-92.472 0.46)" fill="#228081"/><path d="M155.594,24.3c.4,0,.673,0,.673-.135V23.9h-.673a10.155,10.155,0,0,0-3.094.4h3.094Z" transform="translate(-72.875 -19.999)" fill="#228081"/><path d="M105.7,46.738l.538-.538h0c0,.135-.269.4-.4.538Z" transform="translate(-89.022 -12.306)" fill="#228081"/><path d="M113.476,46.011a2.747,2.747,0,0,1,.269-1.211c-.538.4-.135,0-.807.269a.721.721,0,0,0-.538.4c0,.4.135.673.673.538-.134.538,0,.807.269.942.4-.4.134-.673.4-1.076,0,0-.4.134-.4,0Z" transform="translate(-86.71 -12.789)" fill="#228081"/><path d="M165.619,25.716a28.113,28.113,0,0,1-3.363-.135c-.135,0-.807.269-.807,0h.4c-.673-.269-1.883,0-2.152-.4h1.883c-.4-.269-2.556,0-2.287-.4h-.807a7.583,7.583,0,0,1-.941.135c-1.614,0-2.018-.538-4.17-.4-.538,0-1.345,0-1.48.269a19.127,19.127,0,0,0,3.363.4,1.135,1.135,0,0,0,.942-.269c.807.269.941.538,1.883.807-.135,0-.673,0-.538.269,0,.4,2.287.673,3.5.673a11.652,11.652,0,0,0,1.345-.269h.538c0,.4,1.345.4,2.421.269h.807v-.807h-.672Z" transform="translate(-73.082 -19.798)" fill="#228081"/><path d="M162.028,23.835c-.538,0-1.21,0-1.21.135,0,.4,1.076.269,1.614.4-1.076.269-3.5,0-3.632.538h.538c.269,0,.4,0,.538-.135,1.48.135,2.556.269,3.9.269V23.835c-.4,0-.942-.135-1.749-.135Z" transform="translate(-70.701 -20.068)" fill="#228081"/><path d="M188.776,24.218a3.927,3.927,0,0,1-1.21-.269h-4.977c0,.4,2.555.538,3.5.807,0,.538-.269.4-1.076.538-.942,0-2.556-.4-3.9-.4h-2.152c-1.076,0-2.69-.269-2.556,0,0,.269,4.573,1.076,4.842,1.076.538,0,1.076.135,1.614.135h.4a9.082,9.082,0,0,1,1.883.269c-.135.269,0,.269-.538.269a18.567,18.567,0,0,1-2.69-.4H179.9c-.4,0-1.211-.135-1.345.135.942.269.538,0,1.614.134a5.773,5.773,0,0,1,1.883.538c-.134.135-.4,0-.941.135a17.192,17.192,0,0,0,3.094.807h.538c-.135,0-.4-.134-.538-.134h.941c.538,0,.942.269,1.345.269h1.48a3.979,3.979,0,0,1,1.345.269c5.111.807,8.2,2.421,9.819,4.3v.269c.4.135,1.076.135,1.211.538,0,.4-.807.134-.673.538,0,.4.4.4,1.211.538h.941c1.345.4,2.018,1.211,3.363,1.749,0,.135,0,.269-.269.135-.941-.269-1.749-.673-2.556-.807a1.706,1.706,0,0,1-.807-.134c.269.538,3.363,1.345,4.708,1.883-.269.4-.807.4-.942.942a2.212,2.212,0,0,0-1.211-.269h0c-.807,0-.942.4-1.48.673v.4a1.706,1.706,0,0,1,.807.135c0,.269-.4.134-.269.4,0,.538,1.345.942,1.749,1.48.134.134.4.673.538.807.807.4.807,0,1.614.4-.269,0-.673,0-.538.269,0,.673,1.883,2.287,2.825,2.825a2.322,2.322,0,0,0,.4.538c.807.4,1.076.4,1.48.942h1.614c1.076.269,1.21,1.076,2.152,1.48h.807c0,.135.269.269.538.269,1.076.269.269-.942,1.076-.942a3.166,3.166,0,0,1-.269-1.076c-.134-.673,1.614-.269,1.48-.807,0-.269-.538-.4-.538-.538l.134-.134v-.269c-.269-.538,1.749.134,2.287,0,.4,0,0-.269.538-.134v.4a1.017,1.017,0,0,1,.538.134c.538,0,1.749.538,2.152.4.672,0-.807-1.48-.4-1.48h1.21a1.02,1.02,0,0,1,.538.269A96.693,96.693,0,0,0,201.15,26.235h-.269c.134,0,.269.269.4.269-.269,0-.4,0-.538-.135a7.011,7.011,0,0,1-2.018-.807h-.4s.269.135.269.269c-.807-.135-1.076-.538-1.749-.807-1.076-.269-1.749-.269-2.959-.538a33.622,33.622,0,0,0-3.9-.673c-1.345-.269,0,.538-1.48.269Z" transform="translate(-64.631 -20.048)" fill="#186c6c"/><path d="M162.48,23.235a3.9,3.9,0,0,0-1.48.4v.135h1.883V23.1h-.538Z" transform="translate(-69.942 -20.275)" fill="#e1e0df"/><path d="M164.805,23.045s-.807.135-.807,0c0,0,.4,0,.4-.135s-.538,0-.538-.135c0-.269,0-.269-.673-.269h-.269v.135h-.538c-.4,0,0-.269-.807-.4h-1.883c-.672,0-.538-.4-1.479-.538h-2.959c0,.269.807,0,1.345.135h-.807a3.428,3.428,0,0,0-1.749.269,3.051,3.051,0,0,0,.538.135h1.345a1.34,1.34,0,0,0-.538.135H154.18c-.4,0-1.076,0-1.076.135,0,.269,1.345,0,2.018.135H152.7c.134.538,1.076.4,2.69.269-.269.135-.673.135-1.076.269h.4a3.343,3.343,0,0,0,1.076-.135s.134.135.672.135a6.6,6.6,0,0,0,1.48-.135h1.883c-.673,0-3.632,0-3.632.4,0,.269,1.345.269,2.152.269h-.673c.134.269,1.076.135,1.883.135.673,0,1.21,0,1.21-.269.4,0,1.345.269,1.749.269v-.135h.807a2.273,2.273,0,0,1-.673-.269c.269,0,.4,0,.538-.135,0,.269,0,.269.807.269.673,0,1.211-.4,2.287-.4v-.4h-1.21Z" transform="translate(-72.806 -20.758)" fill="#228081"/><path d="M205.218,105.7a2.848,2.848,0,0,1-.942-.4h-.135c-.673,0-.942.673-.942,1.345,0,.538,1.076,1.345,1.749,1.345.538,0,1.211-1.345,1.345-1.749,0,0,0-.4-.269-.4s-.673.673-.673,0Z" transform="translate(-55.383 8.085)" fill="#186c6c"/><path d="M188.583,150.369a5.719,5.719,0,0,1-1.48.269s0,.135.269,0c-.134.269-.4.269-.672.4h.134c.673-.269.942-.538,1.614-.807V150.1Z" transform="translate(-61.075 23.541)" fill="#186c6c"/><path d="M188.338,150.5c-.135,0-.135.269-.538.269v.269h.269c.269,0,.4-.135.673-.4a2.568,2.568,0,0,0,1.076-.4V150.1a1.462,1.462,0,0,0-.673.135c-.269,0-.538.269-.807.269Z" transform="translate(-60.696 23.541)" fill="#186c6c"/><path d="M153.194,27.742c0-.269-1.345,0-1.749,0,.269,0,1.48-.4,1.614-.807l-.4-.135h-1.883a5.983,5.983,0,0,0-2.825.4.664.664,0,0,0-.4.134c0,.269.807.135,1.48,0v.538H146.2v.269c1.345.4,2.69.135,4.17.673.269,0,.269.269,1.076.269.4,0,.538-.269.941-.4,1.614-.269,1.749,0,2.018-1.076h-1.076c0-.269.135,0,.135-.269Z" transform="translate(-75.049 -18.999)" fill="#228081"/><path d="M198.646,53.653h.269a1.546,1.546,0,0,0,1.211-.807c.4.4.269,1.076.538,1.076h.4a.588.588,0,0,0,.4.538.753.753,0,0,0,.673-.807c0-.269-.4-.4-.4-.807-.269,0,0,.269-.538.134,0-.269-.4-.4-.4-.673,0-.134.4-.134.4-.538h-.538V50.559a5.571,5.571,0,0,1-1.345-.134h-.538V50.29h-.807v-.269a.417.417,0,0,0,.269-.134c-.135,0-.538-.269-.807-.269s-.269.134-.673.269v-.269c.134-.538,1.076-.942,1.076-1.614,0,0-.269-.4-.4-.4-.807,0-.941.4-1.345.942-.673.807-.942,2.287-2.287,2.69,0,0,.269.269.4.269v.269s-.807.538-.807.673c0,0,.269.4.538.4a5.35,5.35,0,0,1,1.48,0c.538,0,.807.269,1.479.4h.942c.269.4.942.269,1.345.269,0,.269-.538.134-.4.538Z" transform="translate(-58.764 -11.823)" fill="#186c6c"/><path d="M94.269,81.169H94s0,.4.269.4A.47.47,0,0,0,94.4,81.3v-.4c-.269,0,0,0-.269.135Z" transform="translate(-93.058 -0.334)" fill="#228081"/><path d="M137.645,26.511c.942-.269,2.421-.538,2.421-.807h-.673a3.947,3.947,0,0,0,1.345-.4h-.807c-.942.135-3.5.673-3.632.942,0,.269.538.269,1.211.135Z" transform="translate(-78.464 -19.516)" fill="#228081"/><path d="M94.7,81.435c0,.134,0,.4.134.4.4-.134.4-.269.4-.538H94.7Z" transform="translate(-92.817 -0.196)" fill="#228081"/><path d="M138.283,25.724a9.082,9.082,0,0,0,1.883-.269,3.214,3.214,0,0,0,1.21-.4c-.269-.269-.807-.269-1.749,0a10.111,10.111,0,0,0-3.228,1.076c.269,0,.538-.269.941-.269h1.076Z" transform="translate(-78.43 -19.672)" fill="#228081"/><path d="M125.747,33.335c0,.134.269.269.538.134h.538c.269-.134,3.094-1.211,3.228-1.345.135-.4,2.152-1.48,3.5-2.018a17.393,17.393,0,0,0,2.825-.942c0-.4-1.883-.269-2.69,0-.538,0-1.076.4-1.345.4-.942.134-1.211,0-2.018.134a4.538,4.538,0,0,0-1.614.538,14.7,14.7,0,0,0-2.287.673c0,.269.4.269.4.4-.135.538-2.287,1.614-2.421,2.152-.134.269,1.48-.269,1.749-.134Z" transform="translate(-82.572 -18.271)" fill="#228081"/><path d="M135.632,27.514a2.925,2.925,0,0,0-1.345.269h.269a2.848,2.848,0,0,0-.942.4h.135a1.8,1.8,0,0,0-.673.134v.269h0c-.538,0-.673.269-1.076.4.135.135,0,0,0,.269,0,.134.269.269.538,0a6.6,6.6,0,0,0,1.48-.135,10.618,10.618,0,0,0,1.749-.4.939.939,0,0,1,.538-.269c0,.269.269.134.672.269-.538,0-1.076,0-1.21.4a3.259,3.259,0,0,0,1.21,0,19.086,19.086,0,0,0,2.959-.673,20.9,20.9,0,0,1,3.094-.673s2.69-.269,2.959-.4c.4,0,1.614-.673,1.614-.942s-.4-.269-.941-.269a3.214,3.214,0,0,0-1.211.4c-.941.135-1.614,0-1.614-.4V25.9h-.807a4.24,4.24,0,0,0-1.749.807c0,.269.673,0,1.076,0v.269h.538a2.948,2.948,0,0,1-1.076.4,19.912,19.912,0,0,1-4.035,0,2.289,2.289,0,0,0-.942.135c0-.269-.538,0-.673,0Zm-1.211.942h0Z" transform="translate(-79.948 -19.309)" fill="#228081"/><path d="M93.7,80.335c-.269,0,0,0-.269-.135a.417.417,0,0,1-.134.269.494.494,0,0,0,.134.4h.135v-.4Z" transform="translate(-93.3 -0.575)" fill="#228081"/><path d="M135.238,26.969a2.626,2.626,0,0,0,.942-.135V26.7a5.72,5.72,0,0,0-1.48.269c0,.135.269.135.538,0Z" transform="translate(-79.016 -19.033)" fill="#228081"/><path d="M156.17,25.838c0-.269-1.076-.538-2.018-.538-1.076,0-.941.4-1.48.4,0,0-.538,0-.673.269,0,0,2.825.269,3.094.269.673,0,.942-.269.942-.538Z" transform="translate(-73.047 -19.516)" fill="#228081"/><path d="M127.9,29.954c.269,0,.4-.269.673-.269a1.809,1.809,0,0,0,1.076-.269.65.65,0,0,0,.538,0,1.253,1.253,0,0,0,.942-.538,2.512,2.512,0,0,0,1.48-.807c.4,0,.134.4.941.269a12.3,12.3,0,0,0,1.883-.942c0-.135-.269,0-.269-.269a.74.74,0,0,0,.673-.4c0-.4-2.421.538-2.421.538a1.008,1.008,0,0,0-.673.135,9.028,9.028,0,0,0-2.287,1.076,20.945,20.945,0,0,1-2.018.807c-.135,0-.942.4-.942.538h.269Z" transform="translate(-81.5 -19.059)" fill="#228081"/><path d="M135.373,26.475a1.027,1.027,0,0,0,.672-.269c-.269,0-1.345-.135-1.345.269h.673Z" transform="translate(-79.016 -19.211)" fill="#228081"/><path d="M130.3,28.807c0,.135.269,0,.673,0,.538,0,1.211-.673,1.345-.807A4.555,4.555,0,0,0,130.3,28.807Z" transform="translate(-80.534 -18.585)" fill="#228081"/><path d="M161.7,22.535c0,.135.538.269,1.211.269v-.4H161.7Z" transform="translate(-69.701 -20.517)" fill="#e1e0df"/><path d="M149.776,30.477c-.135,0-1.076,0-1.076.135,0,0,3.632.4,4.3.4a3.214,3.214,0,0,0,1.21-.4,6.392,6.392,0,0,0-2.959-.807c-.942,0-.807.538-1.48.673Z" transform="translate(-74.186 -17.968)" fill="#228081"/><path d="M151.389,31.132a5.228,5.228,0,0,0,2.018-.269c-.941-.269-4.842-.269-4.842-.942,0-.538-1.076-.807-1.076-1.48,0-.269,1.076-.4,1.076-.673,0-.4-.673-.269-1.614-.135a2.4,2.4,0,0,0-1.48.4v.135c-.807.269-.4,0-1.345.134-.269,0-.807.135-.807.4a2.82,2.82,0,0,0,.807,1.076c-.269,0-.269.135-.673.269-.941,0-.4-.4-.673-.538a2.016,2.016,0,0,0-1.345-.269,2.289,2.289,0,0,0-.942.135l.135.269a5.92,5.92,0,0,1-1.345.269c-.269-.269-.673-.4-1.883-.269a3.789,3.789,0,0,0-1.48.538c-.135-.135,0-.538-.538-.538-1.614.269-5.515,1.614-5.784,2.556a3.259,3.259,0,0,0,1.211,0c.538-.135.807-.135,1.48-.269-.538.269-1.614.269-1.749.673,0,.4,2.152,0,3.228-.269a13.591,13.591,0,0,0,2.287-.4h1.076a6.94,6.94,0,0,0-1.48.269,13.854,13.854,0,0,0-4.3,1.211,3.458,3.458,0,0,0,1.883.269,16.633,16.633,0,0,1,2.421-.269c.538,0,0,.538.673.4,1.345-.269,2.69-.4,4.035-.538.942-.4,2.152-.4,3.363-.807.673-.269.4-.4,1.345-.538,1.345-.134,1.883.4,3.766.135a6.963,6.963,0,0,0,2.825-.538c-.135,0-.4,0-.4-.269h-.673c0-.135.269-.135.673-.269Z" transform="translate(-80.776 -18.757)" fill="#228081"/><path d="M95.3,81.8c.134.269,0,.538.269.538H95.7c0-.269,0-.538-.4-.4Z" transform="translate(-92.61 -0.023)" fill="#228081"/><path d="M144.272,24.2a1.355,1.355,0,0,1-.4.135,10.088,10.088,0,0,0,1.614-.135s-.135.135,0,.135a3.948,3.948,0,0,0-1.345.4h1.211c.673,0,1.211-.269,1.48,0a11.57,11.57,0,0,0,2.152-.135c1.076,0,.942.269,2.018.269.269,0,.807,0,.807-.269s-.942-.269-1.211-.269a.664.664,0,0,0,.4-.135,7.57,7.57,0,0,0-1.345-.269c-.269,0-.4.135-.673.135-.538,0-.4-.269-1.345-.269a3.421,3.421,0,0,0-.941.269H145.08c-.538,0-.942.269-1.48.269,0,.269,0,.135.673,0Z" transform="translate(-75.946 -20.034)" fill="#228081"/><path d="M144.28,25.213c.269,0,.538,0,.672-.269a10.207,10.207,0,0,0-2.152-.135c0,.269.942.538,1.48.4Z" transform="translate(-76.222 -19.699)" fill="#228081"/><path d="M144.442,26.638c.269,0,.673,0,.673-.269,0-.135-.135,0-.269-.269a1.581,1.581,0,0,0-1.345.538h.942Z" transform="translate(-75.98 -19.24)" fill="#228081"/><path d="M144.838,25.642H144.3v.135h0v.269h1.076v.135h.673a.786.786,0,0,0,.538.135,31.415,31.415,0,0,0,3.5-.538h.538c-.269,0-1.076.135-1.211.4v.135a.494.494,0,0,0-.4.135c0,.269,1.211,0,1.48,0a6.54,6.54,0,0,0,1.883-.269c-.135-.4.4-.673.538-1.076,0-.4,0-.4-.942-.4a1.45,1.45,0,0,0-.942.269H148.2c.269.269.807.135,1.614,0v.4c-1.211.135-1.48-.269-2.556,0v.135a7.584,7.584,0,0,0,.942.135c-1.48.269-2.018-.538-3.363-.269Z" transform="translate(-75.704 -19.723)" fill="#228081"/><path d="M148.071,24.5h-1.076c-.135,0-1.345.4-.4.269C147.264,24.769,147.8,24.769,148.071,24.5Z" transform="translate(-75.036 -19.792)" fill="#228081"/><path d="M150.307,22.769h.807V22.5H149.5c0,.269.538.135.807.269Z" transform="translate(-73.91 -20.482)" fill="#228081"/><path d="M192.376,51.8c-.4,0-1.076.942-1.076,1.211a.79.79,0,0,0,.807.538c.538,0,1.076-.135,1.076-.4v-.269c-1.21,0-.4-.269-.4-.673Z" transform="translate(-59.488 -10.374)" fill="#186c6c"/><path d="M186.1,84.069c0,.538.673.538,1.345.538.269,0,.673,0,.807-.269,0-.269-1.48-.538-1.614-.538,0,0-.673,0-.538.269Z" transform="translate(-61.287 0.667)" fill="#186c6c"/><path d="M193.073,93.3c-.269,0-.538.538-.673,1.211h.4c.269,0,.538-.538.673-.807v-.4Z" transform="translate(-59.109 3.945)" fill="#186c6c"/><path d="M189.545,52.173a1.811,1.811,0,0,1-1.211-.673.47.47,0,0,0-.135.269c0,.269,2.018,1.076,2.287,1.211,0,0,.538-.135.538-.4v-.269h-1.48Z" transform="translate(-60.558 -10.477)" fill="#186c6c"/><path d="M187.7,48.4a8.4,8.4,0,0,0,2.959,1.345,1.008,1.008,0,0,0,.673-.135C190.256,49.076,189.18,48.269,187.7,48.4Z" transform="translate(-60.73 -11.55)" fill="#186c6c"/><path d="M165.6,35.2v.269a6.431,6.431,0,0,0,2.556-.673h-1.48c0,.135-.673.269-1.076.538Z" transform="translate(-68.355 -16.239)" fill="#186c6c"/><path d="M170.849,35.465c-.538-.269-1.749-.4-1.749,0a4.477,4.477,0,0,0,.807.4C170.445,35.869,170.58,35.6,170.849,35.465Z" transform="translate(-67.148 -16.097)" fill="#186c6c"/><path d="M168.335,44.369a3.516,3.516,0,0,0,1.076.4h.135c0-.4-.673-.673-1.345-.673v.269Z" transform="translate(-67.458 -13.03)" fill="#186c6c"/><path d="M162,22.3c.135,0,.135.135.673.135h0A1.462,1.462,0,0,0,162,22.3Z" transform="translate(-69.597 -20.551)" fill="#f3f0ed"/><path d="M171.427,30.2c-.538,0-1.749.4-1.076.4S171.292,30.469,171.427,30.2Z" transform="translate(-66.784 -17.826)" fill="#186c6c"/><path d="M181.847,83.042c-.269,0-.672-.942-1.345-1.076H179.7v-.4a5.84,5.84,0,0,1-3.5-1.345s-.538-.673-.941-.673c-1.883,0-3.094-1.345-5.649-1.345s-3.766.807-4.708,2.421h.538a5.9,5.9,0,0,1,3.228-1.345c.269,0,.672,0,.807.134,0,0-.269.4,0,.538h1.614c.807,0,1.211.807,2.018.807a3.632,3.632,0,0,1,1.211,0c.135,0,.135.538.673.538.135.807,1.076.807,1.883,1.211,0,.269-.4.538-.538.538v.269c1.076,0,2.018.4,3.363.4.673,0,1.749,0,2.152-.673Z" transform="translate(-68.597 -1.265)" fill="#186c6c"/><path d="M172.707,73.6a1.534,1.534,0,0,0-.807.4h1.48A.928.928,0,0,0,172.707,73.6Z" transform="translate(-66.182 -2.852)" fill="#186c6c"/><path d="M172.635,75.9c0,.269,0,1.076.538,1.076,0,0,.269-.134.269-.269a.813.813,0,0,0-.673-.807h-.134Z" transform="translate(-65.975 -2.059)" fill="#186c6c"/><path d="M177.635,84.421c0,.269.4.807.673.807v-.4h.673a7.96,7.96,0,0,1,2.556.134c.135.135,0,.673.673.673s.538-.942,1.21-.942c.269,0,.269.269.538.269s.538-.269.942-.4h2.018a5.266,5.266,0,0,0-1.345-1.076l.134.134c-.942-.538-1.345-1.345-3.094-1.48-.673,0-.942.269-1.614.269-.4,0-.807-.4-1.345-.4,0,0-.4.269-.4.4,0,.269.538.538.673.538a1.227,1.227,0,0,0,.4,1.076c-.673.269-1.211,0-2.556,0,0,0-.135.269-.269.269Z" transform="translate(-64.25 0.046)" fill="#186c6c"/><path d="M231.459,75.035a2.093,2.093,0,0,1-.4,1.211,2.661,2.661,0,0,0-.942,1.345q-.4,2.018-.807,4.439c0,.673-.538,1.076-.538,2.018,0,1.749.538,3.094.538,4.977a9.062,9.062,0,0,1-.807,3.632,15.214,15.214,0,0,0,.538,2.018v1.345h0c0,.269,0,.269.269.538,0,.134.807,2.018.942,2.287a14.535,14.535,0,0,1,.673,2.825c0,.673.4.807.538,1.211.135.269,0,.538.269,1.076a104.5,104.5,0,0,0,.942-13.047A116.7,116.7,0,0,0,231.325,74.9Z" transform="translate(-46.654 -2.404)" fill="#186c6c"/><path d="M173.9,74.1s.134.4.269.4C174.169,74.5,173.9,74.235,173.9,74.1Z" transform="translate(-65.492 -2.68)" fill="#186c6c"/><path d="M179.276,80.738V80.2a1.4,1.4,0,0,1-1.076.538v.269h.269a2.493,2.493,0,0,0,.942-.269Z" transform="translate(-64.008 -0.575)" fill="#186c6c"/><path d="M173.035,84.1a1.014,1.014,0,0,0,.941.807c.673,0,1.211-.269,1.883-.269,0-.134-.135-.4-.538-.538h0a10.529,10.529,0,0,0-1.883-.4c-.135,0-.538.135-.538.269Z" transform="translate(-65.837 0.632)" fill="#186c6c"/><path d="M166.6,80.507h.807V79.7h-.135v.4a.527.527,0,0,0-.538.538Z" transform="translate(-68.01 -0.748)" fill="#186c6c"/><path d="M176.749,31.7c-.135,0-.538-.269-1.076-.4,0,0-.673,0-.673.135s.269.269.673.269h1.076Z" transform="translate(-65.112 -17.446)" fill="#186c6c"/><path d="M164.9,32.4c0,.134.269.4,1.076.4A1.623,1.623,0,0,0,164.9,32.4Z" transform="translate(-68.597 -17.067)" fill="#186c6c"/><path d="M187.1,50.6Z" transform="translate(-60.937 -10.788)" fill="#186c6c"/><path d="M164.38,33.891h1.749c-.269,0,0-.538.673,0,.4.269,2.825-.807,2.959-1.076,0-.269-1.211-.538-1.211-.673s-.673-.538.942-.942c.269-.269,0-.134,0-.538a3.6,3.6,0,0,1-1.48-.269,20.875,20.875,0,0,1,3.094.135c0,.135-.269.4.4.538.942,0,1.614-.673,2.287-.673a21.085,21.085,0,0,1,3.766,1.345c-.269,0-1.211,0-1.211.135,0,0,.269.269.4.269a6.481,6.481,0,0,1,1.614,0c1.076,0,4.3,1.345,4.3,1.883,0,.269-.942.673-1.345.807-.269,0-1.211-.134-1.211.269,0,.134.673.4.942.538a12.957,12.957,0,0,1-2.287,0,10.872,10.872,0,0,1-2.152-.134,5.12,5.12,0,0,0-2.018.4c0,.269,1.614.673,2.287.673s.941-.269,1.48-.269c.4,0,.4.134.807.269.4,0,.807,0,.942-.269,1.48.4,2.287.942,4.035,1.345-.807.673,2.152.942,3.5,1.345s2.152.4,3.632.942a.939.939,0,0,0,.538.269c.135,0,.4,0,.4-.269-.135-.673-2.825-1.345-3.766-1.883h.673a21.643,21.643,0,0,0,4.708,1.345c.135-.269.673-.538.538-.807,0-.269-.942-.4-.942-.538v-.4h-.807c-.134-.4-.4-.134-1.345-.4a4.188,4.188,0,0,1-1.211-.942H189.4v-.269h.673v-.269a2.289,2.289,0,0,1-.942-.135,2.124,2.124,0,0,1,.942,0c2.421.269,2.556,1.614,4.977,2.018.538,0,.538-.269.538-.538h.942V36.85c.538,0,1.345.135,1.345-.134,0-.4-.4-.538-1.345-.673-.269,0-.673,0-.807-.269-.4-.538-.538-.135-1.614-.269a1.362,1.362,0,0,1-1.211-.807c-.941-.134-2.287-.538-2.421-.942a3.375,3.375,0,0,1-1.345-.269c.4-.269.807-.135,1.48-.269-.135,0-.538-.269-.673-.269a5.721,5.721,0,0,1-1.48-.269c.4-.269.942,0,1.614,0a3.153,3.153,0,0,0-1.345-.673h-.807v-.269a24.537,24.537,0,0,1-3.363-.942c0-.4-1.076-.538-1.614-.538H181.73c-1.614-.134-2.018-.807-3.094-1.211a26.015,26.015,0,0,0-3.632-.538c-.941,0-1.076.4-1.883.4-.4,0-.538-.269-1.211-.269a1.994,1.994,0,0,0-.941.135c-.269,0,0-.269,0-.4,0-.4-.673-1.076-2.018-1.076-2.018,0-5.246,0-5.246.807,0,.269.538.269.538.538,0,.134-.673.4-.942.4h-.4V30.8c.269,0,.673.135.941.135h.269c0,.4.807.4.807.673s-1.211.269-1.48.4a1.792,1.792,0,0,0-.4.673v1.345c.942,0,1.345.538,2.018.538Z" transform="translate(-69.287 -18.826)" fill="#186c6c"/><path d="M163.746,28.18v-.269c-.269,0-.4,0-.4-.135,0-.269.269-.4.538-.4V26.7h0a10.171,10.171,0,0,0-3.9.673c-.135,0,0,.4-.4.538-.807.135-1.076.269-1.076.807,0,.269.673.538.673.538a20.924,20.924,0,0,1,2.69.135v.269h-2.287c0,.269.807.269,1.076.538h2.421a6.334,6.334,0,0,1,.673.269V28.718c-.135,0,0-.135,0-.269Z" transform="translate(-70.805 -19.033)" fill="#228081"/><path d="M162.6,32.538v.134h0Z" transform="translate(-69.39 -17.205)" fill="#f3f0ed"/><path d="M163.442,34.856c0,.269-.269.4.4.4.269,0,.269,0,.4-.134.807.134,2.421-.269,2.421-.807a20.8,20.8,0,0,1,2.018.538h1.345a7.106,7.106,0,0,0,1.749-.134c-.4-.269-1.345-.134-2.287-.538-.269,0,0-.269-.4-.4-.942-.538-2.556-.4-3.632-.942,0,0-.4,0-.4.134-.269-.269-.538-.269-.807-.673-1.48,0-1.614.807-1.749,1.211v1.076h.941Z" transform="translate(-69.425 -17.101)" fill="#186c6c"/><path d="M164.114,26.735s-1.48-.135-1.614-.135v.673A4.538,4.538,0,0,0,164.114,26.735Z" transform="translate(-69.425 -19.068)" fill="#f3f0ed"/><path d="M166.939,26.142a2.653,2.653,0,0,0,.941.269c1.749,0,3.9.135,4.035-.4h-.673a.417.417,0,0,0,.269-.134h.4a10.666,10.666,0,0,0-3.9-.673c-2.421,0-3.228.269-5.515.269v.807h3.094c.538,0,.538-.134,1.211-.134Z" transform="translate(-69.425 -19.551)" fill="#186c6c"/><path d="M162.887,21.269h-1.479a19.663,19.663,0,0,0-4.708.538h3.228a2.425,2.425,0,0,0-1.345.269h.807c.942,0,.942-.269,1.883-.269h.942a6.012,6.012,0,0,0-2.959.4h2.287a3.748,3.748,0,0,0-1.345.135c.269,0,1.614.269,2.555.269H164.5V21c-.673,0-.269.269-1.749.269Z" transform="translate(-71.426 -21)" fill="#228081"/><path d="M163.711,23.035V22.9H162.5v.4h1.076Z" transform="translate(-69.425 -20.344)" fill="#f3f0ed"/><path d="M164.718,25.977h3.632c.942,0,.538.269,1.614.269s3.766,0,3.9-.269c0-.135-.673-.135-.673-.135h-1.21c0-.4,2.018,0,2.018-.538a.478.478,0,0,1-.4-.269,14.618,14.618,0,0,1,2.421.135c.807,0,1.076-.4,2.018-.4a8.357,8.357,0,0,0-1.345-.4c.942,0,1.48.269,1.345,0h1.614c.807,0,1.749.269,2.421.269,1.345,0,2.287-.4,4.035-.4,1.614,0,4.035.269,4.977.269-1.076-.135-2.825-.4-3.363-.538,2.421,0,4.439.673,6.053.673.269,0,1.076.269,1.076,0-.135-.269-2.287-.538-2.825-.807-.269,0-.269-.135-.807-.269a1.912,1.912,0,0,1-.807-.269c-1.076,0-2.287-.269-3.363-.269h.807a39.911,39.911,0,0,0-5.784-.942,3.724,3.724,0,0,1-1.211-.135,7.741,7.741,0,0,1-1.345-.269h-1.48c-.673,0-.941-.269-1.749-.269h-.538c-1.749,0-3.5-.269-5.38-.4h-2.018a5.618,5.618,0,0,0-2.287.4c-.4,0-2.287-.269-3.094-.269h-.135v1.614a11.832,11.832,0,0,1,1.883.135h.942a8.4,8.4,0,0,1,1.614.135,24.987,24.987,0,0,0,3.5-.135h.673a20.082,20.082,0,0,0-2.287.269h-2.69s1.614.4,1.749.4a19.294,19.294,0,0,1-2.959-.538H162.7v.135h0v.4c.941,0,2.018.135,2.152.4,0,.4-1.076.269-2.152.269V24.9c.269.4,1.48.4,2.152.538h-.941a3.927,3.927,0,0,1-1.211-.269V26.38h2.287Z" transform="translate(-69.356 -21)" fill="#186c6c"/><path d="M176.042,148.245v-.673a.263.263,0,0,0,.269-.269c0-.269,0-.4-.538-.4-.269,0-.673.807-.673.807v.269a.939.939,0,0,0,.538.269Z" transform="translate(-65.078 22.437)" fill="#186c6c"/><path d="M187.335,50.7H187.2S187.2,50.969,187.335,50.7Z" transform="translate(-60.903 -10.753)" fill="#186c6c"/><path d="M170.856,27.876H172.6a6.94,6.94,0,0,1,1.48.269c.4,0,.673,0,.807-.269a17.652,17.652,0,0,0-3.363-.807c-1.076,0-1.345-.269-2.421-.269-.269,0-.807,0-.807.269s.538.269.942.4c-.4.269.538.4,1.48.538Z" transform="translate(-67.424 -18.999)" fill="#186c6c"/><path d="M175.494,31.784c0-.673-3.094-1.076-3.094-.269,0,.269.538.538,1.345.538.673,0,1.749,0,1.883-.269Z" transform="translate(-66.009 -17.527)" fill="#186c6c"/><path d="M172.611,34.64c-.673-.134-.673-.269-1.211,0A1.009,1.009,0,0,0,172.611,34.64Z" transform="translate(-66.354 -16.348)" fill="#186c6c"/><path d="M234.627,116.89a4.509,4.509,0,0,1-1.345,0,4.685,4.685,0,0,1-1.883-1.749,9.189,9.189,0,0,0-1.749-.538,9.4,9.4,0,0,0-1.614.4c-.807,0-.807-.538-1.749-.538-.4,0-.538.4-.941.538h-.269v-1.076c0-.269-.4-.269-.807-.4-.538-.269-2.018-1.076-2.825-.941-.807,0-1.345,1.076-1.883,1.883,0,.269-.4.538-.538.673,0,0-.269-.4-.135-.538h-1.076a1.2,1.2,0,0,0-.673-1.076c-.269,0-.673,0-.673-.538.135-1.48,1.749-3.363,2.556-4.3,0-.4-.538-.4-.807-.942a15.733,15.733,0,0,1-.672-2.69c-.807-.134-1.749-1.749-2.556-1.749h-.269a7.583,7.583,0,0,1-1.614-.538h-1.345c-1.345-.134-3.363,0-3.766-1.345-.269,0-.673,0-.807-.269-.673-1.211-1.076-1.076-2.018-2.018h-1.479c-.269-.673,0-1.345-.673-1.614-.807-.269-1.883-.4-2.287-1.076v-.4h.807a5.051,5.051,0,0,0-1.48,0c-.135,0-1.345.134-1.345.269-.4.673-.807.673-1.749.807-.4,0-1.076,0-1.076-.538h-2.959a.917.917,0,0,1-.673-.942c-.807,0-2.152-.4-2.287-1.211h-.941c0,.673.807.4,1.076.941h-1.345c-.538.4-1.345.269-1.479,1.076,0,.673.673.942.673,1.614,0,.135-.4.807-.538.807-.673,0-.942-1.076-.942-1.614,0-.4.4-1.345.538-2.152a.736.736,0,0,0,.538-.673,1.877,1.877,0,0,0-.538-.673c-.673,0-.941.807-1.614,1.076-1.48.4-2.287.673-3.766,1.076a2.4,2.4,0,0,0-1.614,1.211,2.84,2.84,0,0,1-.538,1.345c-.269,0-.942.4-.942.942a1.935,1.935,0,0,0-.4.269v.269h-.673l-.4.4.4-.4c-.942-.673-.942-2.152-2.69-2.287-1.345,0-2.152,1.076-3.632,1.076-1.076,0-.942-.942-1.614-1.211-.942-.4-2.152-.807-2.152-2.018V92.277c.4-.538.4-2.556.4-3.094v-.807c-1.076-.269-1.345-1.076-2.825-1.076a15.446,15.446,0,0,0-2.556.134v6.591c.269.269.538.4.807.673a1.938,1.938,0,0,1,.807.942c.269.807-.269,1.48.538,2.018h.538v-.538s2.018,1.076,2.152,1.48c.135.269.269.942,1.076,1.076l.269.269c.269,0,1.345-.269,1.749,0,.4.4,1.076,1.345,2.018,1.48a.982.982,0,0,0,.942-.807s-.4-.269-.4-.538a4.448,4.448,0,0,1,2.018-1.345c.673,0,.269,1.211.942,1.48,0,.134-.269.4-.4.538a4.315,4.315,0,0,1,.673.4h.135v.269c0,.942.941.673,1.076,1.883,0,.538-.269.673-.269,1.345a8.573,8.573,0,0,1,.269,1.211v.269a1.936,1.936,0,0,1-.269.4l.538.538c-.4,1.48-1.883,1.076-2.556,2.152-.4.807-.807,2.152-2.421,2.287.269,2.287-.538,3.228-.673,4.439,0,.673,0,1.614.941,1.749.269,0,.269-.269.807,0-.269.807-1.21.942-1.749,1.749a3.035,3.035,0,0,0-.673,1.48,4.367,4.367,0,0,0,1.345,2.421c.135.135.673,0,.807.4a2.509,2.509,0,0,0,.673,1.345c.135,0,.538,0,.673.269a26.185,26.185,0,0,1,1.211,2.69c.4.941.673,2.152,1.076,3.228.269.672,1.076,1.076.942,1.749,0,.538-.269,1.076.134,1.48a6.739,6.739,0,0,0,3.228,1.749,3,3,0,0,1,1.749.807,7.089,7.089,0,0,0,2.018.673,3.538,3.538,0,0,1,2.152,2.018,29.257,29.257,0,0,1,.135,3.363,16.26,16.26,0,0,1-.673,2.421,7.668,7.668,0,0,1-.135,1.749c-.135.4-.4,1.211-.538,1.48v.4c-.135,1.345-.941,2.152-1.076,3.632,0,.673-.673,1.21-.4,1.883a8.713,8.713,0,0,1-.269,2.69,16.406,16.406,0,0,1-.942,2.287l-.538.269c-.269.269-.4.672-.673.941a4.132,4.132,0,0,0-1.345,2.018v1.076a.263.263,0,0,1,.269.269,1.472,1.472,0,0,1-.538.269,6.283,6.283,0,0,0-.673,1.345c0,.4-.269,1.076.135,1.076.269,0,.4-.269.807-.4h.4v.4l-2.421,3.632c-.673,0-.269-.4-1.211-.269-.269,0-.4,0-.4.269h0v.269c0,.4.538.4.538.673-.135.538-1.076.673-1.211.941,0,.4.538,1.076.538,1.48v.269c0,.4,1.21.269,1.076.673,0,.135-.269.269-.4.4h.4c-.135.269-.807,0-.942.4a.664.664,0,0,1,.4.135,2.782,2.782,0,0,0,2.018.269c0,.135,0,.135.4.135h.807c-.135.538.942.135,1.48.135.673,0,.269.538,1.211.269.4,0,.807-.135,1.21-.135h.807c.4,0,1.48-.538,2.152-.673a1.212,1.212,0,0,0,.673-.135,19.892,19.892,0,0,1-2.959-.135c-.538,0-.269-.942-.942-1.076-.269,0-.538,0-.538-.4.135-.673.4-.673.942-.942.4-.135,1.076-.135,1.48-.538.269-.269.269-.538.673-.807.673-.4,1.883-.672,2.018-1.21,0-.673-1.883,0-1.749-.942,0-.4.807-.807,1.48-.941.269,0,1.614.269,1.749,0a3.586,3.586,0,0,1,1.48-1.749c-.269,0-.4,0-.4-.4a2.87,2.87,0,0,0,1.076,0s.538-.134.538-.4c0-.135-.135,0-.4-.269a1.655,1.655,0,0,1-.673.269.79.79,0,0,1-.673-.941c0-.135.135-.4.538-.4.941-.135.941.269,2.018,0,.269,0,1.076-.4,1.076-.538v-.269c.4-.4,0-.807.538-1.211s1.883-.269,2.69-.538c1.076-.4,2.018-.4,2.825-1.076.538-.4.807-.673,1.345-1.076a1.534,1.534,0,0,0,.4-.807c0-.4-.538-.135-.673-.538,0-.538,0-.673-.269-.941-.135,0-.807,0-.673-.4,0,0,.269-.269.4-.269a7.577,7.577,0,0,0,1.749,0h1.883c2.018-.4,2.69-2.018,3.766-3.228.942-.941,2.018-1.883,3.094-2.959.538-.538,0,.269.538-.269h0a7.2,7.2,0,0,1,2.018-2.018,27.833,27.833,0,0,1,.538-2.959c0-.673-.134,0,.538-.538.4-.4.942-.4,1.345-1.076.942-1.211,1.883-.942,2.959-2.018a.919.919,0,0,1,.538-.538,4.479,4.479,0,0,1,2.018-.673,2.781,2.781,0,0,0,1.883-1.345,2.34,2.34,0,0,1,.4-.941,25.85,25.85,0,0,1,1.749-2.287,8.358,8.358,0,0,0,.4-1.345,2.379,2.379,0,0,1,.673-1.076.939.939,0,0,0,.269-.538c0-.538.807-2.69.807-3.363.135-.942-.4-1.211.269-2.018.4-.538.807-.673,1.345-1.345.269-.4.4-.538.673-.941,1.345-2.018,2.959-3.9,3.5-6.994,0-.942,0-1.749-.673-1.883Z" transform="translate(-69.459 1.874)" fill="#186c6c"/><path d="M178.862,108.408c-.269,0-.673-.269-.673-.538V107.6c.269-.269,1.076-.538,1.076-1.076v-2.556h.538v.4a2.557,2.557,0,0,0,.673-1.749c0-1.076.942-2.018.942-2.69V99.4h-1.345a10.428,10.428,0,0,0-1.21-.135c-1.614,0-3.632,0-3.766,1.48,0,.807-.941,1.48-1.211,2.152,0,.134-.4.807-.807.807a3.918,3.918,0,0,0-1.076-.269c-1.211,0-2.152.673-3.228.807-.4,0-.538-.4-.942-.673-1.614-.4-1.48-1.345-2.556-2.287-.4-.4-1.21-1.076-1.345-1.48-.269-.538,0-.807-.135-1.211,0-.134-.538-.673-.4-1.076V94.554c.135-.807.538-1.076.538-2.152a1.912,1.912,0,0,0-.269-.807h.135a1.972,1.972,0,0,1-.269-.538,3.382,3.382,0,0,1,2.018-3.363c.538-.269,1.076.135,1.614-.269.673-.673,1.48-1.883,3.228-2.018.673,0,.941.538,1.614.538.269,0,.673-.4.807-.4,1.211,0,2.556,1.749,4.17,1.076-.673-.4-.135-.941,0-1.614-.269,0-.269.135-.807,0a24.35,24.35,0,0,1,3.094-.4s.269.4.4.4c.4,0,.673-.4,1.48-.4a1.706,1.706,0,0,1,.807.134V65.1c0,.673-.4,1.48-1.076,1.48a1.087,1.087,0,0,1-1.211-.942c0-1.076.4-3.363,1.345-4.3-.538,0-.807.269-1.345.673,0-.673,1.211-1.345,2.287-1.749V59.046c-.269,0-.538.269-.942.269-.269,0-.942-.269-.942-.538H179c.134-.269.672-.538.672-1.076-.807.134-1.749.942-2.421.942-.4,0-.538.538-1.48.538a.806.806,0,0,1-.807-.4,3.421,3.421,0,0,0-.941.269h-.807a15.291,15.291,0,0,1,4.3-2.421,5.72,5.72,0,0,0,1.48-.269c.538-.269.269-.807.942-.942.673,0,1.076.807,1.345.942v-.538h.4a.833.833,0,0,1,.538.269V46.806C180.611,46.268,179,46,177.248,45.6a23.106,23.106,0,0,0-2.421-.538c-.807,0-1.21.538-2.018.538a2.671,2.671,0,0,0-2.018-2.287c-.538,0-.807.269-1.345.269.134-.269,0-.538,0-1.211a3.329,3.329,0,0,1,2.018-2.825c.4-.269,1.345-1.345,1.749-1.345.942-.134,1.749.4,1.749-.269,0-.4-2.018-.4-2.69-.538.4,0-1.21-.538,3.094,0,1.076,0,.4-.538,1.076-.538h1.211c1.345,0,1.883-.673,2.825-.942v-.4c-1.749-.269-3.5,0-4.3-.807h.941a9.537,9.537,0,0,0,2.287.538,8.088,8.088,0,0,0,2.69-.4v-.942h0V32.549c0,.135-.269.269-.538.538a1.535,1.535,0,0,1-2.152-.135c0-.4.807-.269.941-.673a4.938,4.938,0,0,0-1.883-.807c-1.48,0-.4,1.076-2.018,1.076,0-.4,0-.673-1.211-.942.135,0,.4-.269.538-.269a14.9,14.9,0,0,1-2.556-.269c.269,0,1.211-.269,1.345-.538,0-.4-1.48-.4-1.48-.673,0-.538-.673-.942-1.883-.942A1.235,1.235,0,0,0,172,28.38h-.672c.269-.4.269-.135,1.345-.135a4.7,4.7,0,0,0,2.825-.807,8.572,8.572,0,0,1,.941-.269V26.9H171.6c-1.076,0-1.345.269-1.345.269V27.3h-1.076v.269c.269.4,0,.538.673.807v.4c-.673,0-.4.269-.269.538-.673,0-1.345,0-1.48.4,0,.269.4.269.4.538s-.673.269-.673.538c0,.807,3.228,0,3.363.942a2.94,2.94,0,0,1-.4.673,4.158,4.158,0,0,0,1.076-.269c.538.942-2.69.673-2.825,1.883-1.749.269-.269-.538-.673-.807a9.625,9.625,0,0,0-2.287-.135c-.942,0-1.211.269-1.345.807a20.021,20.021,0,0,0-5.111,0c-2.69.269-4.708,0-5.246-.807-.941.134-3.632.538-3.766,1.076,0,.134.134.269.538.134a8.781,8.781,0,0,0,2.69-.673c0,.807-2.152.4-2.421,1.211,0,.134.4.673.135.673-1.076,0-1.076-.4-1.883-.538H149a19.643,19.643,0,0,0-2.959.4,10.313,10.313,0,0,0-2.556.673c-1.749.4-1.749,0-1.749,0,0-.269,1.345-.4,1.749-.538-1.076-.673-.807-.673-3.363,0-2.69.538-4.439,0-6.86.538-.807.134-.4.538-1.076.673-.4,0-.673,0-.807-.269-.807.269-.942.673-1.749.942-.673.269-1.48-.4-1.614-.4-.807.269-.673.807-1.48.942-.269,0-.4.135-.538,0a16.338,16.338,0,0,0-2.69,1.211c-.4.134-1.211.942-1.749.807-.673-.134-.807.4-1.076.538-2.287.807-.807.807-1.211.942a14.348,14.348,0,0,1-3.632.942,86.058,86.058,0,0,0-9.146,10.76c.269-.134.538-.4.807-.538.134.538.942.269,1.883.134.538-.269,1.076-.4,1.614-.673a16.48,16.48,0,0,1,2.556-.269c.538,0,.538.673,1.345.4.269,0,.4-.4.673-.673.4.134.4.269.941,0,.269-.134.4,0,.538,0,0,.134-.4.269-.538.673,0,.134.269.269.4.269.538,0,.4-.4,1.076-.673v.269c0,.134-.538.4-.673.538,0,.134,0,.4.538.269.673,0,1.076-.269,1.076,0v.4c0,.269.807.538,1.345.4h.4c0,.134.134.134.134.269,0,.4-.134,2.152.4,2.152h.807c.4.269-.269.673.269.807l.942.269c.269.538,0,1.345,1.614,1.076,0,.538,1.614,0,1.883.673,0,.269,1.076.134,1.614.4h.4c0,.269.538.269.538.673,0,.269-.538.673-.673.942-.135-.269-.538-.4-1.211-.269-.134,0-.673.134-.673.269,0,.673.942.807.942,1.48-.135.942-1.614,5.38-1.345,6.456s0,1.614.538,2.69c-.269.134-.807.538-.538.942.673,1.345,1.48,3.228,2.421,3.228-.4,2.018.673,1.211,1.211,2.825a1.617,1.617,0,0,0,.269,1.076c1.749.538,4.035,1.345,4.842,2.825h0v.4c.269,1.211.673,1.345,1.211,2.287.269.538.269,2.018.807,2.287a14.88,14.88,0,0,1,2.421,2.556c.4.673-.807.538-1.076.538.538.807,1.614.538,2.287,1.211.538.538.942,1.076,1.48,1.614v1.345c0,.269.135.269.538.4.538.4,1.076,1.48,2.018,1.48a7.461,7.461,0,0,0,.807,1.076,2.19,2.19,0,0,0,.4-.807c0-.269-.673-1.211-1.076-.807-.942-.673-1.211-1.883-1.614-3.094-.4-1.076-1.345-1.614-1.749-2.69a3.334,3.334,0,0,0-1.076-2.018c-.538-.538-1.211-.4-1.48-1.211a5.22,5.22,0,0,1-.807-2.556v-.673c.673.538,1.48.538,2.287.942.269.134.269,1.211.673,1.749.4.4.269,1.211.673,1.749l1.749,1.749h.538c0,1.211,1.614,1.345,2.152,2.152.269.538-.135,1.076.269,1.48.538.538,1.345.673,1.883,1.211a11.985,11.985,0,0,1,3.094,4.708c0,.269.538.538.538,1.211,0,.538-.538.941-.538,1.48,0,.4.4,1.076.807,1.076.269.673,1.883,1.076,2.556,1.614.134,0,.4.269.672.4.673.269,1.076.269,1.883.538.673.4.942.942,1.749,1.211.673.134,1.076-.135,1.614,0,.673.269,2.421,1.48,3.228,1.48h1.345c.134,0,.673.4,1.211.538.941,0,1.21-1.076,2.152-1.076a3.007,3.007,0,0,1,1.345.4h.4c1.614.673,2.018,2.959,3.9,3.766,1.211.538,2.018.269,3.094.807a6.512,6.512,0,0,0,2.421.942c.269,0,.673-.269,1.076-.269h.4a3.479,3.479,0,0,0,1.48,1.883v-6.591c-.942,0-1.883.135-2.959.135Z" transform="translate(-88.746 -18.964)" fill="#228081"/><path d="M164.764,53.961c.269.538,0,.942.4,1.211,1.345.942,2.959.807,4.3,1.48h1.48c.673.4,1.48.807,1.48,1.48a.579.579,0,0,1-.538.538,2.512,2.512,0,0,1-1.48-.807c-.269.673-.672,2.69-1.479,2.825-.538-.4-.538-.673-.807-1.345-.538,0-.4.269-1.076.269.135-.673.538-1.076.538-1.614s-2.018-1.345-2.421-1.345c-.942,0,0,.942-2.018,1.076-.538,0-.672,1.345-.538,1.883V81.13c.807.269,1.48,1.076,2.286,1.076.4,0,.807-.673,1.211-.673,2.556,0,1.883,3.094,2.825,4.842a11.7,11.7,0,0,0,1.749,2.018c.269.538.269,1.345,1.211,1.345s1.21-.942,1.21-2.152c0-.942-.538-1.48-.673-2.152v-.269c0-1.749-1.614-2.152-1.614-3.9,0-3.766,2.825-4.035,5.515-5.246H176.2a1.864,1.864,0,0,1,.942-.673c.4,0,.807-.538,1.345-.538.269,0,.538-.4.673-.538a1.792,1.792,0,0,1-.673-.4v-.4c.4,0,.807,0,.807-.538a.806.806,0,0,1-.807-.4c.269,0,.673-.134.673-.538v-.538h-.4c-.269-.269,0-.269,0-.807s-.269-1.345-.269-1.749v-.673c0,.538.673,1.211.673,1.614v.538s.135.269.269.269a13.287,13.287,0,0,0,1.211-2.018c0-.269-.4-.538-.538-.942,0,0,.269-.134.269-.269,0,0,.269.4.4.4.269,0,1.345-1.749,1.48-2.018,0,0-.538-.4-.538-.538l.269-.269h.538a11.57,11.57,0,0,0,2.152-.134c-.269-.269-.807,0-1.345,0h-.538c1.076-.538,2.959-.269,4.035-.942a7.2,7.2,0,0,0,1.749,0v-.269l-.538.269c-.269,0-.538-.673-.538-.942,0,0-.269-.269-.269-.4,0-1.883,1.883-1.211,2.825-1.883a3.212,3.212,0,0,1,1.211-.269,1.834,1.834,0,0,0,1.614-.673,1.935,1.935,0,0,0-.269-.4v-.269h.538a5.74,5.74,0,0,0,2.152,0c.538-.269.4-.807,1.211-.807,0,.673,0,.673.807.807-1.211,0-2.959.673-2.959,1.614a1.946,1.946,0,0,0,1.076,1.211c.4,0,1.345-1.076,2.287-1.345.269,0,3.632-.942,3.632-1.345,0-.538-1.345-.673-1.614-.673-1.48-.135-3.9-1.614-4.035-2.69-.269,0-.807-.134-1.076-.134.269-.269,2.152-.4,2.018-1.345,0-.807-1.614-.807-2.69-.807-2.286,0-3.228,1.076-4.842,1.211.673-1.211,1.749-.673,2.825-1.614.673-.673,0-.942,1.211-1.211,1.883-.4,2.959,0,4.977.135,2.556.269,4.573,1.345,5.918-.135.673-.673,4.3-.134,4.17-1.211,0-.807-.538-1.076-.942-1.614-.269,0,0-.269-.4-.538v-.4a16.066,16.066,0,0,1-4.439.4s-.4,0-.538-.134c.941-.269,3.5,0,3.766-.673,0-.134-.4-.269-.4-.4-1.211,0-3.632-.673-3.766-1.749h0a8.259,8.259,0,0,1-2.421-.942c.269,0,.673,0,.673-.4,0-.269-.538-.673-.4-.942-.538-.134-2.152-.942-1.749-1.48.4-.673-1.614-.942-1.883-1.749,0,0-.672-.4-.942-.538-.269,0-1.211.269-1.076.673.269.673-.538.673-1.48.942-.538.134-1.076.673-1.614.538-.942,0-1.614-1.076-2.287-1.211-.807,0-.538-1.48-.807-2.152-.4-.807-2.959-.538-3.094-1.48-1.48-.269-1.21-.807-2.69-.807h-1.076c-1.48,0-2.421-.673-3.9-.673-.807,0-1.48,0-1.48.673,0,.269,1.883.807.269,1.345-.672.135.942.942,1.076,1.345.269.942-1.211,1.076-1.883,1.211.807.673,2.152.942,2.825,1.48.538.538.269,1.345.269,2.287,0,.538-3.094,1.883-4.17,2.018,1.883.673,1.211,2.287,2.018,2.959-.135.134-.807.942-.807,1.211a7.578,7.578,0,0,1-1.749,0c-1.345-.673-3.363-2.018-3.5-2.825a1.946,1.946,0,0,0-1.48-2.287,31.414,31.414,0,0,0-3.5-.538,6.659,6.659,0,0,0-1.749-.538V53.02a10.155,10.155,0,0,1,2.152,1.345Zm27.842,5.38a.664.664,0,0,0-.135-.4A1.355,1.355,0,0,1,192.606,59.341Zm-.269-.4v0Zm-.269-1.076v0Zm-18.83,3.363v0Zm.269.269a.664.664,0,0,0,.135.4A.664.664,0,0,0,173.507,61.493Zm.135-1.076a31.211,31.211,0,0,1,5.111-.673c0,1.614-3.5,1.211-4.977,1.076H173.1s.135.269.269.269c0,0-.269-.269-.269-.4s.538-.269.673-.4ZM172.7,62.3a.537.537,0,0,0,.538-.269,14.52,14.52,0,0,1-4.708,1.345c-.538,0-.807-.673-.807-1.076.135.134.538.538.807.538a1.15,1.15,0,0,0,.807-.4,2.858,2.858,0,0,1,2.152-.269,5.472,5.472,0,0,1,1.345.269Z" transform="translate(-69.403 -16.032)" fill="#186c6c"/><path d="M166.232,51.276v-.538c-1.211,0-1.749-.538-3.094-.538-.269,0-.4,0-.538.134v1.211a4.992,4.992,0,0,1,1.211-.269,7.115,7.115,0,0,0,2.421,0Z" transform="translate(-69.39 -10.926)" fill="#186c6c"/><path d="M162.845,33.8c0,.134-.269.269-.538.269,0,0-.673,0-.807.4h1.345V33.4h0v.4Z" transform="translate(-69.77 -16.722)" fill="#e1e0df"/></g></g><path d="M265.043,133.779c-.508,1.524-1.143,2.921-1.778,4.445a25.426,25.426,0,0,1,.127,11.556,13.132,13.132,0,0,1-7.239,8.763,15.578,15.578,0,0,1-5.461,1.4c-4.445.508-10.159-.127-17.271-2.032-12.064-3.175-27.558-10.032-45.337-21.843h0v0q-4.381-2.857-8.763-6.1C146.177,106.094,115.7,72.06,92.586,33.2L90.3,34.6a343.456,343.456,0,0,0,47.114,62.354,291.891,291.891,0,0,0,41.908,36.32c2.413,1.778,4.826,3.429,7.366,4.953,1.9,1.27,3.81,2.413,5.588,3.556,13.08,8,25.78,14.1,37.082,17.525.508.127,1.143.381,1.651.508a63.927,63.927,0,0,0,16.763,2.794h.635a21.113,21.113,0,0,0,9.017-1.778,15.824,15.824,0,0,0,8.763-10.54c1.27-5.08.635-10.921-1.016-16.636Z" transform="translate(17.959 0.072)" fill="#c5c5c9"/><g transform="translate(98.099 45.994)"><path d="M243.3,108.462a1.805,1.805,0,0,0-.254-.762c-.381,1.4-.889,2.667-1.27,4.064,4.572,11.429,6.35,24.256-2.54,32-3.937,3.3-10.794,4.826-19.811,4.191-1.9-.127-3.937-.381-6.1-.635a80.8,80.8,0,0,1-9.524-2.032,150.24,150.24,0,0,1-23.875-8.636v.635a19.59,19.59,0,0,1-.635,2.159,152.611,152.611,0,0,0,22.1,8.128,102.341,102.341,0,0,0,11.429,2.413c1.4.254,2.667.381,3.937.508a58.782,58.782,0,0,0,6.477.381c7.874,0,13.969-1.651,17.779-4.953,8.763-7.62,9.524-20.446,2.286-37.336Z" transform="translate(-56.117 -21.853)" fill="#c5c5c9"/><path d="M205.991,154.775a204.6,204.6,0,0,1-24.383-13.207C150.876,122.392,115.445,90.389,84.586,40.1L82.3,41.5c22.859,37.209,51.559,69.084,82.927,92.07,5.461,3.937,10.921,7.747,16.382,11.048a189.723,189.723,0,0,0,23.875,12.7,13.875,13.875,0,0,1,.635-2.159v-.635Z" transform="translate(-82.3 -40.1)" fill="#c5c5c9"/></g><g transform="translate(69.877 4.35)"><path d="M94.628,66.038c4.17,6.053,21.655,13.181,21.655,13.181s0-18.83-4.3-24.883c-4.17-6.053-9.146-5.111-13.988-1.883s-7.532,7.532-3.363,13.719Z" transform="translate(-55.522 7.803)" fill="#f7cb6b"/><path d="M95.878,62.6c2.825,4.17,15.871,10.491,15.871,10.491s-1.076-14.392-3.9-18.7c-2.825-4.17-6.322-3.632-9.684-1.345s-5.246,5.246-2.287,9.415Z" transform="translate(-54.888 8.282)" fill="#eeb31f"/><path d="M96.6,58.561c1.614,2.421,10.491,8.07,10.491,8.07s-2.018-10.357-3.632-12.778-3.632-2.018-5.515-.807c-1.883,1.345-2.959,2.959-1.345,5.515Z" transform="translate(-54.402 8.555)" fill="#f7cb6b"/><g transform="translate(2.791 10.088)"><g transform="translate(20.126 31.116)"><path d="M94.8,37.723s16.14-1.883,25.421,11.7c0,0,.269,2.018-2.152,1.076s-6.725-5.246-14.392,0L94.8,37.723Z" transform="translate(-77.669 -37.634)" fill="#e93859"/><path d="M85.072,44.8S77.4,59.192,86.551,72.776c0,0,1.749.941,1.749-1.614s-2.287-8.2,5.246-13.45L84.937,44.8Z" transform="translate(-82.064 -35.162)" fill="#bb3548"/></g><path d="M75.17,44.345A64.74,64.74,0,0,1,67.1,27.4L77.995,20l3.094,4.708a8.8,8.8,0,1,0,9.953,14.526l15.871,23.538-7.129,4.842c-7.532-3.228-16.947-11.7-24.748-23.269Z" transform="translate(-67.1 -12.602)" fill="#1f443f"/><path d="M90.533,28.892a8.7,8.7,0,0,0-12.24-2.287L75.2,21.9l10.895-7.4A66.232,66.232,0,0,1,98.872,28.219c7.8,11.567,12.24,23.269,12.509,31.473l-7.129,4.842L88.381,41a8.7,8.7,0,0,0,2.287-12.24Z" transform="translate(-64.305 -14.5)" fill="#346e67"/><path d="M103.76,48.3h.538l1.076,1.614v.538L98.38,55.294,96.9,53.008l6.994-4.708Z" transform="translate(-56.818 -2.839)" fill="#e6c536"/><path d="M91.535,56.608,98.529,51.9l1.48,2.287-6.994,4.708h-.538L91.4,57.28v-.538Z" transform="translate(-58.716 -1.596)" fill="#cdaf2f"/><path d="M78.477,34.226a5.931,5.931,0,0,0,8.339,1.614l1.614,2.287A8.8,8.8,0,0,1,78.477,23.6l1.614,2.287a5.931,5.931,0,0,0-1.614,8.339Z" transform="translate(-64.489 -11.36)" fill="#cdaf2f"/><path d="M89.74,26.177a8.822,8.822,0,0,1-2.287,12.24L85.839,36.13a6.006,6.006,0,0,0-6.725-9.953L77.5,23.891a8.822,8.822,0,0,1,12.24,2.287Z" transform="translate(-63.512 -11.786)" fill="#e6c536"/><path d="M77.772,33.639A5.887,5.887,0,0,1,79.386,25.3l6.86,9.953a5.887,5.887,0,0,1-8.339-1.614Z" transform="translate(-63.784 -10.774)" fill="#82cfd0"/><path d="M87.074,27.086a5.887,5.887,0,0,1-1.614,8.339L78.6,25.472a5.887,5.887,0,0,1,8.339,1.614Z" transform="translate(-63.132 -11.081)" fill="#24beed"/></g><g transform="translate(0)"><path d="M67.009,7.3,78.576,24.382l-10.895,7.4C63.915,19.405,64.588,8.914,67.009,7.3Z" transform="translate(-65.025 -6.896)" fill="#bb3548"/><path d="M66.5,7.4c2.421-1.614,12.509,1.614,22.6,9.684L78.2,24.485,66.635,7.4H66.5Z" transform="translate(-64.516 -7)" fill="#e93859"/><path d="M91.377,44.369h0l.269-.269,11.3,16.678-.4.269h0c-.269.134-.538,0-.673,0l-.4-.538-.538-.673L90.7,47.059a1.786,1.786,0,0,1,.269-2.556Z" transform="translate(-56.306 5.8)" fill="#bb3548"/><path d="M91.8,43.823h.269a1.784,1.784,0,0,1,2.152.807l8.07,14.257.4.673.4.538v.538l-.135.135h0l-.269.269L91.4,44.361l.4-.269Z" transform="translate(-55.925 5.674)" fill="#e93859"/></g></g></g></g></svg>