<svg xmlns="http://www.w3.org/2000/svg" width="92.39" height="81.918" viewBox="0 0 92.39 81.918">
  <g id="_23" data-name="23" transform="translate(-2.488 -2.558)">
    <g id="Capa_1" transform="translate(1.8 1.8)">
      <g id="Group_1115595" data-name="Group 1115595" transform="translate(0.689 0.758)">
        <path id="Path_904089" data-name="Path 904089" d="M107.16,43.264c.138,22.6-17.844,41.2-40.167,41.613H64.1c21.633-1.171,38.789-19.429,38.651-41.544A40.26,40.26,0,0,0,64.927,3.1h1.516A40.21,40.21,0,0,1,107.16,43.333Z" transform="translate(-21.867 -2.96)" fill="#017e6d"/>
        <g id="Group_1115594" data-name="Group 1115594">
          <path id="Path_904090" data-name="Path 904090" d="M83.684,43.2c.138,22.116-17.017,40.373-38.651,41.544H43.518A40.21,40.21,0,0,1,2.8,44.513a42.161,42.161,0,0,1,4.272-18.6c.344-.62.62-1.24.965-1.86A40.931,40.931,0,0,1,42.967,2.9H45.86A40.26,40.26,0,0,1,83.684,43.135Z" transform="translate(-2.8 -2.9)" fill="#01d2b5"/>
          <path id="Path_904091" data-name="Path 904091" d="M78.809,47.415a32.1,32.1,0,0,1-31.348,32.45A31.389,31.389,0,0,1,15.7,48.448,32.1,32.1,0,0,1,47.047,16,31.389,31.389,0,0,1,78.809,47.415Z" transform="translate(-6.812 -6.973)" fill="#fff"/>
          <path id="Path_904092" data-name="Path 904092" d="M73.971,51.565a23.179,23.179,0,0,1-22.6,23.356A22.6,22.6,0,0,1,28.5,52.254,23.179,23.179,0,0,1,51.1,28.9,22.6,22.6,0,0,1,73.971,51.565Z" transform="translate(-10.793 -10.986)" fill="#01a891"/>
          <path id="Path_904093" data-name="Path 904093" d="M69.1,55.778A14.2,14.2,0,0,1,55.317,70.04,13.718,13.718,0,0,1,41.4,56.261,14.2,14.2,0,0,1,55.179,42,13.718,13.718,0,0,1,69.1,55.778Z" transform="translate(-14.806 -15.061)" fill="#fff"/>
          <path id="Path_904094" data-name="Path 904094" d="M64.932,59.432A6.279,6.279,0,0,1,58.8,65.77a6.16,6.16,0,0,1-6.2-6.132A6.279,6.279,0,0,1,58.732,53.3,6.16,6.16,0,0,1,64.932,59.432Z" transform="translate(-18.29 -18.576)" fill="#004e7c"/>
        </g>
        <path id="Path_904095" data-name="Path 904095" d="M59.794,48.194l1.929-2.342a.652.652,0,0,1,.758-.207.662.662,0,0,1,.482.62V47.3c.069,0,40.029-21.013,40.029-21.013a14.214,14.214,0,0,0,.827-2.411.644.644,0,0,1,.344-.482l5.374-2.825a.887.887,0,0,1,.827.069.778.778,0,0,1,.207.758l-.9,2.549,2.687.827a.662.662,0,0,1,.482.62.758.758,0,0,1-.413.689L107.057,28.9a.659.659,0,0,1-.62,0l-2.549-.758L63.928,49.158l.827.689a.652.652,0,0,1,.207.758.662.662,0,0,1-.62.482l-2.963.276h0a.724.724,0,0,1-.62-.344l-1.1-2a.732.732,0,0,1,.069-.827Z" transform="translate(-20.455 -8.371)" fill="#1f074e"/>
      </g>
    </g>
  </g>
</svg>
