<svg xmlns="http://www.w3.org/2000/svg" width="90.913" height="90.914" viewBox="0 0 90.913 90.914"><g transform="translate(-10192 8991)"><g transform="translate(10192 -8991)"><rect width="90.914" height="90.914" rx="45.457" transform="translate(0 0)" fill="#98b7ca" opacity="0.859"/><rect width="90.914" height="90.914" rx="45.457" transform="translate(0 0)" fill="none"/></g><g transform="translate(10185.95 -8995.16)"><g transform="translate(26.817 24.926)"><path d="M156.4,31.15h26.362a2.068,2.068,0,0,1,2.062,2.062V67.278a2.068,2.068,0,0,1-2.062,2.062H156.4a2.068,2.068,0,0,1-2.062-2.062V33.213A2.069,2.069,0,0,1,156.4,31.15Z" transform="translate(-141.054 -31.15)" fill="#a6cfe2" fill-rule="evenodd"/><path d="M189.249,31.15h22.962a2.068,2.068,0,0,1,2.062,2.062V61.7a17.567,17.567,0,0,1-7.6.5c-10.641-1.552-19.267-11.756-19.267-22.794a18.789,18.789,0,0,1,1.839-8.263Z" transform="translate(-170.501 -31.15)" fill="#c5f3ff" fill-rule="evenodd"/><path d="M184.38,80.08h5.375v5.331H184.38Z" transform="translate(-167.803 -74.72)" fill="#fff3b7" fill-rule="evenodd"/><path d="M184.38,160.3h5.375v5.328H184.38Z" transform="translate(-167.803 -146.153)" fill="#fff3b7" fill-rule="evenodd"/><path d="M353.11,130.289l2.335,2.335a.85.85,0,0,1,0,1.2L344.434,144.84l-4.2.665.665-4.2,11.013-11.013A.854.854,0,0,1,353.11,130.289Z" transform="translate(-306.581 -119.21)" fill="#e4b906" fill-rule="evenodd"/><path d="M370.331,144.448l.938.938a.85.85,0,0,1,0,1.2L360.258,157.6l-2.258.357.369-2.322,11.013-11.013A.85.85,0,0,1,370.331,144.448Z" transform="translate(-322.405 -131.971)" fill="#f4dd00" fill-rule="evenodd"/><path d="M344.434,236.386l-4.2.665.665-4.2A4.784,4.784,0,0,1,344.434,236.386Z" transform="translate(-306.581 -210.756)" fill="#b3b3b3" fill-rule="evenodd"/><path d="M433.776,130.286l2.335,2.335a.85.85,0,0,1,0,1.2l-1.755,1.757-3.537-3.539,1.755-1.755A.856.856,0,0,1,433.776,130.286Z" transform="translate(-387.248 -119.207)" fill="#628cc9" fill-rule="evenodd"/><path d="M45.351,238.54h1.972a1.049,1.049,0,0,1,1.046,1.046v.763a1.034,1.034,0,0,0,.773,1.012,10.6,10.6,0,0,1,2.608,1.08,1.035,1.035,0,0,0,1.264-.168l.543-.54a1.048,1.048,0,0,1,1.478,0l1.394,1.394a1.048,1.048,0,0,1,0,1.478l-.543.543a1.038,1.038,0,0,0-.164,1.264,10.586,10.586,0,0,1,1.08,2.6,1.035,1.035,0,0,0,1.012.777h.763a1.049,1.049,0,0,1,1.046,1.046v1.972a1.049,1.049,0,0,1-1.046,1.046h-.763a1.033,1.033,0,0,0-1.012.777,10.706,10.706,0,0,1-1.08,2.608,1.031,1.031,0,0,0,.168,1.261l.54.543a1.048,1.048,0,0,1,0,1.478l-1.394,1.394a1.048,1.048,0,0,1-1.478,0l-.543-.54a1.035,1.035,0,0,0-1.264-.168,10.585,10.585,0,0,1-2.6,1.08,1.035,1.035,0,0,0-.777,1.012v.764a1.049,1.049,0,0,1-1.046,1.046H45.351a1.047,1.047,0,0,1-1.046-1.046V263.3a1.034,1.034,0,0,0-.777-1.012,10.7,10.7,0,0,1-2.608-1.08,1.036,1.036,0,0,0-1.264.168l-.54.54a1.052,1.052,0,0,1-1.481,0l-1.391-1.394a1.042,1.042,0,0,1,0-1.478l.54-.543a1.031,1.031,0,0,0,.168-1.261,10.663,10.663,0,0,1-1.08-2.608,1.035,1.035,0,0,0-1.012-.777h-.767a1.048,1.048,0,0,1-1.043-1.046v-1.972a1.048,1.048,0,0,1,1.043-1.046h.767a1.033,1.033,0,0,0,1.012-.777,10.628,10.628,0,0,1,1.08-2.6,1.035,1.035,0,0,0-.168-1.264l-.54-.543a1.042,1.042,0,0,1,0-1.478l1.391-1.394a1.052,1.052,0,0,1,1.481,0l.54.54a1.036,1.036,0,0,0,1.264.168,10.663,10.663,0,0,1,2.608-1.08,1.035,1.035,0,0,0,.777-1.012v-.763a1.047,1.047,0,0,1,1.046-1.046Z" transform="translate(-33.05 -215.822)" fill="gray" fill-rule="evenodd"/><path d="M90.7,287.94a7.851,7.851,0,1,1-7.85,7.85A7.851,7.851,0,0,1,90.7,287.94Z" transform="translate(-77.395 -259.811)" fill="#b3b3b3" fill-rule="evenodd"/><path d="M107.448,308.08a7.851,7.851,0,0,1-13.213,8.186,7.851,7.851,0,0,1,13.213-8.186Z" transform="translate(-86.949 -275.243)" fill="#e6e6e6" fill-rule="evenodd"/><path d="M174.967,327.69a1.889,1.889,0,1,1-1.887,1.887A1.887,1.887,0,0,1,174.967,327.69Z" transform="translate(-157.741 -295.207)" fill="#fff" fill-rule="evenodd"/><path d="M209.823,287.01a.871.871,0,1,1-.873.87A.868.868,0,0,1,209.823,287.01Z" transform="translate(-189.682 -258.983)" fill="#b3b3b3" fill-rule="evenodd"/><path d="M121.631,337.52a7.968,7.968,0,0,1-1.875.227,7.8,7.8,0,0,1-1.875-.227v-4.387a3.649,3.649,0,0,1,.1-6.893v2.85l.894.879.894.882.894-.882.894-.879v-2.838a3.648,3.648,0,0,1,.071,6.881v4.387Z" transform="translate(-106.451 -293.916)" fill="#98e6fb" fill-rule="evenodd"/><path d="M329.57,314.51H336.9v3.813H329.57Z" transform="translate(-297.089 -283.471)" fill="#f4dd00" fill-rule="evenodd"/></g><path d="M59.3,55.2h7.332a.769.769,0,0,1,.767.767v3.813a.769.769,0,0,1-.767.767H59.3a.767.767,0,0,1-.767-.767V55.964A.767.767,0,0,1,59.3,55.2Zm6.565,1.535h-5.8v2.28h5.8v-2.28ZM40.323,69.522a8.618,8.618,0,1,1,8.418-8.616A8.619,8.619,0,0,1,40.323,69.522Zm-2.845-2.041V64.616a4.338,4.338,0,0,1-1.574-6.4,4.983,4.983,0,0,1,2.158-1.674.77.77,0,0,1,1.053.711v2.53l1.022,1.006,1.022-1.006V57.262a.766.766,0,0,1,1.109-.686,4.39,4.39,0,0,1,.5,8.039v2.866a7.085,7.085,0,1,0-5.286,0Zm3.752.423V64.143h0a.767.767,0,0,1,.46-.7,2.844,2.844,0,0,0,1-4.795V60.1a.765.765,0,0,1-.23.547l-1.789,1.764a.766.766,0,0,1-1.071,0l-1.748-1.723a.763.763,0,0,1-.271-.587V58.616a2.748,2.748,0,0,0-.466,3.679A3.374,3.374,0,0,0,38.5,63.419a.767.767,0,0,1,.509.723V67.9A7.132,7.132,0,0,0,41.23,67.9ZM39.118,46.877h.22V26.988a2.834,2.834,0,0,1,2.826-2.828H68.527a2.835,2.835,0,0,1,2.828,2.828v8.723a1.785,1.785,0,0,1,1.391-.721,1.622,1.622,0,0,1,1.143.472L76.224,37.8a1.618,1.618,0,0,1,0,2.285l-4.869,4.869v16.1a2.833,2.833,0,0,1-2.828,2.826h-17.2a.223.223,0,0,0-.019.056,11.608,11.608,0,0,1-.491,1.435h0a12.244,12.244,0,0,1-.67,1.36.266.266,0,0,0,.044.338c.562.562,1.075.95,1.075,1.823a1.8,1.8,0,0,1-.535,1.279l0,0L49.347,71.57a1.82,1.82,0,0,1-2.564,0l-.54-.543a.266.266,0,0,0-.338-.047,11.457,11.457,0,0,1-2.794,1.158.268.268,0,0,0-.2.273c0,.8.087,1.428-.531,2.046a1.808,1.808,0,0,1-1.283.531H39.119a1.815,1.815,0,0,1-1.813-1.813c0-1.425.2-.736-1.64-1.525v0a11.718,11.718,0,0,1-1.36-.674.27.27,0,0,0-.338.047c-.562.562-.95,1.071-1.823,1.071a1.809,1.809,0,0,1-1.283-.528l-1.394-1.394a1.82,1.82,0,0,1,0-2.564l.543-.54a.266.266,0,0,0,.047-.338A11.511,11.511,0,0,1,28.9,63.939a.268.268,0,0,0-.273-.2c-.8,0-1.428.084-2.046-.535a1.8,1.8,0,0,1-.531-1.279V59.948a1.815,1.815,0,0,1,1.813-1.813h.764a.267.267,0,0,0,.273-.2,11.475,11.475,0,0,1,1.158-2.794.266.266,0,0,0-.047-.338c-.562-.562-1.071-.95-1.071-1.823a1.813,1.813,0,0,1,.531-1.283h0L30.861,50.3a1.814,1.814,0,0,1,2.564,0l.54.543a.271.271,0,0,0,.338.047A11.52,11.52,0,0,1,37.1,49.727a.262.262,0,0,0,.2-.271h0v-.763h0a1.818,1.818,0,0,1,1.815-1.816Zm1.755,0h.217A1.815,1.815,0,0,1,42.9,48.689v.764a.263.263,0,0,0,.2.271A11.431,11.431,0,0,1,45.9,50.885a.269.269,0,0,0,.338-.047c.562-.562.95-1.075,1.823-1.075a1.807,1.807,0,0,1,1.283.531l1.394,1.394a1.814,1.814,0,0,1,0,2.564l-.543.54a.265.265,0,0,0-.044.338,11.353,11.353,0,0,1,.667,1.361h0a11.76,11.76,0,0,1,.487,1.435.262.262,0,0,0,.271.2c.8,0,1.428-.087,2.046.531a1.808,1.808,0,0,1,.531,1.283v1.972a1.817,1.817,0,0,1-.049.432H68.527a1.3,1.3,0,0,0,1.295-1.295V46.488L65.211,51.1a.764.764,0,0,1-.487.22l-4.14.655a.764.764,0,0,1-.87-.888l.667-4.2a.759.759,0,0,1,.211-.4l0,0,9.231-9.231V26.988a1.3,1.3,0,0,0-1.295-1.295H42.165a1.3,1.3,0,0,0-1.291,1.295Zm.217,1.534H39.118a.28.28,0,0,0-.279.279h0v.764h0A1.806,1.806,0,0,1,37.495,51.2a9.963,9.963,0,0,0-2.422,1,1.808,1.808,0,0,1-2.189-.286l-.54-.543a.29.29,0,0,0-.4,0l-1.391,1.394h0a.283.283,0,0,0,0,.394l.54.543a1.8,1.8,0,0,1,.286,2.189,10,10,0,0,0-1,2.422,1.805,1.805,0,0,1-1.752,1.344h-.764a.282.282,0,0,0-.279.279v1.972a.282.282,0,0,0,.279.279,2.66,2.66,0,0,1,1.869.372,1.8,1.8,0,0,1,.646.972,9.909,9.909,0,0,0,1,2.422A1.808,1.808,0,0,1,31.1,68.15l-.54.54a.284.284,0,0,0,0,.4l1.391,1.391a.284.284,0,0,0,.4,0c.509-.509.848-.96,1.586-1.056a1.782,1.782,0,0,1,1.143.23,9.745,9.745,0,0,0,1.18.581v0a10.333,10.333,0,0,0,1.242.42,1.8,1.8,0,0,1,1.344,1.752v.764a.28.28,0,0,0,.279.279H41.09a.28.28,0,0,0,.279-.279,2.677,2.677,0,0,1,.372-1.869,1.822,1.822,0,0,1,.972-.646,9.909,9.909,0,0,0,2.422-1,1.807,1.807,0,0,1,2.189.286l.543.54a.28.28,0,0,0,.394,0l1.394-1.391a.287.287,0,0,0,0-.4c-.513-.509-.963-.848-1.059-1.587a1.826,1.826,0,0,1,.23-1.143,9.742,9.742,0,0,0,.581-1.18h0a10.333,10.333,0,0,0,.42-1.242,1.8,1.8,0,0,1,1.752-1.344v0h.763v0a.283.283,0,0,0,.283-.279V59.944a.282.282,0,0,0-.279-.279,2.672,2.672,0,0,1-1.869-.372,1.808,1.808,0,0,1-.648-.972,9.627,9.627,0,0,0-.422-1.242l0,0a10.127,10.127,0,0,0-.584-1.176,1.807,1.807,0,0,1,.286-2.189l.543-.543a.286.286,0,0,0,0-.394l-1.394-1.394a.286.286,0,0,0-.394,0c-.513.513-.851.963-1.589,1.059a1.825,1.825,0,0,1-1.143-.23,9.87,9.87,0,0,0-2.422-1,1.808,1.808,0,0,1-1.344-1.752v-.763a.283.283,0,0,0-.282-.278Zm12.12,5.064a.767.767,0,1,1,0-1.534h5.661a.767.767,0,1,1,0,1.534ZM72.843,41.3,70.39,38.844l-7.872,7.875a5.516,5.516,0,0,1,2.453,2.453Zm-1.369-3.537,2.453,2.453L75.14,39a.088.088,0,0,0,0-.118L72.8,36.547a.081.081,0,0,0-.118,0ZM63.649,49.944a4.073,4.073,0,0,0-1.9-1.9l-.36,2.261ZM52.24,40.836a.767.767,0,0,1,0-1.534h2.124a.767.767,0,1,1,0,1.534Zm4.72,1.577a.767.767,0,1,1,0,1.534H52.24a.767.767,0,0,1,0-1.534Zm4.2,0a.767.767,0,0,1,0,1.534H59.389a.767.767,0,0,1,0-1.534Zm-4.226-1.577a.767.767,0,0,1,0-1.534h4.226a.767.767,0,0,1,0,1.534ZM52.24,31.683a.767.767,0,1,1,0-1.534h2.043a.767.767,0,1,1,0,1.534Zm4.832,1.574a.767.767,0,0,1,0,1.534H52.24a.767.767,0,1,1,0-1.534Zm4.089,0a.767.767,0,0,1,0,1.534H59.389a.767.767,0,0,1,0-1.534Zm-4.505-1.574a.767.767,0,1,1,0-1.534h4.505a.767.767,0,1,1,0,1.534ZM44.527,41.97a.764.764,0,1,1,.922-1.217l1.155.879,1.351-1.792H44.16v3.794H48V42.317l-.64.848a.769.769,0,0,1-1.071.149Zm4.539-3.6.335-.444a.765.765,0,1,1,1.22.922l-1.083,1.44V44.4a.768.768,0,0,1-.767.767H43.394a.769.769,0,0,1-.767-.767V39.073a.767.767,0,0,1,.767-.767h5.378A.794.794,0,0,1,49.067,38.365Zm-4.632-5.136a.774.774,0,0,1-.273-.479v2.1h3.844V33.038l-.879,1.3a.769.769,0,0,1-1.117.164Zm-.274-.711a.768.768,0,0,1,1.239-.475l.926.748L47.5,31.052H44.16Zm4.375-3,.6-.892a.766.766,0,1,1,1.27.857l-.87,1.286v4.844a.767.767,0,0,1-.767.767H43.393a.767.767,0,0,1-.767-.767V30.286a.769.769,0,0,1,.767-.767Z"/></g></g></svg>