<svg xmlns="http://www.w3.org/2000/svg" width="90.914" height="90.914" viewBox="0 0 90.914 90.914"><g transform="translate(-350 8393.602)"><g transform="translate(350 -8393.602)"><rect width="90.914" height="90.914" rx="45.457" transform="translate(0 0)" fill="#98b7ca" opacity="0.859"/><rect width="90.914" height="90.914" rx="45.457" transform="translate(0 0)" fill="none"/></g><g transform="translate(366.001 -8381.726)"><g transform="translate(1.08 9.841)"><g transform="translate(4.537 0)"><path d="M69.719,92.5a23.74,23.74,0,1,0-23.74-23.74A23.785,23.785,0,0,0,69.719,92.5Z" transform="translate(-45.979 -45.023)" fill="#60e3f7" fill-rule="evenodd"/></g><g transform="translate(4.537 0.035)"><path d="M65.691,61.113a4.28,4.28,0,0,0-.1-1.948l-1.351-4.836a15.016,15.016,0,0,0,4.2-9A23.758,23.758,0,0,0,46.752,75.067c2.491,1.4,4.783,1.007,6.828-1.585,1.351-2.017,2.6-1.894,3.776.136.988,2.488,3.151,1.919,5.935-.272l1.351,4.587c-1.26,2.1-.723,3.968,2.156,5.531,3.839,2.576,5.117,5.663,3.64,9.3a23.637,23.637,0,0,0,7.589-1.484l.736-8.034c2.835-3.539,1.61-7.261-2.927-7.741l-6.071-3.1A10.442,10.442,0,0,0,64.911,65.8Z" transform="translate(-45.979 -45.332)" fill="#0eb57d" fill-rule="evenodd"/></g><g transform="translate(31.689 0.477)"><path d="M287.283,59.8l3.959,3.959c-.919,2.241-.663,3.485,1.878,2.788,2.788,3.081,4.7,3.4,5.84,1.3,1.815,3.634,4.448,2.778,8.082-.508a23.764,23.764,0,0,0-18.414-18.08Z" transform="translate(-287.283 -49.26)" fill="#0eb57d" fill-rule="evenodd"/></g><g transform="translate(43.766 26.048)"><path d="M398.746,276.661c-2.582-.578-3.214.533-2.6,2.724-2.469,4.473-1.768,7.873.606,10.7A23.656,23.656,0,0,0,402.692,277Z" transform="translate(-394.606 -276.509)" fill="#0eb57d" fill-rule="evenodd"/></g><g transform="translate(0 20.441)"><path d="M18.8,252.959A13.139,13.139,0,1,0,5.663,239.82,13.166,13.166,0,0,0,18.8,252.959Z" transform="translate(-5.663 -226.681)" fill="#ffd54f" fill-rule="evenodd"/></g><g transform="translate(7.195 28.712)"><path d="M69.6,300.187H82.715L81.1,307.246H71.779Z" transform="translate(-69.601 -300.187)" fill="#31a7fb" fill-rule="evenodd"/></g><g transform="translate(9.998 38.811)"><path d="M95.752,392.408a1.236,1.236,0,1,0-1.238-1.234A1.238,1.238,0,0,0,95.752,392.408Z" transform="translate(-94.514 -389.936)" fill="#407093" fill-rule="evenodd"/></g><g transform="translate(15.033 38.811)"><path d="M140.5,392.408a1.236,1.236,0,1,0-1.234-1.234A1.239,1.239,0,0,0,140.5,392.408Z" transform="translate(-139.262 -389.936)" fill="#407093" fill-rule="evenodd"/></g></g><path d="M58,33.581a28.2,28.2,0,0,1-40.023,25.6.786.786,0,1,1,.66-1.427A26.387,26.387,0,0,0,29.8,60.209,26.628,26.628,0,1,0,3.17,33.581a.786.786,0,0,1-1.573,0A28.2,28.2,0,0,1,49.739,13.64,28.016,28.016,0,0,1,58,33.581ZM20.167,56.357A14.03,14.03,0,0,1,5.077,33.141,24.722,24.722,0,0,1,28.44,8.894h.025c.443-.023.887-.036,1.334-.036a24.725,24.725,0,1,1-9.631,47.5ZM22,55.384a23.035,23.035,0,0,0,7.8,1.348l.174,0c.939-2.782.051-5.191-2.7-7.332A14.127,14.127,0,0,1,22,55.384Zm25.667-16.2c-1.931,3.5-1.952,6.433-.047,9.159A23.064,23.064,0,0,0,52.68,37.119l-3.157-.275a.8.8,0,0,1-.1-.016c-1.29-.288-1.652-.034-1.733.051s-.311.456.044,1.715A.786.786,0,0,1,47.664,39.188Zm-12.4-28.105-1.2,9.389,3.719,3.719a.786.786,0,0,1,.171.854c-.616,1.5-.391,1.856-.389,1.859s.257.194,1.347-.1a.787.787,0,0,1,.791.231c2,2.216,3.086,2.453,3.553,2.4.146-.017.592-.071,1.062-.937a.786.786,0,0,1,1.394.024c.576,1.153,1.214,1.781,1.95,1.919,1.067.2,2.582-.57,4.621-2.354a23.232,23.232,0,0,0-17.022-17ZM29.8,10.429q-.309,0-.617.009a15.907,15.907,0,0,1-4.033,8.539l1.24,4.439a5.11,5.11,0,0,1,.123,2.306l-.7,4.215a11.247,11.247,0,0,1,4.712,6.5l5.676,2.9c2.328.283,3.993,1.363,4.7,3.053.727,1.744.283,3.854-1.215,5.82l-.6,6.579a23.253,23.253,0,0,0,7.468-5.239c-2.421-3.234-2.555-6.791-.41-10.844a3,3,0,0,1,.41-2.909c.636-.672,1.672-.841,3.166-.516l3.154.275c.055-.652.085-1.31.085-1.976a23.208,23.208,0,0,0-.3-3.744c-1.842,1.5-3.319,2.2-4.623,2.2a3.485,3.485,0,0,1-.647-.06,3.852,3.852,0,0,1-2.44-1.706,2.568,2.568,0,0,1-1.488.715c-1.307.156-2.809-.681-4.585-2.556a2.558,2.558,0,0,1-2.471-.486c-.692-.782-.439-2-.08-3.006l-3.63-3.63a.786.786,0,0,1-.224-.655l1.262-9.893a23.212,23.212,0,0,0-3.923-.334ZM6.711,31.856A14.033,14.033,0,0,1,27.869,47.882a9.977,9.977,0,0,1,3.576,4.279,7.081,7.081,0,0,1,.192,4.5,22.988,22.988,0,0,0,5.8-1.224l.7-7.6a.787.787,0,0,1,.169-.42c1.247-1.556,1.662-3.168,1.139-4.421-.488-1.17-1.752-1.92-3.559-2.111a.786.786,0,0,1-.275-.082l-6.121-3.129a.786.786,0,0,1-.408-.521,9.688,9.688,0,0,0-4.55-6.177.786.786,0,0,1-.356-.794l.786-4.721a3.549,3.549,0,0,0-.086-1.622l-1.363-4.878a.786.786,0,0,1,.206-.772,13.872,13.872,0,0,0,3.848-7.651A23.28,23.28,0,0,0,6.711,31.856Zm7.823,24.11A12.463,12.463,0,1,0,2.072,43.5,12.477,12.477,0,0,0,14.534,55.966ZM22.378,38.1a.786.786,0,0,1,.152.665L20.9,45.888l0,.008a.78.78,0,0,1-.1.23l-.01.017a.784.784,0,0,1-.068.089l-.016.018a.789.789,0,0,1-.082.077l-.013.01a.789.789,0,0,1-.1.065h0a.779.779,0,0,1-.109.049l-.017.006a.787.787,0,0,1-.11.029l-.023,0a.773.773,0,0,1-.113.01H10.735a.746.746,0,0,0,0,1.493h9.4a.786.786,0,1,1,0,1.572h-.465a2.033,2.033,0,1,1-3.956,0H14.591a2.033,2.033,0,1,1-3.954-.005,2.316,2.316,0,0,1-.9-4.405L7.8,38.852c-.006-.016-.011-.033-.015-.05L7.45,37.725H6.1a.786.786,0,1,1,0-1.572H8.031a.786.786,0,0,1,.751.555l.339,1.1H21.763a.787.787,0,0,1,.615.3Zm-9.764,11.46a.46.46,0,1,0,.458.462A.462.462,0,0,0,12.615,49.564Zm5.074,0a.46.46,0,1,0,.461.462A.461.461,0,0,0,17.689,49.564ZM9.607,39.381l1.71,5.545h8.19l1.27-5.545Z" transform="translate(0)"/></g></g></svg>