<svg xmlns="http://www.w3.org/2000/svg" width="90.913" height="90.914" viewBox="0 0 90.913 90.914"><g transform="translate(-10506 8991)"><g transform="translate(10506 -8991)"><rect width="90.914" height="90.914" rx="45.457" transform="translate(0 0)" fill="#98b7ca" opacity="0.859"/><rect width="90.914" height="90.914" rx="45.457" transform="translate(0 0)" fill="none"/></g><g transform="translate(10518 -8979)"><path d="M49.156,35.828V59.82a1.333,1.333,0,0,1-1.333,1.333H19.832A1.333,1.333,0,0,1,18.5,59.82V19.833A1.333,1.333,0,0,1,19.832,18.5H47.823a1.333,1.333,0,0,1,1.333,1.333V35.828" transform="translate(-6.826 -6.827)" fill="#eaf6ff"/><path d="M21.166,61.153H19.833A1.337,1.337,0,0,1,18.5,59.82V19.833A1.337,1.337,0,0,1,19.833,18.5h1.333a1.337,1.337,0,0,0-1.333,1.333V59.82a1.337,1.337,0,0,0,1.333,1.333Z" transform="translate(-6.827 -6.827)" fill="#c6e7ff"/><circle cx="11.33" cy="11.33" r="11.33" transform="translate(14.339 14.339)" fill="#f82f40"/><path d="M95.2,86.538a8.614,8.614,0,0,1-2.886,6.451l0,0a.007.007,0,0,0,0,0A8.661,8.661,0,1,1,95.2,86.538Z" transform="translate(-60.87 -60.87)" fill="#fbabb2"/><path d="M119.548,113.557a6,6,0,1,1-3.93-5.631,6,6,0,0,1,3.93,5.631Z" transform="translate(-87.881 -87.889)" fill="#f82f40"/><path d="M156.092,131.828v-1.333H154.76v-.666h-1.333v.666h-.666a.666.666,0,0,0-.666.666v2.666a.666.666,0,0,0,.667.666h2v1.333h-2.666v1.333h1.333v.666h1.333v-.666h.666a.666.666,0,0,0,.666-.666v-2.666a.666.666,0,0,0-.666-.666h-2v-1.333Z" transform="translate(-128.424 -108.158)" fill="#1ec480"/><path d="M152.094,196.625h.666v1.333h-.666Z" transform="translate(-128.424 -168.957)" fill="#19a56c"/><path d="M152.761,137.25h.666a.668.668,0,0,0-.666.666v2.666a.668.668,0,0,0,.666.666h-.666a.668.668,0,0,1-.666-.666v-2.666A.668.668,0,0,1,152.761,137.25Z" transform="translate(-128.425 -114.913)" fill="#19a56c"/><path d="M166.938,129.828h.666v.666h-.666Z" transform="translate(-141.935 -108.158)" fill="#19a56c"/><path d="M166.938,211.469h.666v.666h-.666Z" transform="translate(-141.935 -182.468)" fill="#19a56c"/><path d="M181.781,181.781h.666v1.333h-.666Z" transform="translate(-155.446 -155.446)" fill="#19a56c"/><path d="M67.5,101.413c-.1.12-.2.233-.313.347a11.324,11.324,0,0,1-16-16c.113-.113.227-.213.347-.313A11.331,11.331,0,0,0,67.5,101.413Z" transform="translate(-33.845 -67.76)" fill="#f70c20"/><path d="M92.623,118.681c-.1.127-.2.247-.307.367l0,0a.007.007,0,0,0,0,0A8.661,8.661,0,0,1,80.08,106.825l0,0a.007.007,0,0,0,0,0c1.328-1.181-1.546,1.053-1.546,5.112a8.668,8.668,0,0,0,14.082,6.751Z" transform="translate(-60.869 -86.927)" fill="#f98993"/><path d="M117.735,136.121c-.1.133-.2.267-.307.387a6,6,0,0,1-8.451-8.451c.12-.107.253-.207.387-.307a5.992,5.992,0,0,0,8.371,8.371Z" transform="translate(-87.881 -106.267)" fill="#f70c20"/><path d="M434.125,132.494h3.332l1.333-2.666h-3.332Z" transform="translate(-385.13 -108.158)" fill="#4baefc"/><path d="M397.016,132.494h3.332l1.333-2.666h-3.332Z" transform="translate(-351.353 -108.158)" fill="#64b9fc"/><path d="M437.79,152.094l-.333.666h-3.332l.333-.666Z" transform="translate(-385.13 -128.425)" fill="#289efb"/><path d="M400.681,152.094l-.333.666h-3.332l.333-.666Z" transform="translate(-351.353 -128.425)" fill="#41a9fb"/><path d="M434.125,189.2h3.332l1.333,2.666h-3.332Z" transform="translate(-385.13 -162.201)" fill="#4baefc"/><path d="M397.016,189.2h3.332l1.333,2.666h-3.332Z" transform="translate(-351.353 -162.201)" fill="#64b9fc"/><path d="M437.79,189.869h-3.332l-.333-.666h3.332Z" transform="translate(-385.13 -162.201)" fill="#289efb"/><path d="M399.917,189.87a1.382,1.382,0,0,0-1.236,2h-.333l-1.333-2.666h3.332l.333.666Z" transform="translate(-351.353 -162.201)" fill="#41a9fb"/><path d="M211.469,160.848c2.2,1.1,2.492,1.333,3.3,1.333h20.7a1.333,1.333,0,1,0,0-2.666h-20.7a2.666,2.666,0,0,0-1.192.281Z" transform="translate(-182.468 -135.179)" fill="#fcc16d"/><path d="M236.674,169.839a1.334,1.334,0,0,1-1.213.786h-20.7a2.611,2.611,0,0,1-1.186-.28l-2.106-1.053,1-.5c1.928.964,2.171,1.166,2.959,1.166C236.672,169.959,236.286,170.026,236.674,169.839Z" transform="translate(-182.468 -143.624)" fill="#faa327"/><path d="M52.853,322.8v4.665H48.188a4.662,4.662,0,0,1,4.665-4.665Z" transform="translate(-33.849 -283.799)" fill="#f82f40"/><path d="M56.185,378.016a4.671,4.671,0,0,1-8-3.266h4.665Z" transform="translate(-33.848 -331.087)" fill="#fee265"/><path d="M103.473,330.728l-3.332-3.266V322.8A4.669,4.669,0,0,1,103.473,330.728Z" transform="translate(-81.136 -283.799)" fill="#23f1a8"/><path d="M49.574,329.558H48.188a4.666,4.666,0,0,1,3.292-4.458A4.618,4.618,0,0,0,49.574,329.558Z" transform="translate(-33.848 -285.895)" fill="#d80719"/><path d="M55.572,378.542a4.671,4.671,0,0,1-7.384-3.792h1.386a4.662,4.662,0,0,0,6,3.792Z" transform="translate(-33.848 -331.087)" fill="#fed41e"/><path d="M103.473,330.728l-3.332-3.266V322.8A4.669,4.669,0,0,1,103.473,330.728Z" transform="translate(-81.136 -283.799)" fill="#23f1a8"/><path d="M174.359,426.7h1.333v1.333h-1.333Z" transform="translate(-148.69 -378.375)" fill="#b3d5f2"/><path d="M204.047,426.7h12v1.333h-12Z" transform="translate(-175.712 -378.375)" fill="#b3d5f2"/><path d="M174.359,456.391h1.333v1.333h-1.333Z" transform="translate(-148.69 -405.397)" fill="#b3d5f2"/><path d="M204.047,456.391h12v1.333h-12Z" transform="translate(-175.712 -405.397)" fill="#b3d5f2"/><path d="M204.047,426.7h1.333v1.333h-1.333Z" transform="translate(-175.712 -378.375)" fill="#95c4ed"/><path d="M204.047,456.391h1.333v1.333h-1.333Z" transform="translate(-175.712 -405.397)" fill="#95c4ed"/><path d="M70.453,456.391h8v1.333h-8Z" transform="translate(-54.114 -405.397)" fill="#b3d5f2"/><path d="M40.766,456.391H42.1v1.333H40.766Z" transform="translate(-27.093 -405.397)" fill="#b3d5f2"/><path d="M174.359,426.7h.666v1.333h-.666Z" transform="translate(-148.69 -378.375)" fill="#95c4ed"/><path d="M174.359,456.391h.666v1.333h-.666Z" transform="translate(-148.69 -405.397)" fill="#95c4ed"/><path d="M70.453,456.391h1.333v1.333H70.453Z" transform="translate(-54.114 -405.397)" fill="#95c4ed"/><path d="M40.766,456.391h.666v1.333h-.666Z" transform="translate(-27.093 -405.397)" fill="#95c4ed"/><path d="M189.2,359.906h2.666v4H189.2Z" transform="translate(-162.201 -317.576)" fill="#f82f40"/><path d="M241.156,337.641h2.666v6h-2.666Z" transform="translate(-209.489 -297.31)" fill="#fee265"/><path d="M293.109,300.531h2.666v9.33h-2.666Z" transform="translate(-256.777 -263.533)" fill="#23f1a8"/><path d="M189.2,359.906h1.333v4H189.2Z" transform="translate(-162.201 -317.576)" fill="#d80719"/><path d="M241.156,337.641h1.333v6h-1.333Z" transform="translate(-209.489 -297.31)" fill="#fed41e"/><path d="M293.109,300.531h1.333v9.33h-1.333Z" transform="translate(-256.777 -263.533)" fill="#0cc081"/><path d="M174.359,397.016h14.662v1.333H174.359Z" transform="translate(-148.69 -351.354)" fill="#64b9fc"/><path d="M174.359,397.016h1.333v1.333h-1.333Z" transform="translate(-148.69 -351.354)" fill="#41a9fb"/><g transform="translate(11 11)"><path d="M156.061,131.788v-1.333h-1.333v-.667h-1.333v.667h-.667a.666.666,0,0,0-.667.667v2.667a.666.666,0,0,0,.667.667h2v1.333h-2.667v1.333h1.333v.667h1.333v-.667h.667a.667.667,0,0,0,.667-.667v-2.667a.667.667,0,0,0-.667-.667h-2v-1.333Z" transform="translate(-139.394 -119.122)" fill="#020a21"/><path d="M41.667,53.666H12.333V12.333H41.667v10H43V11.666A.666.666,0,0,0,42.333,11H11.667a.666.666,0,0,0-.667.667V54.333a.666.666,0,0,0,.667.667H42.333A.666.666,0,0,0,43,54.333V29H41.667Z" transform="translate(-11 -11)" fill="#020a21"/><path d="M64.365,49.874a12,12,0,1,0,0,5.646l-1.3-.312a10.667,10.667,0,1,1,0-5.021Z" transform="translate(-38.03 -38.03)" fill="#020a21"/><path d="M88.545,76.848a9.333,9.333,0,1,0,0,5.742l-1.27-.409a8,8,0,1,1,0-4.924Z" transform="translate(-65.003 -65.053)" fill="#020a21"/><path d="M111.514,104.381l1.194-.593a6.667,6.667,0,1,0,0,5.926l-1.194-.593a5.333,5.333,0,1,1,0-4.74Z" transform="translate(-92.072 -92.084)" fill="#020a21"/><path d="M230.7,127.03a2,2,0,0,0-1.608-1.96l.871-1.741a.667.667,0,0,0-.6-.965H222.7a.667.667,0,0,0-.6.368l-1.149,2.3H208a3.351,3.351,0,0,0-1.491.352l-2.1,1.052a.667.667,0,0,0,0,1.193l2.1,1.052a3.351,3.351,0,0,0,1.491.352h12.958l1.149,2.3a.667.667,0,0,0,.6.368h6.667a.667.667,0,0,0,.6-.965l-.871-1.741a2,2,0,0,0,1.608-1.96Zm-4.255-3.333h1.842l-.667,1.333h-1.842Zm-3.333,0h1.842l-.667,1.333h-1.842Zm0,6.667-.667-1.333h1.842l.667,1.333Zm3.333,0-.667-1.333h1.842l.667,1.333ZM228.7,127.7H208a2.008,2.008,0,0,1-.895-.211l-.911-.455.911-.455a2.008,2.008,0,0,1,.895-.211h20.7a.667.667,0,0,1,0,1.333Z" transform="translate(-186.703 -112.363)" fill="#020a21"/><path d="M46.03,315.394a5.333,5.333,0,1,0,5.333,5.333A5.333,5.333,0,0,0,46.03,315.394Zm-.667,1.394v3.273H42.09A4,4,0,0,1,45.364,316.788Zm-3.273,4.606h3.667l2.619,2.565A4,4,0,0,1,42.09,321.394Zm7.221,1.614L46.7,320.447v-3.66A4,4,0,0,1,49.312,323.008Z" transform="translate(-38.03 -288.061)" fill="#020a21"/><path d="M174.333,426.758h1.333v1.333h-1.333Z" transform="translate(-159.666 -389.425)" fill="#020a21"/><path d="M204.03,426.758h12v1.333h-12Z" transform="translate(-186.697 -389.425)" fill="#020a21"/><path d="M174.333,456.455h1.333v1.333h-1.333Z" transform="translate(-159.666 -416.455)" fill="#020a21"/><path d="M204.03,456.455h12v1.333h-12Z" transform="translate(-186.697 -416.455)" fill="#020a21"/><path d="M70.394,456.455h8v1.333h-8Z" transform="translate(-65.061 -416.455)" fill="#020a21"/><path d="M40.7,456.455H42.03v1.333H40.7Z" transform="translate(-38.03 -416.455)" fill="#020a21"/><path d="M187.666,293.121H185a.666.666,0,0,0-.667.667v8.667h-.667v-5.333a.666.666,0,0,0-.667-.667h-2.667a.666.666,0,0,0-.667.667v5.333H179v-3.333a.667.667,0,0,0-.667-.667h-2.667a.666.666,0,0,0-.667.667v3.333h-.667v1.333H189v-1.333h-.667v-8.667a.667.667,0,0,0-.667-.667Zm-10,9.333h-1.333v-2.667h1.333Zm4.667,0H181v-4.667h1.333Zm4.667,0h-1.333v-8H187Z" transform="translate(-159.666 -267.788)" fill="#020a21"/></g></g></g></svg>