<svg xmlns="http://www.w3.org/2000/svg" width="54.023" height="54.027" viewBox="0 0 54.023 54.027"><g transform="translate(-5 -5)"><g transform="translate(5.416 5.416)"><path d="M59.192,32.6A26.584,26.584,0,0,1,32.982,59.183c-.129,0-.258.008-.386.008s-.258,0-.386-.008a26.59,26.59,0,0,1,0-53.175C32.338,6,32.467,6,32.6,6s.258,0,.386.008A26.584,26.584,0,0,1,59.192,32.6Z" transform="translate(-6 -6)" fill="#70d8fb"/></g><g transform="translate(13.016 13.203)"><circle cx="9.084" cy="9.084" r="9.084" transform="translate(0 0)" fill="#bfeefd"/></g><g transform="translate(5.416 5.416)"><g transform="translate(0 0)"><path d="M13.472,49.617a28.015,28.015,0,0,1,0-34.043A24.231,24.231,0,0,1,32.234,6.008C32.355,6,32.475,6,32.6,6c-.129,0-.258,0-.386.008a26.59,26.59,0,0,0,0,53.175c.129,0,.258.008.386.008-.121,0-.241,0-.362-.008a24.237,24.237,0,0,1-18.762-9.566Z" transform="translate(-6 -6)" fill="#bfeefd"/></g><g transform="translate(26.596 0)"><path d="M90.437,15.574A26.508,26.508,0,0,0,70.386,6.008C70.258,6,70.129,6,70,6c.121,0,.241,0,.362.008a24.237,24.237,0,0,1,18.762,9.566,28.015,28.015,0,0,1,0,34.043,24.231,24.231,0,0,1-18.763,9.566c-.121,0-.241.008-.362.008.129,0,.258,0,.386-.008A26.593,26.593,0,0,0,90.437,15.574Z" transform="translate(-70 -6)" fill="#62bddc"/></g></g><g transform="translate(16.636 5.004)"><path d="M48.376,59.033c-.129,0-.253,0-.382-.008-5.386-.245-10.2-5.24-12.9-13.369A43.864,43.864,0,0,1,33,32.021a43.844,43.844,0,0,1,2.09-13.635c2.7-8.128,7.517-13.123,12.878-13.364a6.725,6.725,0,0,1,.819,0c5.357.241,10.169,5.24,12.87,13.364a43.871,43.871,0,0,1,2.09,13.639,43.825,43.825,0,0,1-2.09,13.634c-2.7,8.128-7.517,13.123-12.878,13.364C48.629,59.029,48.5,59.033,48.376,59.033ZM48.351,5.841c-.112,0-.224,0-.337.008-5.016.229-9.55,5.012-12.138,12.8a43.006,43.006,0,0,0-2.045,13.373A42.949,42.949,0,0,0,35.88,45.4C38.469,53.186,43,57.969,48.01,58.2c.262.008.486.008.723,0,5.016-.229,9.554-5.012,12.138-12.8A43.045,43.045,0,0,0,62.92,32.026a42.968,42.968,0,0,0-2.049-13.377c-2.589-7.792-7.123-12.575-12.126-12.8a3.687,3.687,0,0,0-.37,0h-.025Z" transform="translate(-33 -5.01)" fill="#231f20"/></g><g transform="translate(11.159 43.231)"><path d="M40.673,112.8c-.129,0-.253,0-.382-.008a26.97,26.97,0,0,1-20.375-9.716.417.417,0,0,1-.091-.324A.425.425,0,0,1,20,102.46a29.487,29.487,0,0,1,7.655-3.57A44.26,44.26,0,0,1,40.673,97a44.123,44.123,0,0,1,13.015,1.891,29.219,29.219,0,0,1,7.655,3.57.425.425,0,0,1,.179.287.417.417,0,0,1-.091.324,26.95,26.95,0,0,1-20.362,9.716C40.926,112.791,40.8,112.8,40.673,112.8Zm-19.818-9.9a26.13,26.13,0,0,0,19.436,9.063c.287.008.5.008.736,0a26.134,26.134,0,0,0,19.461-9.063,28.937,28.937,0,0,0-7.052-3.208,43.418,43.418,0,0,0-12.766-1.849A43.418,43.418,0,0,0,27.9,99.684a28.893,28.893,0,0,0-7.048,3.208Z" transform="translate(-19.82 -97)" fill="#231f20"/></g><g transform="translate(11.159 5.004)"><path d="M40.673,20.8A44.123,44.123,0,0,1,27.657,18.91,29.218,29.218,0,0,1,20,15.341a.425.425,0,0,1-.179-.287.417.417,0,0,1,.091-.324,27.02,27.02,0,0,1,41.514,0,.417.417,0,0,1,.091.324.425.425,0,0,1-.179.287,29.487,29.487,0,0,1-7.655,3.57A44.4,44.4,0,0,1,40.673,20.8ZM20.855,14.909a28.937,28.937,0,0,0,7.052,3.208,43.438,43.438,0,0,0,12.766,1.849,43.438,43.438,0,0,0,12.766-1.849,29.081,29.081,0,0,0,7.052-3.208,26.191,26.191,0,0,0-39.636,0Z" transform="translate(-19.82 -5.01)" fill="#231f20"/></g><g transform="translate(31.596 5.004)"><path d="M69.416,59.033A.417.417,0,0,1,69,58.617V5.426a.416.416,0,0,1,.831,0V58.617A.417.417,0,0,1,69.416,59.033Z" transform="translate(-69 -5.01)" fill="#231f20"/></g><g transform="translate(5 31.6)"><path d="M58.607,69.841H5.416a.416.416,0,0,1,0-.831H58.607a.416.416,0,0,1,0,.831Z" transform="translate(-5 -69.01)" fill="#231f20"/></g><g transform="translate(5 5)"><path d="M32.011,59.027c-.129,0-.253,0-.382-.008a27.006,27.006,0,0,1-.012-54.006,6.511,6.511,0,0,1,.806,0,27.006,27.006,0,0,1-.017,54.006C32.265,59.023,32.14,59.027,32.011,59.027ZM31.986,5.835c-.112,0-.224,0-.337.008a26.174,26.174,0,0,0-.017,52.344c.287.008.5.008.736,0A26.174,26.174,0,0,0,32.39,5.844c-.137-.012-.258-.008-.378-.008h-.025Z" transform="translate(-5 -5)" fill="#231f20"/></g><g transform="translate(16.636 9.571)"><path d="M53.5,39.429,68.14,25.761l3.9,2.93L74.971,16,62.284,18.93l2.926,2.93L53.5,34.546l-8.785-8.785L33,38.453l10.738-8.785Z" transform="translate(-33 -16)" fill="#f05262"/></g><g transform="translate(18.988 10.589)"><path d="M48.043,28.394l8.785,8.785L69.669,23.266l-2.431-2.431,6.636-2.385-8.282,1.912,2.926,2.93L56.807,35.978l-8.785-8.785L38.66,37.333Z" transform="translate(-38.66 -18.45)" fill="#f58c96"/></g><g transform="translate(16.636 13.245)"><path d="M71.522,32.428l-3.441-2.581L53.516,43.44l-9.724-9.728-9.737,8.764L33,43.619l10.738-8.785L53.5,44.6,68.14,30.928l3.9,2.93,2.082-9.018Z" transform="translate(-33 -24.84)" fill="#d24856"/></g><g transform="translate(16.22 9.157)"><path d="M52.914,39.262a.426.426,0,0,1-.3-.121l-9.5-9.5L32.677,38.19a.416.416,0,0,1-.569-.6L43.822,24.9a.417.417,0,0,1,.6-.012L52.9,33.365,64.047,21.289,61.4,18.642a.416.416,0,0,1,.2-.7l12.687-2.93a.4.4,0,0,1,.386.112.428.428,0,0,1,.112.386L71.86,28.2a.414.414,0,0,1-.652.237l-3.628-2.718L53.2,39.15A.414.414,0,0,1,52.914,39.262ZM43.153,28.669a.426.426,0,0,1,.3.121l9.479,9.479L67.276,24.88a.415.415,0,0,1,.532-.029l3.4,2.543,2.635-11.42-11.312,2.61,2.4,2.4a.419.419,0,0,1,.012.578L53.218,34.246a.4.4,0,0,1-.3.133.424.424,0,0,1-.3-.121l-8.477-8.477-7.393,8,6.138-5.024a.422.422,0,0,1,.266-.091Z" transform="translate(-31.999 -15.003)" fill="#231f20"/></g></g></svg>