<svg xmlns="http://www.w3.org/2000/svg" width="295" height="229.625" viewBox="0 0 295 229.625"><g transform="translate(-6187.874 10214.68)"><g transform="translate(6187.874 -10214.68)"><path d="M176.081,195.173q43.72,25.24,87.532,50.536l87.562,50.553c4.918,2.84,4.918,7.48.031,10.3q-23.692,13.678-47.356,27.34t-47.325,27.34c-4.889,2.822-12.954,2.8-17.873-.035l-87.562-50.553-87.5-50.517c-4.949-2.857-4.949-7.5-.061-10.318q23.647-13.653,47.325-27.341,23.642-13.662,47.356-27.34C163.1,192.315,171.132,192.316,176.081,195.173Z" transform="translate(-59.868 -133.723)" fill="#170733" fill-rule="evenodd"/><path d="M59.87,259.238l295,46.414v11.437l-295-46.415Z" transform="translate(-59.869 -149.407)" fill="#170733" fill-rule="evenodd"/><g transform="translate(0 47.865)"><path d="M176.081,180.186l87.532,50.536,87.562,50.553c4.918,2.84,4.918,7.479.031,10.3q-23.692,13.678-47.356,27.34t-47.325,27.34c-4.889,2.822-12.954,2.8-17.873-.035l-87.562-50.553-87.5-50.518c-4.949-2.857-4.949-7.5-.061-10.318q23.647-13.652,47.325-27.341,23.642-13.661,47.356-27.34C163.1,177.328,171.132,177.329,176.081,180.186Z" transform="translate(-59.868 -178.039)" fill="#341769" fill-rule="evenodd"/><path d="M188.144,194.176l75.678,43.692,75.708,43.709c1.649.952,1.649,2.5,0,3.457q-23.6,13.624-47.2,27.252t-47.173,27.252a6.633,6.633,0,0,1-5.988,0L163.457,295.83,87.78,252.139c-1.649-.952-1.649-2.5,0-3.457q23.555-13.6,47.172-27.252,23.6-13.627,47.2-27.252A6.63,6.63,0,0,1,188.144,194.176Z" transform="translate(-66.187 -181.692)" fill="#fff" fill-rule="evenodd"/><path d="M149.112,210.831h0a1.181,1.181,0,0,1,.031,2.222c-5,2.888-9.995,5.744-14.97,8.626s-9.954,5.778-14.94,8.643a4.309,4.309,0,0,1-3.85-.018h0a1.166,1.166,0,0,1,0-2.205q7.478-4.3,14.94-8.643c4.976-2.881,9.967-5.737,14.97-8.626A4.264,4.264,0,0,1,149.112,210.831Z" transform="translate(-72.831 -185.699)" fill="#170733" fill-rule="evenodd"/><path d="M365.809,354.043c2.051,1.184,2.115,3.125.042,4.322a8.331,8.331,0,0,1-7.485-.025c-2.03-1.171-2.03-3.125,0-4.3A8.209,8.209,0,0,1,365.809,354.043Z" transform="translate(-130.211 -219.517)" fill="#170733" fill-rule="evenodd"/><path d="M193.982,190.331c1.008.582,1.039,1.516.031,2.1a4.057,4.057,0,0,1-3.636-.018c-1.008-.582-1.008-1.535-.031-2.1A4,4,0,0,1,193.982,190.331Z" transform="translate(-90.601 -180.845)" fill="#170733" fill-rule="evenodd"/></g><line x1="28.466" y2="16.448" transform="translate(117.327 97.45)" fill="none" stroke="#d2defc" stroke-linecap="round" stroke-linejoin="round" stroke-miterlimit="22.926" stroke-width="1.92"/><line x2="24.937" y2="14.397" transform="translate(92.39 99.501)" fill="none" stroke="#d2defc" stroke-linecap="round" stroke-linejoin="round" stroke-miterlimit="22.926" stroke-width="1.92"/><path d="M176.67,243.239l2.057,5.836,8.051-4.648Z" transform="translate(-87.534 -145.617)" fill="#d2defc" fill-rule="evenodd"/><line x1="53.722" y2="31.041" transform="translate(101.303 102.156)" fill="none" stroke="#d2defc" stroke-linecap="round" stroke-linejoin="round" stroke-miterlimit="22.926" stroke-width="1.92"/><line x2="14.323" y2="8.269" transform="translate(101.303 133.197)" fill="none" stroke="#d2defc" stroke-linecap="round" stroke-linejoin="round" stroke-miterlimit="22.926" stroke-width="1.92"/><path d="M321.687,233.044v41.6l18.138,10.473,18.021-10.4v-41.6l-18.139-10.473-18.021,10.405Z" transform="translate(-121.884 -140.738)" fill="#6236b5" fill-rule="evenodd"/><g transform="translate(199.803 81.902)"><path d="M321.687,236.273v41.6l18.138,10.473v-41.6Z" transform="translate(-321.687 -225.869)" fill="#4c2791" fill-rule="evenodd"/><path d="M339.708,222.64l-18.021,10.4,18.138,10.473,18.021-10.4Z" transform="translate(-321.687 -222.64)" fill="#9169db" fill-rule="evenodd"/><path d="M363.476,236.362l-18.021,10.4v41.6l18.021-10.4Z" transform="translate(-327.317 -225.89)" fill="#6236b5" fill-rule="evenodd"/></g><path d="M310.1,272.1,292.08,282.5v16.908l18.138,10.472,18.021-10.4V282.568Z" transform="translate(-114.871 -152.452)" fill="#e070cd" fill-rule="evenodd"/><g transform="translate(177.21 119.643)"><path d="M292.081,285.729v16.907l18.138,10.472V296.2Z" transform="translate(-292.081 -275.324)" fill="#c23cac" fill-rule="evenodd"/><path d="M310.1,272.1l-18.021,10.4,18.138,10.473,18.021-10.4Z" transform="translate(-292.081 -272.095)" fill="#e070cd" fill-rule="evenodd"/><path d="M333.87,285.818l-18.021,10.4V313.13l18.021-10.4Z" transform="translate(-297.711 -275.345)" fill="#cf4fba" fill-rule="evenodd"/></g><path d="M350.582,266.915v28.41L368.72,305.8l18.021-10.4v-28.41L368.6,256.51l-18.021,10.4Z" transform="translate(-128.728 -148.761)" fill="#4578ee" fill-rule="evenodd"/><g transform="translate(221.854 107.749)"><path d="M350.582,270.143v28.41l18.138,10.472v-28.41Z" transform="translate(-350.582 -259.739)" fill="#3e68c9" fill-rule="evenodd"/><path d="M368.6,256.51l-18.021,10.4,18.138,10.473,18.021-10.4Z" transform="translate(-350.582 -256.51)" fill="#799ff7" fill-rule="evenodd"/><path d="M392.371,270.233l-18.021,10.4v28.41l18.021-10.4Z" transform="translate(-356.212 -259.76)" fill="#4578ee" fill-rule="evenodd"/></g><path d="M339,294.961l-18.021,10.4h0v12.11l18.138,10.473,18.021-10.4V305.434Z" transform="translate(-121.715 -157.868)" fill="#a6f6ff" fill-rule="evenodd"/><g transform="translate(199.26 137.093)"><path d="M320.976,308.6v12.111l18.138,10.472V319.067Z" transform="translate(-320.975 -298.19)" fill="#1eaaba" fill-rule="evenodd"/><path d="M339,294.961l-18.021,10.4,18.138,10.473,18.021-10.4Z" transform="translate(-320.975 -294.961)" fill="#57eeff" fill-rule="evenodd"/><path d="M362.765,308.684l-18.021,10.4V331.2l18.021-10.4Z" transform="translate(-326.605 -298.211)" fill="#2fcee0" fill-rule="evenodd"/></g><path d="M190.079,117.713v75.293l-73.83,42.642-4.15-2.4V157.96h0l73.83-42.641Z" transform="translate(-72.24 -115.317)" fill="#c3d2f7" fill-rule="evenodd"/><path d="M191.367,118.456v75.293l-73.83,42.641V161.1Z" transform="translate(-73.528 -116.061)" fill="#a2b9f2" fill-rule="evenodd"/><path d="M185.929,115.317l4.149,2.4-73.83,42.641-4.15-2.4Z" transform="translate(-72.24 -115.317)" fill="#bdf8ff" fill-rule="evenodd"/><path d="M112.1,171.193l4.15,2.4v75.293l-4.15-2.4Z" transform="translate(-72.24 -128.552)" fill="#2fcee0" fill-rule="evenodd"/><path d="M117.537,161.1q18.45-10.667,36.908-21.322t36.923-21.323v75.3q-18.462,10.667-36.923,21.323T117.537,236.39V198.758Q117.537,179.953,117.537,161.1Z" transform="translate(-73.528 -116.061)" fill="#57eeff" fill-rule="evenodd"/><g transform="translate(54.16 28.176)"><path d="M130.839,242.492q13.378-7.73,26.756-15.45t26.763-15.461" transform="translate(-130.839 -166.294)" fill="none" stroke="#88f0fc" stroke-linecap="round" stroke-linejoin="round" stroke-miterlimit="22.926" stroke-width="0.72" fill-rule="evenodd"/><path d="M130.839,235.062q13.378-7.713,26.756-15.45,13.374-7.72,26.763-15.45" transform="translate(-130.839 -164.537)" fill="none" stroke="#88f0fc" stroke-linecap="round" stroke-linejoin="round" stroke-miterlimit="22.926" stroke-width="0.72" fill-rule="evenodd"/><path d="M130.839,227.645q13.378-7.713,26.756-15.449,13.375-7.72,26.763-15.45" transform="translate(-130.839 -162.78)" fill="none" stroke="#88f0fc" stroke-linecap="round" stroke-linejoin="round" stroke-miterlimit="22.926" stroke-width="0.72" fill-rule="evenodd"/><path d="M130.839,220.238q13.378-7.73,26.756-15.449t26.763-15.461" transform="translate(-130.839 -161.023)" fill="none" stroke="#88f0fc" stroke-linecap="round" stroke-linejoin="round" stroke-miterlimit="22.926" stroke-width="0.72" fill-rule="evenodd"/><path d="M130.839,212.82q13.378-7.73,26.756-15.449t26.763-15.461" transform="translate(-130.839 -159.266)" fill="none" stroke="#88f0fc" stroke-linecap="round" stroke-linejoin="round" stroke-miterlimit="22.926" stroke-width="0.72" fill-rule="evenodd"/><path d="M130.839,205.4q13.378-7.731,26.756-15.45t26.763-15.461" transform="translate(-130.839 -157.509)" fill="none" stroke="#88f0fc" stroke-linecap="round" stroke-linejoin="round" stroke-miterlimit="22.926" stroke-width="0.72" fill-rule="evenodd"/><path d="M130.839,197.972q13.378-7.713,26.756-15.45,13.374-7.72,26.763-15.45" transform="translate(-130.839 -155.752)" fill="none" stroke="#88f0fc" stroke-linecap="round" stroke-linejoin="round" stroke-miterlimit="22.926" stroke-width="0.72" fill-rule="evenodd"/><path d="M130.839,190.567q13.378-7.731,26.756-15.45t26.763-15.461" transform="translate(-130.839 -153.995)" fill="none" stroke="#88f0fc" stroke-linecap="round" stroke-linejoin="round" stroke-miterlimit="22.926" stroke-width="0.72" fill-rule="evenodd"/><path d="M130.839,183.149q13.378-7.73,26.756-15.449t26.763-15.461" transform="translate(-130.839 -152.238)" fill="none" stroke="#88f0fc" stroke-linecap="round" stroke-linejoin="round" stroke-miterlimit="22.926" stroke-width="0.72" fill-rule="evenodd"/><path d="M130.839,192.743V238.03" transform="translate(-130.839 -161.832)" fill="none" stroke="#88f0fc" stroke-linecap="round" stroke-linejoin="round" stroke-miterlimit="22.926" stroke-width="0.72" fill-rule="evenodd"/><path d="M138.627,188.246v45.287" transform="translate(-132.684 -160.767)" fill="none" stroke="#88f0fc" stroke-linecap="round" stroke-linejoin="round" stroke-miterlimit="22.926" stroke-width="0.72" fill-rule="evenodd"/><path d="M146.425,183.749v45.286" transform="translate(-134.531 -159.702)" fill="none" stroke="#88f0fc" stroke-linecap="round" stroke-linejoin="round" stroke-miterlimit="22.926" stroke-width="0.72" fill-rule="evenodd"/><path d="M154.213,179.252v45.287" transform="translate(-136.375 -158.637)" fill="none" stroke="#88f0fc" stroke-linecap="round" stroke-linejoin="round" stroke-miterlimit="22.926" stroke-width="0.72" fill-rule="evenodd"/><path d="M162.01,174.739v45.287" transform="translate(-138.222 -157.568)" fill="none" stroke="#88f0fc" stroke-linecap="round" stroke-linejoin="round" stroke-miterlimit="22.926" stroke-width="0.72" fill-rule="evenodd"/><path d="M169.8,170.242v45.287" transform="translate(-140.067 -156.503)" fill="none" stroke="#88f0fc" stroke-linecap="round" stroke-linejoin="round" stroke-miterlimit="22.926" stroke-width="0.72" fill-rule="evenodd"/><path d="M177.6,165.745v45.287" transform="translate(-141.914 -155.437)" fill="none" stroke="#88f0fc" stroke-linecap="round" stroke-linejoin="round" stroke-miterlimit="22.926" stroke-width="0.72" fill-rule="evenodd"/><path d="M185.384,161.248v45.286" transform="translate(-143.759 -154.372)" fill="none" stroke="#88f0fc" stroke-linecap="round" stroke-linejoin="round" stroke-miterlimit="22.926" stroke-width="0.72" fill-rule="evenodd"/><path d="M193.182,156.735v45.287" transform="translate(-145.606 -153.303)" fill="none" stroke="#88f0fc" stroke-linecap="round" stroke-linejoin="round" stroke-miterlimit="22.926" stroke-width="0.72" fill-rule="evenodd"/><path d="M200.97,152.238v45.287" transform="translate(-147.451 -152.238)" fill="none" stroke="#88f0fc" stroke-linecap="round" stroke-linejoin="round" stroke-miterlimit="22.926" stroke-width="0.72" fill-rule="evenodd"/></g><path d="M130.839,232.748c2.968-7.371,5.946-14.765,8.911-22.125l8.926-22.148q4.463,3.1,8.926,6.18L169.652,170.7q4.374,5.148,8.764,10.248c1.513-3.491,3.027-7,4.541-10.508" transform="translate(-76.679 -128.374)" fill="none" stroke="#6236b5" stroke-linecap="round" stroke-linejoin="round" stroke-miterlimit="22.926" stroke-width="1.44" fill-rule="evenodd"/><path d="M130.839,229.428l11.893-23.846q2.182,1.574,4.37,3.125,3.012-7.395,6.032-14.8t6.039-14.812q4.807,5.732,9.62,11.428,3.555-8.509,7.11-17.042,3.552-8.51,7.125-17.053" transform="translate(-76.679 -125.054)" fill="none" stroke="#fce8ae" stroke-linecap="round" stroke-linejoin="round" stroke-miterlimit="22.926" stroke-width="1.44" fill-rule="evenodd"/><path d="M196.375,156.421q1.661-1.875,3.337-3.75c-.147,1.816-.288,3.633-.428,5.437C198.309,157.554,197.342,156.976,196.375,156.421Z" transform="translate(-92.202 -124.165)" fill="#fce8ae" fill-rule="evenodd"/><path d="M130.839,237.309q6.434-9.376,12.883-18.763,8.416-.442,16.848-.908,2.315-6.987,4.629-13.963t4.637-13.975c1.425,2.418,2.857,4.824,4.282,7.241s2.865,4.824,4.3,7.229q2.1-5.219,4.209-10.449" transform="translate(-76.679 -132.935)" fill="none" stroke="#4578ee" stroke-linecap="round" stroke-linejoin="round" stroke-miterlimit="22.926" stroke-width="1.44" fill-rule="evenodd"/><path d="M196.065,194.5c1.107-1.238,2.222-2.489,3.337-3.739-.148,1.816-.3,3.633-.436,5.437C198,195.635,197.032,195.081,196.065,194.5Z" transform="translate(-92.128 -133.188)" fill="#4578ee" fill-rule="evenodd"/><path d="M196.607,169.839c1.107-1.239,2.215-2.476,3.33-3.739-.147,1.816-.288,3.633-.428,5.437C198.541,170.971,197.574,170.417,196.607,169.839Z" transform="translate(-92.257 -127.346)" fill="#6236b5" fill-rule="evenodd"/><path d="M130.839,235.983q2.281-8.385,4.57-16.782t4.577-16.806q2.17,4.865,4.341,9.741t4.349,9.729q4.973-9.446,9.945-18.905,4.7,2.936,9.391,5.885L183.324,184.1" transform="translate(-76.679 -131.61)" fill="none" stroke="#c23cac" stroke-linecap="round" stroke-linejoin="round" stroke-miterlimit="22.926" stroke-width="1.44" fill-rule="evenodd"/><path d="M196.742,183.284c1.181-.66,2.363-1.321,3.551-1.993q-.831,2.8-1.661,5.579C198,185.678,197.37,184.488,196.742,183.284Z" transform="translate(-92.289 -130.944)" fill="#c23cac" fill-rule="evenodd"/><path d="M129.135,255.847c.163-.094.229.024.229.248v1.026a.562.562,0,0,1-.229.5c-.145.087-.229-.012-.229-.224v-1.026a.569.569,0,0,1,.229-.52Zm0-.448a1.321,1.321,0,0,0-.569,1.179v1c0,.448.2.7.569.484a1.312,1.312,0,0,0,.569-1.133v-1C129.7,255.458,129.535,255.168,129.135,255.4Z" transform="translate(-76.14 -148.478)" fill="#fff" fill-rule="evenodd"/><path d="M138.607,252.358c0,.118.074.188.17.13a.407.407,0,0,0,.17-.318v-2.147c0-.141-.075-.214-.177-.153a.344.344,0,0,0-.1.095c-.172.234-.336.481-.495.707a.452.452,0,0,0-.074.248c0,.165.081.164.155.118a.475.475,0,0,0,.147-.153c.064-.1.133-.188.2-.295Z" transform="translate(-78.4 -147.183)" fill="#fff" fill-rule="evenodd"/><path d="M146.858,247.556c0-.13-.076-.181-.17-.13-.187.1-.369.224-.554.33.133-.354.352-.709.517-1.049a1.8,1.8,0,0,0,.2-.814c0-.4-.214-.614-.576-.4-.2.118-.554.437-.554.707,0,.118.09.166.169.118s.121-.139.177-.2a.92.92,0,0,1,.207-.177c.156-.093.229.012.229.2a2.13,2.13,0,0,1-.332.849,5.1,5.1,0,0,0-.45,1.038.741.741,0,0,0-.022.188c0,.142.07.195.177.13.263-.16.54-.3.812-.46A.4.4,0,0,0,146.858,247.556Z" transform="translate(-80.198 -146.131)" fill="#fff" fill-rule="evenodd"/><path d="M154.318,241.3a.472.472,0,0,0,.037-.188c0-.13-.075-.19-.177-.13-.237.14-.466.269-.694.4a.4.4,0,0,0-.17.33c0,.118.074.188.17.13.133-.082.266-.153.4-.236-.125.307-.253.589-.369.884a.235.235,0,0,0-.014.095c0,.13.073.2.163.142.058-.037.06-.082.125-.118.17-.094.281-.071.281.177a.637.637,0,0,1-.281.566c-.17.094-.236.014-.34.071a.409.409,0,0,0-.163.318c0,.295.4.111.51.047a1.478,1.478,0,0,0,.62-1.226c0-.389-.177-.554-.436-.472C154.089,241.82,154.2,241.573,154.318,241.3Z" transform="translate(-81.995 -145.077)" fill="#fff" fill-rule="evenodd"/><path d="M177.383,228c.11-.06.185-.036.266-.082a.366.366,0,0,0,.155-.318c-.02-.236-.354-.081-.45-.024-.42.249-.627.861-.627,1.745,0,.72.143,1.173.6.908a1.406,1.406,0,0,0,.591-1.215c0-.555-.268-.675-.561-.507a.866.866,0,0,0-.273.259c.021-.353.066-.637.3-.766Zm-.311,1.25a.639.639,0,0,1,.251-.259c.158-.089.243-.024.243.224a.607.607,0,0,1-.237.543c-.217.124-.259-.153-.259-.46C177.072,229.273,177.072,229.262,177.072,229.249Z" transform="translate(-87.548 -141.883)" fill="#fff" fill-rule="evenodd"/><path d="M185.457,223.14c0-.13-.08-.186-.177-.13-.265.155-.529.312-.79.46a.405.405,0,0,0-.169.318c0,.13.082.191.169.141.185-.1.369-.212.561-.33-.185.707-.356,1.429-.539,2.134a.554.554,0,0,0-.014.094c0,.142.09.168.177.118a.349.349,0,0,0,.155-.236c.2-.813.4-1.641.613-2.453A.62.62,0,0,0,185.457,223.14Z" transform="translate(-89.347 -140.821)" fill="#fff" fill-rule="evenodd"/><path d="M193.578,220.072c0-.295-.1-.437-.251-.5a1.268,1.268,0,0,0,.185-.625c0-.413-.246-.557-.561-.378a1.224,1.224,0,0,0-.553,1.026.469.469,0,0,0,.177.437,1.446,1.446,0,0,0-.244.755c0,.448.266.625.627.413a1.37,1.37,0,0,0,.62-1.133Zm-.406-.92a.593.593,0,0,1-.214.437c-.118.036-.221-.011-.221-.188a.5.5,0,0,1,.221-.389c.12-.069.214,0,.214.141Zm.06,1.12a.613.613,0,0,1-.273.483c-.161.1-.28.024-.28-.165a.779.779,0,0,1,.273-.554C193.1,220,193.231,220.06,193.231,220.272Z" transform="translate(-91.244 -139.757)" fill="#fff" fill-rule="evenodd"/><path d="M200.466,216.441c-.105.057-.185.036-.266.082a.348.348,0,0,0-.155.307c.021.236.354.082.458.024.414-.236.62-.861.62-1.745,0-.72-.135-1.171-.591-.908a1.407,1.407,0,0,0-.6,1.226c0,.554.269.676.569.5a.912.912,0,0,0,.266-.259c-.022.354-.061.647-.3.778Zm.311-1.261a.647.647,0,0,1-.251.271c-.153.086-.244.024-.244-.224a.62.62,0,0,1,.237-.554c.212-.121.259.141.259.46Z" transform="translate(-93.045 -138.721)" fill="#fff" fill-rule="evenodd"/><path d="M162.619,238.2c.008-.011.014-.014.03-.024a.419.419,0,0,0,.17-.33c0-.118-.075-.19-.17-.13-.016.01-.022.012-.03.024v-.554c0-.13-.083-.18-.17-.13a.382.382,0,0,0-.17.318v.554l-.311.177c.14-.554.256-1,.4-1.58a.361.361,0,0,0,.015-.095c0-.118-.088-.164-.169-.118a.357.357,0,0,0-.155.224c-.159.638-.322,1.263-.48,1.887a1.023,1.023,0,0,0-.022.141c0,.13.075.2.177.142.178-.1.362-.212.546-.318v.295c0,.13.074.188.17.13a.389.389,0,0,0,.17-.318Z" transform="translate(-83.954 -143.973)" fill="#fff" fill-rule="evenodd"/><path d="M170.3,233.388c0-.519-.238-.7-.576-.5a.52.52,0,0,0-.155.13c0-.166.008-.33.015-.5.148-.082.306-.172.458-.259a.382.382,0,0,0,.192-.33c0-.165-.1-.159-.192-.106l-.6.342a.427.427,0,0,0-.185.342c-.005.342-.012.685-.022,1.014,0,.153.076.2.17.153a.69.69,0,0,0,.177-.224.527.527,0,0,1,.14-.118c.131-.073.237-.024.237.247a.669.669,0,0,1-.288.6c-.169.1-.237,0-.332.059a.4.4,0,0,0-.163.318c0,.295.439.089.554.024a1.4,1.4,0,0,0,.568-1.2Z" transform="translate(-85.76 -142.907)" fill="#fff" fill-rule="evenodd"/><path d="M127.535,247.628c.177-.106.354-.2.532-.307a3.159,3.159,0,0,0,.081.33.115.115,0,0,0,.17.071.406.406,0,0,0,.177-.342.4.4,0,0,0-.008-.082c-.163-.589-.32-1.181-.48-1.78-.032-.119-.08-.2-.2-.13a.5.5,0,0,0-.207.366q-.247,1.184-.48,2.335a.581.581,0,0,0-.008.095c0,.141.081.188.177.13a.448.448,0,0,0,.163-.259c.025-.143.052-.285.082-.426Zm.443-.672c-.118.071-.237.142-.347.2.044-.224.089-.46.133-.7.022-.118.03-.259.044-.378a2.832,2.832,0,0,0,.044.318C127.894,246.6,127.934,246.779,127.978,246.956Z" transform="translate(-75.796 -146.12)" fill="#fff" fill-rule="evenodd"/><path d="M127.664,239.154v-.543c.1-.059.188-.112.3-.177.129-.077.177.024.177.165a.45.45,0,0,1-.192.389c-.1.057-.192.118-.28.166Zm.288.3c.133-.082.229-.011.229.2a.489.489,0,0,1-.243.448c-.094.051-.185.106-.273.153v-.637c.1-.059.192-.106.288-.165Zm-.037,1.12a1.321,1.321,0,0,0,.613-1.12c0-.318-.155-.4-.3-.4a1.054,1.054,0,0,0,.259-.66c0-.354-.185-.6-.561-.389-.141.08-.279.167-.414.248a.449.449,0,0,0-.192.366v2.041c0,.141.083.216.192.153C127.645,240.727,127.776,240.651,127.916,240.57Z" transform="translate(-75.845 -144.357)" fill="#fff" fill-rule="evenodd"/><path d="M127.664,231.713a.713.713,0,0,1,.3-.684.212.212,0,0,1,.207-.035c.012.006.011.012.03.012s.045.036.1,0a.4.4,0,0,0,.163-.318c0-.212-.25-.245-.509-.095a1.439,1.439,0,0,0-.635,1.321v.72c0,.578.2.84.635.59a1.024,1.024,0,0,0,.509-.684c0-.118-.066-.188-.163-.13a.329.329,0,0,0-.1.118c-.011.015-.022.024-.03.035a.582.582,0,0,1-.207.212c-.22.12-.3-.024-.3-.342Z" transform="translate(-75.845 -142.6)" fill="#fff" fill-rule="evenodd"/><path d="M128.485,224.617v-.625c0-.507-.194-.84-.753-.519-.1.056-.19.109-.281.165a.471.471,0,0,0-.192.366v2.052c0,.141.09.215.192.153s.184-.108.281-.165a1.6,1.6,0,0,0,.753-1.427Zm-.346.2a.81.81,0,0,1-.362.743,1.718,1.718,0,0,1-.17.095v-1.639c.052-.024.111-.06.17-.095.265-.154.362,0,.362.271Z" transform="translate(-75.831 -140.905)" fill="#fff" fill-rule="evenodd"/><path d="M128.451,218.027c0-.13-.079-.185-.17-.13-.182.11-.362.2-.539.307v-.589c.155-.082.307-.182.465-.271a.394.394,0,0,0,.17-.33c0-.13-.083-.18-.17-.13-.156.092-.31.188-.465.271v-.59c.17-.095.34-.189.509-.295a.4.4,0,0,0,.177-.318c0-.13-.081-.2-.177-.141-.221.131-.441.263-.665.389a.467.467,0,0,0-.192.366v2.052c0,.188.1.191.229.118.215-.127.438-.244.657-.378A.441.441,0,0,0,128.451,218.027Z" transform="translate(-75.863 -139.116)" fill="#fff" fill-rule="evenodd"/><path d="M127.742,210.285c.155-.095.307-.182.465-.271a.411.411,0,0,0,.17-.33c0-.13-.083-.18-.17-.13-.156.091-.31.177-.465.271v-.59c.17-.095.341-.2.509-.295a.41.41,0,0,0,.177-.33c0-.13-.081-.2-.177-.141-.221.131-.441.263-.665.389a.491.491,0,0,0-.192.378v2.1c0,.13.074.2.17.141a.443.443,0,0,0,.177-.342Z" transform="translate(-75.863 -137.376)" fill="#fff" fill-rule="evenodd"/><path d="M127.577,202.46a.71.71,0,0,1,.3-.672.274.274,0,0,1,.207-.024c.014,0,.009.008.022.011.028.009.049.007.1-.024a.375.375,0,0,0,.163-.307c0-.212-.245-.25-.51-.095a1.428,1.428,0,0,0-.627,1.309v.731c0,.566.194.84.627.59a1.068,1.068,0,0,0,.561-.814v-.8c0-.177-.088-.211-.2-.141-.1.06-.185.1-.273.153a.415.415,0,0,0-.155.318c0,.13.073.188.155.141.044-.024.089-.047.133-.071v.566a.812.812,0,0,1-.207.189c-.221.13-.3-.024-.3-.33C127.577,202.944,127.577,202.708,127.577,202.46Z" transform="translate(-75.824 -135.673)" fill="#fff" fill-rule="evenodd"/><path d="M128.439,196.029v-2.158c0-.13-.083-.179-.169-.13a.409.409,0,0,0-.177.33v.849c-.177.106-.355.2-.524.307v-.849c0-.13-.084-.182-.177-.13a.4.4,0,0,0-.17.33v2.158c0,.13.072.185.17.13a.416.416,0,0,0,.177-.33v-.849c.17-.106.347-.2.524-.307v.849c0,.13.079.185.177.13A.421.421,0,0,0,128.439,196.029Z" transform="translate(-75.822 -133.888)" fill="#fff" fill-rule="evenodd"/><path d="M308.84,285.343a.347.347,0,0,0-.191-.229.944.944,0,0,0-.89.018l-1.771,1.023c-.246.142-.245.361-.016.5a.917.917,0,0,0,.842-.018l1.025-.591c.072.408.134.817.207,1.22.008.041.047.079.111.115a.931.931,0,0,0,.834,0c.16-.09.1-.133.263-.23a1.243,1.243,0,0,1,1.31-.078c.334.192.534.522-.016.839-.435.251-.835.2-1.1.358-.239.136-.23.353-.024.472.532.307,1.636-.23,1.938-.4,1.1-.637.74-1.4.047-1.8a2.8,2.8,0,0,0-2.391-.1c-.055-.367-.116-.73-.174-1.1Zm2.169-1.316a1.253,1.253,0,0,1,1.287.069c.6.35,1.208.7,1.811,1.041.366.21.405.472.024.693a1.183,1.183,0,0,1-1.191-.018c-.6-.345-1.209-.691-1.811-1.041-.407-.237-.541-.5-.119-.743Zm-.779-.449a2.966,2.966,0,0,1,2.995.032q.883.507,1.764,1.018c.779.453.882,1.114-.063,1.661a2.934,2.934,0,0,1-2.868.032q-.88-.512-1.764-1.018c-.849-.487-1.08-1.138-.063-1.725Zm9.945-.32c.667-.385.532-.872-.1-1.239a2.2,2.2,0,0,0-2.145-.06c-.659.381-.524.876.1,1.239a2.182,2.182,0,0,0,2.145.06Zm-3.8-2.5a.413.413,0,0,0-.072-.092.772.772,0,0,0-.707-.087c-.262.08-.4.234-.326.39.546,1.152,1.112,2.293,1.676,3.44a.2.2,0,0,0,.04.06.786.786,0,0,0,.746.137c.259-.082.395-.251.317-.408-.557-1.141-1.107-2.3-1.675-3.44Zm3.082,2.087a.677.677,0,0,1-.684-.082c-.245-.139-.3-.275-.119-.381a.669.669,0,0,1,.667.064c.272.154.318.294.136.4Zm-4.75-.023a.687.687,0,0,1-.691-.082c-.238-.137-.285-.275-.1-.381a.644.644,0,0,1,.651.064c.27.156.326.294.143.4Zm.723.413c.659-.381.524-.871-.1-1.234a2.164,2.164,0,0,0-2.137-.055c-.667.385-.54.867.1,1.234A2.2,2.2,0,0,0,315.425,283.229Z" transform="translate(-118.121 -154.45)" fill="#fff" fill-rule="evenodd"/><path d="M370.8,271.351l.088-.05c.238-.137.246-.344.016-.477a.919.919,0,0,0-.818.014l-.088.05-.977-.564a.926.926,0,0,0-.842.018c-.246.142-.263.353-.032.486l.977.564-.794.459c-.492-.707-.865-1.261-1.358-1.977a.328.328,0,0,0-.111-.1,1,1,0,0,0-.858.014c-.159.092-.231.243-.143.372q.809,1.177,1.62,2.344a.8.8,0,0,0,.159.165.983.983,0,0,0,.89-.009l1.4-.807.524.3a.912.912,0,0,0,.842-.018c.246-.142.262-.353.032-.486l-.524-.3Zm-.715-3.023a1.235,1.235,0,0,1,1.287.069l1.8,1.041c.366.211.413.472.032.692a1.193,1.193,0,0,1-1.2-.018l-1.8-1.041c-.413-.237-.533-.5-.119-.743Zm-.778-.454a2.964,2.964,0,0,1,2.995.032q.883.507,1.764,1.018c.779.453.881,1.114-.063,1.661a2.945,2.945,0,0,1-2.875.037l-1.764-1.018c-.842-.486-1.08-1.137-.056-1.729Zm9.945-.321c.668-.385.533-.871-.1-1.239a2.193,2.193,0,0,0-2.137-.055c-.666.382-.532.876.1,1.239a2.182,2.182,0,0,0,2.144.055Zm-3.8-2.5a.427.427,0,0,0-.079-.087.762.762,0,0,0-.7-.092c-.255.082-.4.238-.326.395.546,1.152,1.112,2.293,1.677,3.44a.214.214,0,0,0,.04.06.783.783,0,0,0,.746.137c.26-.085.4-.256.326-.408q-.832-1.727-1.684-3.445Zm3.09,2.092a.689.689,0,0,1-.691-.087c-.245-.139-.3-.275-.119-.381a.661.661,0,0,1,.659.069c.271.156.335.3.151.4Zm-4.758-.023a.678.678,0,0,1-.683-.082c-.246-.142-.3-.275-.119-.381a.644.644,0,0,1,.659.064c.268.155.327.291.143.4Zm.715.413c.667-.385.54-.872-.1-1.239a2.18,2.18,0,0,0-2.137-.05c-.666.382-.538.863.1,1.229A2.187,2.187,0,0,0,374.49,267.531Z" transform="translate(-132.337 -150.731)" fill="#fff" fill-rule="evenodd"/><path d="M336.845,308.814c.3-.169.606-.208.818-.33.264-.153.221-.356-.008-.459-.5-.227-1.4.231-1.66.381-1.082.621-.73,1.426.826,2.325,1.279.738,2.559,1.08,3.733.4,1.017-.59.817-1.278-.016-1.761a2.975,2.975,0,0,0-2.908-.014,1.049,1.049,0,0,0-.492.509c-.556-.377-.9-.71-.294-1.051Zm1.1,1.536a.809.809,0,0,1,.429-.5,1.231,1.231,0,0,1,1.287.023c.373.215.565.5.119.762a1.764,1.764,0,0,1-1.755-.243.575.575,0,0,0-.079-.047Zm2.129-3.462a1.252,1.252,0,0,1,1.287.069c.605.346,1.207.7,1.8,1.045.365.212.413.468.032.688a1.189,1.189,0,0,1-1.2-.014c-.6-.347-1.2-.7-1.8-1.046-.412-.236-.541-.5-.119-.743Zm-.787-.449a2.962,2.962,0,0,1,2.995.037q.88.512,1.764,1.018c.785.451.881,1.11-.063,1.656a2.939,2.939,0,0,1-2.868.037q-.883-.507-1.764-1.018c-.842-.49-1.082-1.142-.063-1.729Zm9.945-.321c.667-.385.54-.871-.1-1.239a2.2,2.2,0,0,0-2.144-.06c-.659.381-.524.876.1,1.239a2.166,2.166,0,0,0,2.137.06Zm-3.8-2.5a.4.4,0,0,0-.079-.087.774.774,0,0,0-.707-.092c-.254.079-.392.234-.318.39.546,1.152,1.112,2.293,1.677,3.44a.214.214,0,0,0,.04.06.782.782,0,0,0,.746.137c.252-.082.394-.25.318-.408q-.828-1.718-1.677-3.44Zm3.082,2.086a.679.679,0,0,1-.691-.078c-.239-.14-.3-.285-.119-.39a.672.672,0,0,1,.668.073c.269.158.325.289.143.395Zm-4.75-.023a.692.692,0,0,1-.691-.082c-.244-.141-.294-.275-.111-.381a.653.653,0,0,1,.659.064c.263.153.325.294.143.4Zm.715.417c.659-.381.53-.873-.1-1.239a2.158,2.158,0,0,0-2.129-.055c-.667.385-.542.87.088,1.234A2.194,2.194,0,0,0,344.48,306.094Z" transform="translate(-125.125 -159.865)" fill="#fff" fill-rule="evenodd"/><path d="M340.913,236.57a2.835,2.835,0,0,0-1.739-.271.72.72,0,0,0-.445-.8,2.851,2.851,0,0,0-2.661.124c-.778.449-.977,1.1-.191,1.55a2.445,2.445,0,0,0,1.406.271.78.78,0,0,0,.461.986,3.161,3.161,0,0,0,2.963-.133c.938-.543,1-1.265.206-1.724Zm-3.042-.559c.277.157.254.413.008.633a1.422,1.422,0,0,1-1.128.018c-.278-.16-.23-.417.088-.6a1.124,1.124,0,0,1,1.033-.05Zm2.16,1.069c.334.191.31.523-.1.761a1.443,1.443,0,0,1-1.326.064c-.348-.2-.278-.509.032-.788a1.778,1.778,0,0,1,1.4-.037Zm.191-3.027a1.242,1.242,0,0,1,1.287.069c.605.346,1.207.7,1.8,1.046.365.212.413.468.032.688a1.191,1.191,0,0,1-1.2-.014c-.6-.347-1.2-.7-1.8-1.046-.412-.236-.533-.5-.119-.743Zm-.787-.449a2.957,2.957,0,0,1,2.995.032q.88.512,1.764,1.018c.785.451.888,1.113-.063,1.661a2.943,2.943,0,0,1-2.868.037q-.884-.507-1.764-1.018c-.843-.489-1.081-1.139-.063-1.729Zm9.953-.321c.66-.384.532-.876-.1-1.243a2.195,2.195,0,0,0-2.137-.055c-.666.382-.532.876.1,1.239a2.175,2.175,0,0,0,2.144.06Zm-3.8-2.508a.462.462,0,0,0-.079-.082.773.773,0,0,0-.7-.092c-.253.08-.4.234-.326.39.546,1.152,1.112,2.293,1.676,3.439a.232.232,0,0,0,.04.06.782.782,0,0,0,.746.137c.252-.082.4-.253.326-.408-.552-1.152-1.122-2.3-1.683-3.444Zm3.091,2.091a.692.692,0,0,1-.7-.082c-.24-.14-.3-.279-.111-.385a.66.66,0,0,1,.659.073c.269.158.334.291.151.395Zm-4.758-.023a.677.677,0,0,1-.683-.082c-.244-.141-.3-.274-.119-.381a.646.646,0,0,1,.659.064c.263.153.326.291.143.4Zm.715.417c.66-.384.538-.872-.1-1.239a2.178,2.178,0,0,0-2.137-.055c-.666.382-.542.87.088,1.234A2.19,2.19,0,0,0,344.631,233.259Z" transform="translate(-125.126 -142.613)" fill="#fff" fill-rule="evenodd"/><g transform="translate(87.193 39.415)"><path d="M212.183,194.311c.444,1.324,2.334,6.355,2.651,8.055.19,1.017-.954,1.211-1.4.238-.739-1.6-3.224-6.233-3.623-7.931C209.422,193.032,211.572,192.491,212.183,194.311Z" transform="translate(-182.565 -173.173)" fill="#ffe3d3" fill-rule="evenodd"/><path d="M212.344,193.7a20.194,20.194,0,0,1,1.174,4.022,4.143,4.143,0,0,1-2.493.734,12.229,12.229,0,0,1-1.663-3.63C208.932,193.169,211.682,191.867,212.344,193.7Z" transform="translate(-182.46 -173.087)" fill="#fce8ae" fill-rule="evenodd"/><path d="M206.579,185.517c-2.008,1.288-1.206,2.708.253,4.73,1.355,1.879,2.305,5.2,3.826,4.412,1.712-.88.378-4.425-.6-6.737S208.271,184.431,206.579,185.517Z" transform="translate(-181.527 -171.264)" fill="#fce8ae" fill-rule="evenodd"/><path d="M193.709,186.315c-1.589,1.213,2.978,4.556,6.221,4.035a9.026,9.026,0,0,0,5.284-3.4C202.877,183.2,195.3,185.1,193.709,186.315Z" transform="translate(-178.686 -171.177)" fill="#ebcab7" fill-rule="evenodd"/><rect width="3.639" height="5.939" transform="translate(18.952 8.574)" fill="#ebcab7"/><path d="M200.974,218.327c0,2.265.238,7.034.358,9.418s.575,6.87-.715,8.464a3.347,3.347,0,0,1-2.241,1.5c-.413.159-.643,1.11.873,1.316a3.026,3.026,0,0,0,2.892-.79c.807-.685,2.17-.16,2.412-1.414s-.689-.965-.482-3.375,1.033-4.271.482-6.612.73-7.257.73-10.424S201.315,214.3,200.974,218.327Z" transform="translate(-179.796 -178.239)" fill="#ffe3d3" fill-rule="evenodd"/><path d="M206,243.662a4.815,4.815,0,0,0-.457,2.273c.006.243-.705.237-.714.005-.025-.618.2-1.152-.482-1.731C203.777,243.729,205.96,242.789,206,243.662Z" transform="translate(-181.26 -185.048)" fill="#3e68c9" fill-rule="evenodd"/><path d="M199.5,243.824a5.075,5.075,0,0,1-1.109.413c-.44.118-.654,1.121.862,1.328a3.026,3.026,0,0,0,2.892-.79c.807-.685,2.17-.159,2.412-1.414a1.591,1.591,0,0,0-.2-1.2c-.4.917-2.213,1.555-3.046,2.018A1.248,1.248,0,0,1,199.5,243.824Z" transform="translate(-179.794 -184.776)" fill="#4578ee" fill-rule="evenodd"/><path d="M199.411,245.638a5.133,5.133,0,0,0-.327,2.374c.02.251-.689.266-.711.026-.06-.641.137-1.2-.578-1.783C197.2,245.771,199.321,244.733,199.411,245.638Z" transform="translate(-179.706 -185.516)" fill="#3e68c9" fill-rule="evenodd"/><path d="M194.57,220.8c0,2.265.238,7.034.358,9.418s.575,6.87-.715,8.463a3.353,3.353,0,0,1-2.241,1.5c-.414.158-.643,1.11.873,1.316a3.023,3.023,0,0,0,2.891-.789c.808-.685,2.17-.16,2.412-1.414s-.689-.965-.482-3.375,1.033-4.27.482-6.612,1.309-7.025,1.309-10.193S194.911,216.774,194.57,220.8Z" transform="translate(-178.279 -178.86)" fill="#ffe3d3" fill-rule="evenodd"/><path d="M193.091,246.25a5.076,5.076,0,0,1-1.109.413c-.44.118-.654,1.121.862,1.328a3.023,3.023,0,0,0,2.891-.789c.808-.685,2.17-.16,2.412-1.414a1.591,1.591,0,0,0-.2-1.2c-.4.917-2.213,1.555-3.046,2.018A1.248,1.248,0,0,1,193.091,246.25Z" transform="translate(-178.277 -185.351)" fill="#4578ee" fill-rule="evenodd"/><path d="M195.563,203.227c-.7,2.658-1.052,12.786-.638,16.859,2.946.7,7.142,1.222,9.474-.121.77-1.758.128-8.015,1.293-10.431,1.044-2.166.13-6.527-1.3-8.826C204.165,200.352,196.927,199.584,195.563,203.227Z" transform="translate(-179.009 -174.883)" fill="#e070cd" fill-rule="evenodd"/><path d="M196.114,185.438a13.3,13.3,0,0,0-1.222,5.049c-.229,2.687,2.233,4.566.422,8.865,2.429.923,9.367.749,10.365-.838-.95-1.375-.818-5.644-.1-8.505.517-2.05,3.149-5.922-3.2-5.1C202.031,185.794,198.95,186.013,196.114,185.438Z" transform="translate(-179.04 -171.189)" fill="#fce8ae" fill-rule="evenodd"/><path d="M201.525,167.712c2.519.681,3.742,3.542,2.731,6.388s-4.751,4.364-7.27,3.683-2.866-3.3-1.854-6.15S199,167.031,201.525,167.712Z" transform="translate(-178.975 -167.108)" fill="#ffe3d3" fill-rule="evenodd"/><path d="M175.367,179.421c-.584-.346-.907-.57-1.082-1.138-.079-.257-.111-.466.214-.607-.34-.361-.52-.8-.227-1.034.086-.069.269.42.677.765-.532-.727-1.12-2.792.668-.131-.2-.546-.006-1.365.7-.079S176.37,179.922,175.367,179.421Z" transform="translate(-174.124 -169.095)" fill="#ffe3d3" fill-rule="evenodd"/><path d="M182.251,186.233c-1.181-1.127-6.457-5.5-6.055-6.3.056-.54-.048-.626.505-.588.634-.346,6.136,3.908,7.481,5.455C185.291,186.078,183.641,187.559,182.251,186.233Z" transform="translate(-174.61 -169.895)" fill="#ffe3d3" fill-rule="evenodd"/><path d="M183.838,187.895a10.652,10.652,0,0,1-3.507-3.253,4.14,4.14,0,0,1,1.864-1.812,13.149,13.149,0,0,1,3.28,2.375C186.628,186.469,185.993,188.937,183.838,187.895Z" transform="translate(-175.594 -170.724)" fill="#fce8ae" fill-rule="evenodd"/><path d="M196.438,187.5c.11-2.847-12.486-1.609-12.992-.218C183.118,189.806,196.308,191.342,196.438,187.5Z" transform="translate(-176.331 -171.422)" fill="#fce8ae" fill-rule="evenodd"/><path d="M196.788,173.545c-6.7-5.175-1.38-6.854,1.477-5.745C196.535,169.094,196.76,172.234,196.788,173.545Z" transform="translate(-178.725 -167.087)" fill="#4578ee" fill-rule="evenodd"/><path d="M197.511,167.836c2.306-1.767,6.374-.767,7.669,2.316,1.838,4.374-.656,8.491,1.557,9.792-.485,1.126-5.437,3.212-9.536.467,1.41-1.028,1.241-4.075,1.087-4.87-.228-1.186.973-2.344.274-2.649C195.552,171.579,195.484,169.388,197.511,167.836Z" transform="translate(-179.335 -166.966)" fill="#4578ee" fill-rule="evenodd"/><path d="M199.375,173.521c.4.108.6.672.437,1.26s-.612.977-1.012.868-.6-.672-.436-1.261S198.975,173.413,199.375,173.521Z" transform="translate(-179.852 -168.515)" fill="#ffe3d3" fill-rule="evenodd"/><path d="M216.43,205.586a3.636,3.636,0,0,1,.219.559c.443,1.4.414,1.546-.325.556.7,1.681.078,1.729-.492.179.247.476.354,2.415-.681,0,.089.574-.388,1.379-.707-.055C213.977,204.733,215.458,203.7,216.43,205.586Z" transform="translate(-183.653 -175.879)" fill="#ffe3d3" fill-rule="evenodd"/></g><g transform="translate(56.159 119.439)"><path d="M133.458,277.8l3.407-1.967L156.5,287.177l-3.407,1.967Z" transform="translate(-133.458 -272.778)" fill="#d2defc" fill-rule="evenodd"/><path d="M153.908,280.794c1.126-.65,2.267-1.308,3.407-1.958l9.862,5.694c-1.14.65-2.28,1.308-3.407,1.958Z" transform="translate(-138.302 -273.488)" fill="#d2defc" fill-rule="evenodd"/><path d="M157.046,273.786c1.126-.65,2.266-1.3,3.392-1.958l13.3,7.677c-1.126.658-2.267,1.308-3.392,1.958Z" transform="translate(-139.045 -271.828)" fill="#d2defc" fill-rule="evenodd"/><path d="M175.927,275.875c1.126-.658,2.252-1.308,3.392-1.967l4.718,2.724c-1.14.658-2.266,1.308-3.392,1.967Z" transform="translate(-143.517 -272.321)" fill="#d2defc" fill-rule="evenodd"/></g><g transform="translate(158.222 110.945)"><path d="M271.164,262.987c5.26-3.037,13.752-3.055,18.981-.036s5.213,7.931-.047,10.968-13.768,3.046-19,.027S265.9,266.024,271.164,262.987Z" transform="translate(-267.2 -260.697)" fill="#d2defc" stroke="#fff" stroke-linecap="round" stroke-linejoin="round" stroke-miterlimit="22.926" stroke-width="0.72" fill-rule="evenodd"/><path d="M280.763,269.153c-4.309-.662-8.6-1.326-12.943-2.006a8.428,8.428,0,0,1,3.491-3.45Z" transform="translate(-267.346 -261.408)" fill="#d2defc" stroke="#fff" stroke-linecap="round" stroke-linejoin="round" stroke-miterlimit="22.926" stroke-width="0.72" fill-rule="evenodd"/><path d="M281.846,268.445l-9.451-5.456a17.65,17.65,0,0,1,6.322-2.061,22.306,22.306,0,0,1,9.954.826C286.392,263.987,284.127,266.22,281.846,268.445Z" transform="translate(-268.43 -260.699)" fill="#d2defc" stroke="#fff" stroke-linecap="round" stroke-linejoin="round" stroke-miterlimit="22.926" stroke-width="0.72" fill-rule="evenodd"/><path d="M284.78,268.77c2.28-2.225,4.545-4.458,6.825-6.691a12.159,12.159,0,0,1,5.033,3,7.844,7.844,0,0,1,.755.981Q291.094,267.431,284.78,268.77Z" transform="translate(-271.364 -261.025)" fill="#d2defc" stroke="#fff" stroke-linecap="round" stroke-linejoin="round" stroke-miterlimit="22.926" stroke-width="0.72" fill-rule="evenodd"/></g><g transform="translate(107.046 111.417)"><path d="M244.613,300.052c5.036,2.908,7.512,6.739,7.463,10.569s-2.623,7.685-7.728,10.633-11.784,4.443-18.424,4.47-13.263-1.41-18.3-4.318-7.534-6.735-7.486-10.569,2.637-7.689,7.743-10.637,11.768-4.438,18.409-4.466S239.577,297.145,244.613,300.052Z" transform="translate(-200.139 -269.468)" fill="#1eaaba" fill-rule="evenodd"/><path d="M226.109,280.964l-25.969.108v26.266l25.969-.108Z" transform="translate(-200.139 -265.97)" fill="#1eaaba" fill-rule="evenodd"/><path d="M207.08,308.077l20.673-9.239v12.626L207.08,320.7Z" transform="translate(-201.783 -270.203)" fill="#1eaaba" fill-rule="evenodd"/><path d="M252.674,300.813c4.872,2.813,7.347,6.49,7.46,10.195l-25.965.482,14.555-12.542A27.674,27.674,0,0,1,252.674,300.813Z" transform="translate(-208.2 -270.229)" fill="#6236b5" fill-rule="evenodd"/><path d="M234.169,298.688l25.965-.482v12.626l-25.965.482Z" transform="translate(-208.2 -270.054)" fill="#cf4fba" fill-rule="evenodd"/><path d="M260.134,314.751c0,.124.005.25,0,.374-.04,3.21-1.848,6.426-5.425,9.117l-20.544-9.009Z" transform="translate(-208.199 -273.973)" fill="#cf4fba" fill-rule="evenodd"/><path d="M234.169,298.838l20.543,9.009v12.626l-20.543-9.009Z" transform="translate(-208.2 -270.203)" fill="#c23cac" fill-rule="evenodd"/><path d="M248.3,324.392a22.7,22.7,0,0,1-2.3,1.516c-5.105,2.947-11.784,4.443-18.424,4.47s-13.263-1.41-18.3-4.318a21.825,21.825,0,0,1-2.189-1.438l20.673-9.239Z" transform="translate(-201.783 -274.122)" fill="#4578ee" fill-rule="evenodd"/><path d="M207.08,290.095l21.078-9.589.324,27.4-21.4,8.458Z" transform="translate(-201.783 -265.861)" fill="#2fcee0" fill-rule="evenodd"/><path d="M207.08,319.145l41.215-.23v6.313l-41.215.23Z" transform="translate(-201.783 -274.959)" fill="#4578ee" fill-rule="evenodd"/><path d="M260.159,285.56l-25.348.473,14.149-12.193C253.776,275.692,259.406,279.516,260.159,285.56Z" transform="translate(-208.352 -264.282)" fill="#9169db" fill-rule="evenodd"/><path d="M260.134,298.206c0,.124.005.25,0,.374-.04,3.21-1.848,6.426-5.425,9.117l-20.544-9.009Z" transform="translate(-208.199 -270.054)" fill="#e070cd" fill-rule="evenodd"/><path d="M248.3,316.119a22.7,22.7,0,0,1-2.3,1.516c-5.105,2.947-11.784,4.443-18.424,4.47s-13.263-1.41-18.3-4.318a21.958,21.958,0,0,1-2.189-1.438l20.673-9.239Z" transform="translate(-201.783 -272.163)" fill="#799ff7" fill-rule="evenodd"/><path d="M205.436,285.549c-3.569-2.675-5.336-5.9-5.3-9.131.047-3.833,2.637-7.689,7.743-10.637s11.768-4.438,18.409-4.466a40.346,40.346,0,0,1,14.371,2.453h0l-14.555,12.542Z" transform="translate(-200.139 -261.316)" fill="#57eeff" fill-rule="evenodd"/><rect width="25.399" height="6.874" transform="translate(26.408 21.746) rotate(-1.066)" fill="#6236b5"/><path d="M234.7,276.722l.084,7.106,14.149-12.193-.083-7.106Z" transform="translate(-208.325 -262.077)" fill="#2bbccc" fill-rule="evenodd"/></g><line x1="20.322" y2="11.742" transform="translate(171.808 162.16)" fill="none" stroke="#d2defc" stroke-linecap="round" stroke-linejoin="round" stroke-miterlimit="22.926" stroke-width="1.92"/><line x2="12.829" y2="7.407" transform="translate(158.979 166.496)" fill="none" stroke="#d2defc" stroke-linecap="round" stroke-linejoin="round" stroke-miterlimit="22.926" stroke-width="1.92"/><path d="M262.934,330.454l2.058,5.836,8.051-4.648Z" transform="translate(-107.967 -166.275)" fill="#d2defc" fill-rule="evenodd"/><g transform="translate(117.365 96.088)"><path d="M221.412,256.731a7.751,7.751,0,1,0-7.751-7.751A7.766,7.766,0,0,0,221.412,256.731Z" transform="translate(-213.661 -241.229)" fill="#fce8ae" fill-rule="evenodd"/><path d="M221.25,258.932h3.92l-1.96,12.8Z" transform="translate(-215.459 -245.422)" fill="#fce8ae" fill-rule="evenodd"/><path d="M219.145,244.2a2.518,2.518,0,1,1-2.518,2.518A2.518,2.518,0,0,1,219.145,244.2Z" transform="translate(-214.364 -241.932)" fill="#fff" fill-rule="evenodd" opacity="0.5"/></g><text transform="translate(121.295 105.249)" fill="#341769" font-size="4" font-family="SegoeUI, Segoe UI"><tspan x="0" y="0">70%</tspan></text><g transform="translate(134.061 104.153)"><path d="M243.29,267.3a7.751,7.751,0,1,0-7.751-7.751A7.766,7.766,0,0,0,243.29,267.3Z" transform="translate(-235.539 -251.797)" fill="#fce8ae" fill-rule="evenodd"/><path d="M243.128,269.5h3.919l-1.96,12.8Z" transform="translate(-237.337 -255.99)" fill="#fce8ae" fill-rule="evenodd"/><path d="M241.023,254.763a2.518,2.518,0,1,1-2.518,2.518A2.518,2.518,0,0,1,241.023,254.763Z" transform="translate(-236.242 -252.5)" fill="#fff" fill-rule="evenodd" opacity="0.5"/></g><g transform="translate(146.865 117.741)"><path d="M260.069,285.105a7.751,7.751,0,1,0-7.751-7.751A7.766,7.766,0,0,0,260.069,285.105Z" transform="translate(-252.318 -269.603)" fill="#fce8ae" fill-rule="evenodd"/><path d="M259.907,287.306h3.919l-1.96,12.8Z" transform="translate(-254.116 -273.796)" fill="#fce8ae" fill-rule="evenodd"/><path d="M257.8,272.569a2.518,2.518,0,1,1-2.518,2.518A2.518,2.518,0,0,1,257.8,272.569Z" transform="translate(-253.021 -270.306)" fill="#fff" fill-rule="evenodd" opacity="0.5"/></g><g transform="translate(114.724 128.455)"><path d="M217.951,299.144a7.751,7.751,0,1,0-7.751-7.751A7.766,7.766,0,0,0,217.951,299.144Z" transform="translate(-210.2 -283.642)" fill="#fce8ae" fill-rule="evenodd"/><path d="M217.789,301.345h3.919l-1.96,12.8Z" transform="translate(-211.998 -287.835)" fill="#fce8ae" fill-rule="evenodd"/><path d="M215.684,286.609a2.518,2.518,0,1,1-2.518,2.518A2.518,2.518,0,0,1,215.684,286.609Z" transform="translate(-210.903 -284.345)" fill="#fff" fill-rule="evenodd" opacity="0.5"/></g><text transform="translate(138.32 113.335)" fill="#341769" font-size="4" font-family="SegoeUI, Segoe UI"><tspan x="0" y="0">50%</tspan></text><text transform="translate(150.796 126.531)" fill="#341769" font-size="4" font-family="SegoeUI, Segoe UI"><tspan x="0" y="0">30%</tspan></text><text transform="translate(118.654 137.246)" fill="#341769" font-size="4" font-family="SegoeUI, Segoe UI"><tspan x="0" y="0">20%</tspan></text><path d="M250.606,224.431a2.48,2.48,0,0,1,1.466,2.076,2.586,2.586,0,0,1-1.518,2.089,7.479,7.479,0,0,1-3.619.878,7.29,7.29,0,0,1-3.594-.848,2.483,2.483,0,0,1-1.47-2.076,2.591,2.591,0,0,1,1.521-2.089,7.449,7.449,0,0,1,3.616-.877A7.272,7.272,0,0,1,250.606,224.431Z" transform="translate(-102.978 -140.962)" fill="#c23cac" fill-rule="evenodd"/><path d="M264.69,232.557a2.48,2.48,0,0,1,1.466,2.076,2.586,2.586,0,0,1-1.518,2.089,7.47,7.47,0,0,1-3.619.878,7.29,7.29,0,0,1-3.594-.848,2.485,2.485,0,0,1-1.471-2.076,2.592,2.592,0,0,1,1.521-2.089,7.458,7.458,0,0,1,3.616-.877A7.3,7.3,0,0,1,264.69,232.557Z" transform="translate(-106.314 -142.886)" fill="#1eaaba" fill-rule="evenodd"/><path d="M278.774,240.683a2.48,2.48,0,0,1,1.466,2.076,2.584,2.584,0,0,1-1.518,2.088,7.462,7.462,0,0,1-3.619.878,7.29,7.29,0,0,1-3.594-.848,2.485,2.485,0,0,1-1.471-2.076,2.592,2.592,0,0,1,1.521-2.089,7.449,7.449,0,0,1,3.616-.877A7.306,7.306,0,0,1,278.774,240.683Z" transform="translate(-109.65 -144.811)" fill="#3e68c9" fill-rule="evenodd"/><path d="M292.858,248.81a2.48,2.48,0,0,1,1.466,2.076,2.586,2.586,0,0,1-1.518,2.089,7.47,7.47,0,0,1-3.619.878,7.288,7.288,0,0,1-3.594-.848,2.485,2.485,0,0,1-1.471-2.076,2.592,2.592,0,0,1,1.521-2.089,7.458,7.458,0,0,1,3.616-.877A7.305,7.305,0,0,1,292.858,248.81Z" transform="translate(-112.986 -146.736)" fill="#4c2791" fill-rule="evenodd"/><rect width="10.201" height="30.438" transform="translate(171.137 73.755)" fill="#4c2791"/><rect width="10.201" height="21.24" transform="translate(160.389 76.751)" fill="#3e68c9"/><path d="M278.774,212.879a2.48,2.48,0,0,1,1.466,2.076,2.584,2.584,0,0,1-1.518,2.088,7.462,7.462,0,0,1-3.619.878,7.29,7.29,0,0,1-3.594-.848A2.485,2.485,0,0,1,270.038,215a2.592,2.592,0,0,1,1.521-2.089,7.449,7.449,0,0,1,3.616-.877A7.306,7.306,0,0,1,278.774,212.879Z" transform="translate(-109.65 -138.225)" fill="#799ff7" fill-rule="evenodd"/><path d="M292.858,208.953a2.48,2.48,0,0,1,1.466,2.076,2.586,2.586,0,0,1-1.518,2.089,7.47,7.47,0,0,1-3.619.878,7.287,7.287,0,0,1-3.594-.848,2.485,2.485,0,0,1-1.471-2.076,2.592,2.592,0,0,1,1.521-2.089,7.449,7.449,0,0,1,3.616-.877A7.305,7.305,0,0,1,292.858,208.953Z" transform="translate(-112.986 -137.295)" fill="#9169db" fill-rule="evenodd"/><rect width="10.201" height="6.683" transform="translate(138.893 78.862)" fill="#c23cac"/><path d="M250.606,215.646a2.481,2.481,0,0,1,1.466,2.076,2.584,2.584,0,0,1-1.518,2.088,7.462,7.462,0,0,1-3.619.878,7.29,7.29,0,0,1-3.594-.848,2.483,2.483,0,0,1-1.47-2.076,2.591,2.591,0,0,1,1.521-2.089,7.449,7.449,0,0,1,3.616-.877A7.289,7.289,0,0,1,250.606,215.646Z" transform="translate(-102.978 -138.881)" fill="#e070cd" fill-rule="evenodd"/><rect width="10.201" height="41.486" transform="translate(149.641 50.303)" fill="#1eaaba"/><path d="M264.69,178.222a2.48,2.48,0,0,1,1.466,2.076,2.586,2.586,0,0,1-1.518,2.089,7.479,7.479,0,0,1-3.619.878,7.29,7.29,0,0,1-3.594-.848,2.485,2.485,0,0,1-1.471-2.076,2.592,2.592,0,0,1,1.521-2.089,7.458,7.458,0,0,1,3.616-.878A7.306,7.306,0,0,1,264.69,178.222Z" transform="translate(-106.314 -130.016)" fill="#57eeff" fill-rule="evenodd"/><path d="M257.229,247.7l5.883,3.4,2.066-4.589Z" transform="translate(-106.616 -146.391)" fill="#d2defc" fill-rule="evenodd"/><g transform="translate(165.222 169.08)"><path d="M291.717,367.33l1.283-.741q1.492.933,2.975,1.866-.65.372-1.287.741Z" transform="translate(-280.007 -343.915)" fill="#d2defc" fill-rule="evenodd"/><path d="M295.575,365.1c.425-.248.859-.5,1.287-.743l2.97,1.866c-.429.248-.862.5-1.287.743Z" transform="translate(-280.921 -343.387)" fill="#d2defc" fill-rule="evenodd"/><path d="M299.434,362.873c.429-.248.859-.493,1.287-.743l2.97,1.866c-.429.25-.859.5-1.287.743Z" transform="translate(-281.835 -342.859)" fill="#d2defc" fill-rule="evenodd"/><path d="M303.293,360.647l1.292-.746,2.97,1.866c-.429.25-.862.5-1.287.746Q304.782,361.58,303.293,360.647Z" transform="translate(-282.749 -342.331)" fill="#d2defc" fill-rule="evenodd"/><path d="M307.157,358.417c.429-.248.854-.5,1.287-.743l2.97,1.866-1.287.743Q308.641,359.351,307.157,358.417Z" transform="translate(-283.664 -341.803)" fill="#d2defc" fill-rule="evenodd"/><path d="M311.021,356.188q.638-.372,1.284-.743,1.492.933,2.974,1.866l-1.287.743Z" transform="translate(-284.579 -341.275)" fill="#d2defc" fill-rule="evenodd"/><path d="M314.879,353.958l1.287-.743q1.492.933,2.975,1.866c-.433.248-.862.5-1.292.743Z" transform="translate(-285.493 -340.747)" fill="#d2defc" fill-rule="evenodd"/><path d="M318.738,351.729q.643-.367,1.287-.743,1.492.933,2.975,1.866-.643.376-1.287.743Q320.227,352.662,318.738,351.729Z" transform="translate(-286.407 -340.219)" fill="#d2defc" fill-rule="evenodd"/><path d="M322.6,349.5l1.292-.746q1.492.933,2.975,1.866l-1.292.746Q324.086,350.434,322.6,349.5Z" transform="translate(-287.321 -339.691)" fill="#f0f4ff" fill-rule="evenodd"/><path d="M326.461,347.273l1.292-.746q1.492.933,2.975,1.866l-1.292.746Q327.95,348.206,326.461,347.273Z" transform="translate(-288.236 -339.163)" fill="#f0f4ff" fill-rule="evenodd"/><path d="M286.6,364.117l1.283-.741q1.492.933,2.975,1.866c-.433.247-.863.5-1.287.74Z" transform="translate(-278.795 -343.154)" fill="#d2defc" fill-rule="evenodd"/><path d="M290.458,361.889c.425-.247.859-.5,1.287-.746q1.485.936,2.97,1.868c-.429.248-.862.5-1.287.743Z" transform="translate(-279.708 -342.625)" fill="#d2defc" fill-rule="evenodd"/><path d="M294.317,359.66l1.287-.743q1.485.933,2.97,1.866c-.429.25-.859.5-1.287.743Q295.8,360.6,294.317,359.66Z" transform="translate(-280.623 -342.098)" fill="#d2defc" fill-rule="evenodd"/><path d="M298.176,357.434l1.292-.746,2.97,1.866c-.429.25-.862.5-1.287.746Q299.665,358.365,298.176,357.434Z" transform="translate(-281.537 -341.57)" fill="#d2defc" fill-rule="evenodd"/><path d="M302.04,355.2c.429-.245.854-.493,1.287-.743q1.486.936,2.97,1.868l-1.287.743Q303.524,356.137,302.04,355.2Z" transform="translate(-282.452 -341.041)" fill="#d2defc" fill-rule="evenodd"/><path d="M305.9,352.972l1.283-.741q1.492.933,2.975,1.866l-1.287.743Q307.388,353.907,305.9,352.972Z" transform="translate(-283.367 -340.514)" fill="#f0f4ff" fill-rule="evenodd"/><path d="M309.762,350.745l1.287-.743q1.492.933,2.975,1.866c-.433.248-.862.5-1.292.743Z" transform="translate(-284.281 -339.986)" fill="#f0f4ff" fill-rule="evenodd"/><path d="M313.621,348.515l1.287-.743q1.492.933,2.975,1.866-.643.375-1.287.743Q315.11,349.448,313.621,348.515Z" transform="translate(-285.195 -339.458)" fill="#f0f4ff" fill-rule="evenodd"/><path d="M317.48,346.289l1.292-.746q1.492.933,2.975,1.866l-1.292.746Q318.969,347.221,317.48,346.289Z" transform="translate(-286.109 -338.93)" fill="#f0f4ff" fill-rule="evenodd"/><path d="M321.344,344.056l1.292-.746,2.975,1.868-1.291.746Z" transform="translate(-287.024 -338.401)" fill="#f0f4ff" fill-rule="evenodd"/><path d="M281.483,360.9l1.284-.741q1.492.933,2.974,1.866l-1.287.743C283.467,362.146,282.473,361.522,281.483,360.9Z" transform="translate(-277.583 -342.392)" fill="#d2defc" fill-rule="evenodd"/><path d="M285.341,358.673l1.287-.743c.99.622,1.984,1.244,2.97,1.868-.429.248-.862.5-1.287.743C287.326,359.919,286.332,359.3,285.341,358.673Z" transform="translate(-278.496 -341.864)" fill="#d2defc" fill-rule="evenodd"/><path d="M289.2,356.446l1.287-.743c.99.622,1.984,1.244,2.97,1.866-.429.25-.859.5-1.287.743C291.184,357.69,290.19,357.068,289.2,356.446Z" transform="translate(-279.41 -341.336)" fill="#d2defc" fill-rule="evenodd"/><path d="M293.059,354.217l1.292-.746c.99.622,1.984,1.246,2.97,1.868l-1.287.743Q294.548,355.153,293.059,354.217Z" transform="translate(-280.325 -340.808)" fill="#d2defc" fill-rule="evenodd"/><path d="M296.923,351.987l1.287-.743c.99.622,1.984,1.244,2.97,1.868l-1.287.743C298.907,353.231,297.913,352.609,296.923,351.987Z" transform="translate(-281.24 -340.28)" fill="#d2defc" fill-rule="evenodd"/><path d="M300.787,349.755l1.283-.741q1.492.933,2.975,1.866c-.429.25-.859.5-1.287.743C302.771,351,301.777,350.38,300.787,349.755Z" transform="translate(-282.155 -339.752)" fill="#d2defc" fill-rule="evenodd"/><path d="M304.646,347.528l1.287-.743q1.492.933,2.974,1.866l-1.292.746C306.63,348.774,305.636,348.15,304.646,347.528Z" transform="translate(-283.069 -339.224)" fill="#f0f4ff" fill-rule="evenodd"/><path d="M308.5,345.3l1.287-.743q1.492.933,2.974,1.868l-1.287.743Q309.993,346.235,308.5,345.3Z" transform="translate(-283.983 -338.696)" fill="#f0f4ff" fill-rule="evenodd"/><path d="M312.363,343.072l1.292-.746q1.492.933,2.974,1.868c-.433.248-.862.5-1.292.743Q313.852,344.008,312.363,343.072Z" transform="translate(-284.897 -338.168)" fill="#f0f4ff" fill-rule="evenodd"/><path d="M316.227,340.839l1.292-.746,2.975,1.868-1.292.746Z" transform="translate(-285.812 -337.639)" fill="#f0f4ff" fill-rule="evenodd"/><path d="M276.372,357.683l1.283-.741q1.485.936,2.97,1.868l-1.283.741Q277.856,358.618,276.372,357.683Z" transform="translate(-276.372 -341.63)" fill="#d2defc" fill-rule="evenodd"/><path d="M280.23,355.456l1.287-.743q1.485.936,2.97,1.868l-1.287.743Q281.715,356.392,280.23,355.456Z" transform="translate(-277.286 -341.102)" fill="#d2defc" fill-rule="evenodd"/><path d="M284.089,353.23l1.287-.743q1.485.936,2.97,1.868l-1.287.743Q285.574,354.166,284.089,353.23Z" transform="translate(-278.2 -340.574)" fill="#d2defc" fill-rule="evenodd"/><path d="M287.947,351l1.292-.746q1.485.936,2.97,1.868l-1.292.746Q289.432,351.935,287.947,351Z" transform="translate(-279.114 -340.046)" fill="#f0f4ff" fill-rule="evenodd"/><path d="M291.811,348.771l1.287-.743q1.486.936,2.97,1.868l-1.287.743Q293.3,349.707,291.811,348.771Z" transform="translate(-280.029 -339.518)" fill="#f0f4ff" fill-rule="evenodd"/><path d="M295.676,346.538l1.283-.741q1.486.936,2.97,1.868l-1.283.741Q297.16,347.474,295.676,346.538Z" transform="translate(-280.944 -338.99)" fill="#f0f4ff" fill-rule="evenodd"/><path d="M299.534,344.311l1.287-.743q1.485.936,2.97,1.868l-1.287.743Q301.019,345.248,299.534,344.311Z" transform="translate(-281.858 -338.462)" fill="#f0f4ff" fill-rule="evenodd"/><path d="M303.393,342.082l1.287-.743q1.485.936,2.97,1.868l-1.287.743Q304.877,343.018,303.393,342.082Z" transform="translate(-282.772 -337.934)" fill="#f0f4ff" fill-rule="evenodd"/><path d="M307.251,339.855l1.292-.746q1.485.936,2.97,1.868l-1.292.746Q308.736,340.791,307.251,339.855Z" transform="translate(-283.686 -337.406)" fill="#f0f4ff" fill-rule="evenodd"/><path d="M311.115,337.623l1.292-.746q1.486.936,2.97,1.868l-1.292.746Q312.6,338.558,311.115,337.623Z" transform="translate(-284.601 -336.877)" fill="#f0f4ff" fill-rule="evenodd"/></g><text transform="translate(173.055 103.715)" fill="#fff" font-size="3" font-family="SegoeUI, Segoe UI"><tspan x="0" y="0">40%</tspan></text><text transform="translate(162.307 97.854)" fill="#fff" font-size="3" font-family="SegoeUI, Segoe UI"><tspan x="0" y="0">30%</tspan></text><text transform="translate(151.523 91.627)" fill="#fff" font-size="3" font-family="SegoeUI, Segoe UI"><tspan x="0" y="0">70%</tspan></text><text transform="translate(140.811 85.739)" fill="#fff" font-size="3" font-family="SegoeUI, Segoe UI"><tspan x="0" y="0">20%</tspan></text><path d="M266.155,165.631h0v11.182a2.586,2.586,0,0,1-1.518,2.089,7.479,7.479,0,0,1-3.619.878,7.282,7.282,0,0,1-3.594-.849,2.483,2.483,0,0,1-1.47-2.076v-.043h0V165.631a2.592,2.592,0,0,1,1.521-2.089,7.458,7.458,0,0,1,3.616-.878,7.305,7.305,0,0,1,3.6.848,2.48,2.48,0,0,1,1.466,2.076Z" transform="translate(-106.314 -126.532)" fill="#fff" fill-rule="evenodd" opacity="0.5"/><path d="M264.69,163.513a2.48,2.48,0,0,1,1.466,2.076,2.586,2.586,0,0,1-1.518,2.089,7.47,7.47,0,0,1-3.619.878,7.291,7.291,0,0,1-3.594-.848,2.485,2.485,0,0,1-1.471-2.076,2.592,2.592,0,0,1,1.521-2.089,7.458,7.458,0,0,1,3.616-.878A7.306,7.306,0,0,1,264.69,163.513Z" transform="translate(-106.314 -126.532)" fill="#fff" fill-rule="evenodd" opacity="0.5"/><path d="M252.071,157.45h0v45.985a2.586,2.586,0,0,1-1.518,2.089,7.462,7.462,0,0,1-3.619.878,7.291,7.291,0,0,1-3.594-.848,2.483,2.483,0,0,1-1.47-2.076v-.043h0V157.45a2.593,2.593,0,0,1,1.521-2.089,7.458,7.458,0,0,1,3.616-.877,7.305,7.305,0,0,1,3.6.848,2.48,2.48,0,0,1,1.466,2.076Z" transform="translate(-102.978 -124.594)" fill="#fff" fill-rule="evenodd" opacity="0.5"/><path d="M250.606,155.332a2.48,2.48,0,0,1,1.466,2.076,2.586,2.586,0,0,1-1.518,2.089,7.47,7.47,0,0,1-3.619.878,7.29,7.29,0,0,1-3.594-.848,2.485,2.485,0,0,1-1.471-2.076,2.592,2.592,0,0,1,1.521-2.089,7.458,7.458,0,0,1,3.616-.877A7.29,7.29,0,0,1,250.606,155.332Z" transform="translate(-102.978 -124.594)" fill="#fff" fill-rule="evenodd" opacity="0.5"/><path d="M280.238,173.262h0V205.07a2.584,2.584,0,0,1-1.518,2.088,7.462,7.462,0,0,1-3.619.878,7.29,7.29,0,0,1-3.594-.848,2.483,2.483,0,0,1-1.47-2.076v-.043h0V173.262a2.592,2.592,0,0,1,1.521-2.089,7.458,7.458,0,0,1,3.616-.878,7.305,7.305,0,0,1,3.6.848,2.48,2.48,0,0,1,1.466,2.076Z" transform="translate(-109.65 -128.339)" fill="#fff" fill-rule="evenodd" opacity="0.5"/><path d="M278.774,171.144a2.48,2.48,0,0,1,1.466,2.076,2.586,2.586,0,0,1-1.518,2.089,7.462,7.462,0,0,1-3.619.878,7.29,7.29,0,0,1-3.594-.848,2.485,2.485,0,0,1-1.471-2.076,2.594,2.594,0,0,1,1.521-2.089,7.458,7.458,0,0,1,3.616-.878A7.29,7.29,0,0,1,278.774,171.144Z" transform="translate(-109.65 -128.34)" fill="#fff" fill-rule="evenodd" opacity="0.5"/><path d="M294.457,181.743h0l-.134,22.3v.035a2.586,2.586,0,0,1-1.518,2.089,7.471,7.471,0,0,1-3.619.878,7.292,7.292,0,0,1-3.594-.848,2.483,2.483,0,0,1-1.47-2.076v-.043h0l.134-22.3v-.035a2.592,2.592,0,0,1,1.521-2.089,7.449,7.449,0,0,1,3.616-.877,7.3,7.3,0,0,1,3.6.848,2.481,2.481,0,0,1,1.466,2.076Z" transform="translate(-112.986 -130.348)" fill="#fff" fill-rule="evenodd" opacity="0.5"/><path d="M293.034,179.624A2.481,2.481,0,0,1,294.5,181.7a2.586,2.586,0,0,1-1.518,2.089,7.47,7.47,0,0,1-3.619.878,7.29,7.29,0,0,1-3.594-.848,2.485,2.485,0,0,1-1.471-2.076,2.592,2.592,0,0,1,1.521-2.089,7.449,7.449,0,0,1,3.616-.877A7.3,7.3,0,0,1,293.034,179.624Z" transform="translate(-113.028 -130.348)" fill="#fff" fill-rule="evenodd" opacity="0.5"/></g></g></svg>