<svg xmlns="http://www.w3.org/2000/svg" width="59.675" height="54.236" viewBox="0 0 59.675 54.236"><g transform="translate(-16.007 -37.898)"><g transform="translate(16.007 37.898)"><path d="M73.5,81.458c1.017.019,2.151.558,2.164,1.6l.017,2.185a3.365,3.365,0,0,1-1.84,2.795,7.962,7.962,0,0,1-4.02,1.039l-1.449.01a3.939,3.939,0,0,1-7.247,1.075l-.591-1.024-38.61.255a7.941,7.941,0,0,1-4.027-.986,3.354,3.354,0,0,1-1.875-2.777l-.017-2.187c0-1.031,1.129-1.59,2.145-1.624L17.938,49.3h0A3.021,3.021,0,0,1,20.7,46.09l10.2-.082a19,19,0,0,1,31.017-.172l8.579-.074a3.015,3.015,0,0,1,2.8,3.179Z" transform="translate(-16.007 -37.898)" fill-rule="evenodd"/><path d="M79.135,146.312l-33.846.215a.68.68,0,0,1-.684-.678l-.191-29.166a.681.681,0,0,1,.675-.684l7.177-.06a19.2,19.2,0,0,1,.949-1.872h0l.007-.012-9.319.075c-.846.006-1.4.932-1.4,1.848h0l.214,32.514,19.106-.125a.681.681,0,0,1,.684.673c0,.293.257.586.66.824a3.984,3.984,0,0,0,2.01.476l7.737-.051a3.976,3.976,0,0,0,2-.5c.4-.243.649-.54.65-.834a.681.681,0,0,1,.678-.681l3.127-.02-.247-.429h0a1.352,1.352,0,0,1,.058-1.445Z" transform="translate(-39.206 -104.587)" fill="#c7c1b3" fill-rule="evenodd"/><path d="M74.827,140.2l-5.948.05.183,27.806,32.389-.207-.364-.63a1.12,1.12,0,0,1-1.2-.536l-1.249-2.167A18.994,18.994,0,0,1,74.827,140.2Zm-3.271,23.47a.684.684,0,0,1,0-1.367h6.661a.684.684,0,1,1,0,1.367Zm0,2.73a.684.684,0,1,1,0-1.367H81.648a.684.684,0,0,1,0,1.367Z" transform="translate(-62.306 -127.481)" fill="#f3feff" fill-rule="evenodd"/><path d="M393.3,113.965l5.571-.051a.681.681,0,0,1,.686.675l.192,29.168a.681.681,0,0,1-.678.684l-5.43.037,1.121,1.942c2.3-.017,4.609-.045,6.913-.054l-.214-32.514c-.006-.893-.587-1.828-1.43-1.823l-7.7.066a19,19,0,0,1,.972,1.87Z" transform="translate(-345.543 -102.812)" fill="#c7c1b3" fill-rule="evenodd"/><path d="M367.295,166.023l5.525-.037-.183-27.8-4.35.04q.277.766.488,1.553a19.011,19.011,0,0,1-5.64,19.037l1.246,2.161a1.115,1.115,0,0,1-.134,1.308l1.187,2.056a1.349,1.349,0,0,1,1.278.673Z" transform="translate(-319.977 -125.715)" fill="#f3feff" fill-rule="evenodd"/><path d="M420.656,404.053l1.372-.009a6.558,6.558,0,0,0,3.31-.842,2.055,2.055,0,0,0,1.184-1.631l-.014-2.184a1.48,1.48,0,0,0-.88-.242l-7.41.048,1.937,3.357h0A3.914,3.914,0,0,1,420.656,404.053Z" transform="translate(-368.212 -354.232)" fill="#b3b3b3" fill-rule="evenodd"/><path d="M351.755,371.118c1.7,2.95,6.169.374,4.464-2.578l-5.2-9.015L346.55,362.1Z" transform="translate(-305.454 -319.538)" fill="gray" fill-rule="evenodd"/><path d="M66.567,400.015l-3.351.021c-.515,1.372-2.351,2.01-3.881,2.02l-7.737.051c-1.529.01-3.372-.6-3.9-1.969l-19.833.131c-.816.062-.875.079-.87.264L27,402.715a2.071,2.071,0,0,0,1.208,1.608,6.567,6.567,0,0,0,3.327.8l37.832-.249Z" transform="translate(-25.625 -354.994)" fill="#b3b3b3" fill-rule="evenodd"/><path d="M151.4,56.465a.681.681,0,0,1-.118-.172A17.628,17.628,0,1,0,128,81.629h0a17.631,17.631,0,0,0,24.079-6.454h0a17.632,17.632,0,0,0-.678-18.711ZM122.984,58.38a15.962,15.962,0,0,1,21.808-5.841h0a15.965,15.965,0,1,1-15.966,27.65h0a15.962,15.962,0,0,1-5.841-21.809Z" transform="translate(-106.356 -47.387)" fill="#c7c1b3" fill-rule="evenodd"/><path d="M323.131,311.261a18.971,18.971,0,0,1-4.467,2.574l1.01,1.75,4.464-2.577Z" transform="translate(-281.035 -277.275)" fill="#b3b3b3" fill-rule="evenodd"/><path d="M145.446,80.372a14.6,14.6,0,1,0,19.946-5.346,14.6,14.6,0,0,0-19.946,5.346ZM166.64,97.464H149.427a.684.684,0,0,1-.684-.684V88.455a.684.684,0,0,1,.684-.684h5.055V85.448a.684.684,0,0,1,.684-.684h5.054V83.1a.684.684,0,0,1,.684-.684h5.738a.684.684,0,0,1,.684.684V96.782a.684.684,0,0,1-.684.684Zm-14.1-16.983a2.008,2.008,0,0,1,1.84,1.206l1.5-.1a2.009,2.009,0,0,1,2.866-1.213l1.543-1.4a2.007,2.007,0,0,1,3.52-1.886l1.521-.382a.682.682,0,1,1,.331,1.324l-1.519.382a2.009,2.009,0,0,1-2.936,1.572l-1.543,1.4a2.007,2.007,0,1,1-3.7,1.565l-1.5.1a2.009,2.009,0,0,1-2.625,1.322l-2.161,2.558a.682.682,0,1,1-1.041-.881l2.16-2.558a2.009,2.009,0,0,1,1.739-3.009Z" transform="translate(-127.638 -68.696)" fill="#ccfeee" fill-rule="evenodd"/></g><path d="M0,0H3.613V2.186H0Z" transform="matrix(0.866, -0.5, 0.5, 0.866, 55.994, 77.003)" fill="#b3b3b3"/><path d="M212.256,143.867a.64.64,0,1,0,0,.905A.64.64,0,0,0,212.256,143.867Z" transform="translate(-170.893 -92.63)" fill="#f3feff" fill-rule="evenodd"/><path d="M254.629,141.163a.64.64,0,1,0,0,.905A.64.64,0,0,0,254.629,141.163Z" transform="translate(-207.998 -90.262)" fill="#f3feff" fill-rule="evenodd"/><path d="M289.517,109.484a.64.64,0,1,0,0,.905A.64.64,0,0,0,289.517,109.484Z" transform="translate(-238.548 -62.522)" fill="#f3feff" fill-rule="evenodd"/><path d="M196.757,202.325h4.371v6.959h-4.371Z" transform="translate(-158.278 -143.984)" fill="#198be3"/><path d="M242.908,178.142h4.371v9.966h-4.371Z" transform="translate(-198.691 -122.808)" fill="#3397e9"/><path d="M289.059,159.275h4.371v12.311h-4.371Z" transform="translate(-239.104 -106.287)" fill="#51a4ed"/></g></svg>