<svg xmlns="http://www.w3.org/2000/svg" width="49.352" height="49.999" viewBox="0 0 49.352 49.999"><g transform="translate(-19.113 -16.008)"><g transform="translate(19.113 16.008)"><path d="M60.208,39.7l2.883,1.663,5.051,2.916a.573.573,0,0,1,.323.515V56.545h0a.571.571,0,0,1-.285.494l-5.087,2.937h0L60.208,61.64v2.447a1.925,1.925,0,0,1-1.921,1.921h-33a1.925,1.925,0,0,1-1.921-1.921V62.31H21.034a1.925,1.925,0,0,1-1.921-1.921V23.058a.569.569,0,0,1,.164-.4l5.314-6.439a.569.569,0,0,1,.441-.208v0h29a1.925,1.925,0,0,1,1.921,1.921v1.776h2.334a1.925,1.925,0,0,1,1.921,1.921V39.7Z" transform="translate(-19.113 -16.008)" fill-rule="evenodd"/><path d="M373.242,277.641l-9.033,5.215,2.658,1.534,9.033-5.215Z" transform="translate(-328.261 -250.387)" fill="#d1a67b" fill-rule="evenodd"/><path d="M303.82,305.5v3.378a.573.573,0,0,1-1.016.362l-1.12-1.2-.834.268a.571.571,0,0,1-.745-.543h0v-4.412l-2.573-1.485V312.3l9.03,5.215V307.082l-2.74-1.582Zm-4.888,6.142a.571.571,0,0,1,.573-.989l1.843,1.064a.571.571,0,0,1-.573.989Z" transform="translate(-268.528 -272.091)" fill="#b07d4a" fill-rule="evenodd"/><path d="M303.819,305.5v2.545q1.384-.02,2.74-.15v-.813Zm-3.7,2.4a.576.576,0,0,1-.015-.132h0v-4.412l-2.573-1.485v5.684q1.279.222,2.59.346Z" transform="translate(-268.528 -272.091)" fill="#ca9764" fill-rule="evenodd"/><path d="M305.663,249.043l9.034-5.216-2.663-1.537-4.8,2.772h0L303,247.506Z" transform="translate(-273.429 -218.719)" fill="#d1a67b" fill-rule="evenodd"/><path d="M348.554,263.38,339.52,268.6l1.43.825,9.033-5.215Z" transform="translate(-306.144 -237.612)" fill="#f9e4c5" fill-rule="evenodd"/><path d="M333.219,322.474v2.968c.353-.113.723-.308,1.025.016l.4.43V323.3l-1.427-.824Z" transform="translate(-300.499 -290.55)" fill="#f9e4c5" fill-rule="evenodd"/><path d="M277.874,236.838a.571.571,0,0,1,.291-.488l1.825-1.053v-4.9h-3.124v13.825h1.008v-7.369h0v-.009Z" transform="translate(-250.015 -208.06)" fill="#316ac1" fill-rule="evenodd"/><path d="M277.874,236.838a.571.571,0,0,1,.291-.488l1.825-1.053v-4.9h-3.124v12.682q.5.121,1.008.228v-6.455h0v-.009Z" transform="translate(-250.015 -208.06)" fill="#316ac1" fill-rule="evenodd"/><path d="M404.239,301.857l-9.03,5.213V317.5l4.229-2.442h0l4.8-2.772Z" transform="translate(-356.032 -272.081)" fill="#b07d4a" fill-rule="evenodd"/><path d="M404.239,301.857l-9.03,5.213v.686a33.418,33.418,0,0,0,9.03-2.5v-3.4Z" transform="translate(-356.032 -272.081)" fill="#ca9764" fill-rule="evenodd"/><path d="M104.486,456.151a.57.57,0,0,1-.663,0L101.833,455a1.916,1.916,0,0,1-1.364.573H70.949v1.777a.779.779,0,0,0,.776.776h33a.779.779,0,0,0,.776-.776v-1.786Z" transform="translate(-65.549 -409.273)" fill="#b3b3b3" fill-rule="evenodd"/><path d="M62.193,51.211l2.462-1.422V27.776A.78.78,0,0,0,63.88,27H35.613v4.557a1.925,1.925,0,0,1-1.921,1.921H30.1V70.236a.779.779,0,0,0,.776.776h33a.77.77,0,0,0,.281-.053l-1.97-1.136L57.14,66.907a.573.573,0,0,1-.323-.515V63.157H33.842a.573.573,0,0,1,0-1.145h.84V56.585a.573.573,0,0,1,.573-.573h4.269a.573.573,0,0,1,.573.573v5.427h1.247V50.569A.573.573,0,0,1,41.915,50h4.269a.573.573,0,0,1,.573.573V62.012H48V53.08a.573.573,0,0,1,.573-.573h4.269a.573.573,0,0,1,.573.573v8.932h1.247v-14.4a.573.573,0,0,1,.573-.573h4.269a.573.573,0,0,1,.573.573V52.43l2.112-1.219h0Zm-23.871-.795,3.972-4.123a2.021,2.021,0,1,1,3.756-.709l3.139,1.443a2.021,2.021,0,0,1,2.447-.469l3.986-4.18a2.02,2.02,0,1,1,.826.788l-3.986,4.18a2.021,2.021,0,1,1-3.75.718l-3.139-1.443a2.021,2.021,0,0,1-2.456.464l-3.972,4.123a2.02,2.02,0,1,1-.822-.792ZM35.853,36.871a.573.573,0,1,1,0-1.145h6.181a.573.573,0,0,1,0,1.145Zm0,2.9a.573.573,0,0,1,0-1.145h6.181a.573.573,0,0,1,0,1.145Z" transform="translate(-28.96 -25.855)" fill="#e6e6e6" fill-rule="evenodd"/><path d="M65.795,51.211l2.462-1.422V27.776A.78.78,0,0,0,67.481,27H39.214v4.557a1.925,1.925,0,0,1-1.921,1.921H34.125a33.521,33.521,0,0,0,7.9,16.835l3.871-4.019a2.021,2.021,0,1,1,3.756-.709l3.139,1.443a2.021,2.021,0,0,1,2.447-.469l3.986-4.18a2.02,2.02,0,1,1,.826.788l-3.986,4.18a2.021,2.021,0,1,1-3.75.718l-3.139-1.443a2.021,2.021,0,0,1-2.456.464l-3.925,4.075q1.029,1.1,2.152,2.1V50.569A.573.573,0,0,1,45.516,50h4.269a.573.573,0,0,1,.573.573V57.21q.615.361,1.247.7V53.08a.573.573,0,0,1,.573-.573h4.269a.573.573,0,0,1,.573.573v7.115q.618.2,1.247.377V47.614a.573.573,0,0,1,.573-.573h4.269a.573.573,0,0,1,.573.573V52.43l2.112-1.219h0Zm-26.34-14.34a.573.573,0,1,1,0-1.145h6.181a.573.573,0,1,1,0,1.145Zm0,2.9a.573.573,0,0,1,0-1.145h6.181a.573.573,0,0,1,0,1.145Z" transform="translate(-32.561 -25.855)" fill="#fff" fill-rule="evenodd"/><path d="M372.776,80.924l1.473-.85a.57.57,0,0,1,.576,0l1.061.613V63.269a.78.78,0,0,0-.776-.776h-2.334V80.924Z" transform="translate(-335.935 -57.651)" fill="#b3b3b3" fill-rule="evenodd"/><path d="M93.118,260.848a.875.875,0,1,0,0,1.238A.876.876,0,0,0,93.118,260.848Z" transform="translate(-84.07 -235.113)" fill="#5e8ed6" fill-rule="evenodd"/></g><path d="M212.92,282.86h3.124v8.359H212.92Z" transform="translate(-173.618 -239.054)" fill="#447cd0"/><path d="M216.044,289.012V282.86H212.92V287.7A33.473,33.473,0,0,0,216.044,289.012Z" transform="translate(-173.618 -239.054)" fill="#447cd0" fill-rule="evenodd"/><path d="M148.976,258.753H152.1v10.87h-3.124Z" transform="translate(-116.335 -217.459)" fill="#5780bd"/><path d="M152.1,264.122v-5.369h-3.124v3.1A33.772,33.772,0,0,0,152.1,264.122Z" transform="translate(-116.335 -217.459)" fill="#5d8dd7" fill-rule="evenodd"/><path d="M85.031,316.5h3.124v4.855H85.031Z" transform="translate(-59.051 -269.194)" fill="#5e8ed6"/><path d="M36.243,39.394h2.948a.779.779,0,0,0,.776-.776V34.883l-3.724,4.511Z" transform="translate(-15.346 -16.909)" fill="gray" fill-rule="evenodd"/><path d="M221.008,223.85a.875.875,0,1,0,0,1.238.876.876,0,0,0,0-1.238Z" transform="translate(-179.525 -185.961)" fill="#769edc" fill-rule="evenodd"/><path d="M284.953,156.788a.875.875,0,1,0,0,1.238A.876.876,0,0,0,284.953,156.788Z" transform="translate(-236.809 -125.885)" fill="#769edc" fill-rule="evenodd"/><path d="M157.064,194.46a.875.875,0,1,0,0,1.238A.876.876,0,0,0,157.064,194.46Z" transform="translate(-122.242 -159.633)" fill="#769edc" fill-rule="evenodd"/></g></svg>