<svg xmlns="http://www.w3.org/2000/svg" width="44.666" height="44.666" viewBox="0 0 44.666 44.666"><g transform="translate(-1 -1)"><path d="M57.5,31.234A10.8,10.8,0,0,0,47,23V33.806l1.081,1.081,2.882,2.882,3.674,3.674A10.794,10.794,0,0,0,57.5,31.234Z" transform="translate(-12.861 -6.151)" fill="#e6e9ed"/><path d="M42.806,30.2v3.6H32A10.81,10.81,0,0,1,42.806,23Z" transform="translate(-8.667 -6.151)" fill="#ff826e"/><path d="M46.769,41.962l3.674,3.674a10.793,10.793,0,0,1-15.734-.483l.173-1.39h.72a.723.723,0,0,0,.72-.72V41.6a.723.723,0,0,0-.72-.72H32.389A10.828,10.828,0,0,1,32,38H42.806l1.081,1.081Z" transform="translate(-8.667 -10.344)" fill="#fcd770"/><g transform="translate(3.161 33.419)"><path d="M32.944,46l-.173,1.39-.591,4.7L25.07,46Z" transform="translate(-9.891 -46)" fill="#e6e9ed"/><path d="M10.225,58.044H7.177a1.446,1.446,0,0,1-1.434-1.261l-.094-.742,9.56-8.191a2.855,2.855,0,0,0,1.556,0l9.56,8.191-.094.742A1.446,1.446,0,0,1,24.8,58.044H10.225Z" transform="translate(-4.461 -46.517)" fill="#e6e9ed"/><path d="M11.874,46,4.764,52.095,4,46Z" transform="translate(-4 -46)" fill="#e6e9ed"/></g><path d="M2.72,42h9.754a2.874,2.874,0,0,0-.389,1.441,2.814,2.814,0,0,0,.086.7l-.857.742H2.72a.723.723,0,0,1-.72-.72V42.72A.723.723,0,0,1,2.72,42Z" transform="translate(-0.28 -11.463)" fill="#ff826e"/><path d="M33.935,42.72v1.441a.723.723,0,0,1-.72.72H24.62l-.857-.742a2.814,2.814,0,0,0,.086-.7A2.874,2.874,0,0,0,23.46,42h9.754A.723.723,0,0,1,33.935,42.72Z" transform="translate(-6.279 -11.463)" fill="#ff826e"/><path d="M14.191,47.045l-9.56,8.191-.252.216a1.441,1.441,0,0,1-2.032-.158,1.449,1.449,0,0,1,.158-2.032l1.7-1.455,7.111-6.095.857-.742a2.869,2.869,0,0,0,2.017,2.075Z" transform="translate(-0.281 -12.293)" fill="#d3a06c"/><path d="M33.262,54.249a1.383,1.383,0,0,1-.339,1.045,1.441,1.441,0,0,1-2.032.158l-.252-.216-9.56-8.191A2.869,2.869,0,0,0,23.1,44.97l.857.742,7.111,6.095,1.7,1.455A1.415,1.415,0,0,1,33.262,54.249Z" transform="translate(-5.614 -12.293)" fill="#d3a06c"/><path d="M21.323,31.65v7a2.874,2.874,0,0,0-4.323,0v-7a9.389,9.389,0,0,0,4.323,0Z" transform="translate(-4.473 -8.569)" fill="#969faa"/><path d="M14.2,24.479a9.389,9.389,0,1,1,2.161.252A9.366,9.366,0,0,1,14.2,24.479Z" transform="translate(-1.678 -1.398)" fill="#fcd770"/><path d="M22.4,12.269A6.479,6.479,0,1,1,17.484,10,6.452,6.452,0,0,1,22.4,12.269Z" transform="translate(-2.796 -2.516)" fill="#69d6f4"/><path d="M16.72,40.98a2.874,2.874,0,0,1,4.323,0,2.575,2.575,0,0,1,.331.461,2.874,2.874,0,0,1,.389,1.441,2.814,2.814,0,0,1-.086.7,2.869,2.869,0,0,1-2.017,2.075,2.855,2.855,0,0,1-1.556,0,2.869,2.869,0,0,1-2.017-2.075,2.814,2.814,0,0,1-.086-.7,2.874,2.874,0,0,1,.389-1.441A2.575,2.575,0,0,1,16.72,40.98Z" transform="translate(-4.194 -10.904)" fill="#ff826e"/><path d="M20.8,16.756a2.135,2.135,0,0,1,.519,1.4,2.161,2.161,0,1,1-.519-1.4Z" transform="translate(-4.473 -4.194)" fill="#ff826e"/><circle cx="0.5" cy="0.5" r="0.5" transform="translate(14.333 31.333)"/><path d="M34.139,16.129a11.516,11.516,0,0,0-11.32,13.688H17.57V23.628A10.058,10.058,0,0,0,22.783,7.977L24.736,6.3l3.64,3.64L34.86,3.46V7.484H36.3V1H29.817V2.441h4.024L28.376,7.906,24.811,4.341,21.852,6.879a10.081,10.081,0,1,0-10.046,16.75v6.188H2.441A1.442,1.442,0,0,0,1,31.258V32.7a1.442,1.442,0,0,0,1.441,1.441h.084l.635,5.079-1.4,1.2a2.153,2.153,0,0,0,2.051,3.7,2.163,2.163,0,0,0,2.068,1.547H23.5a2.162,2.162,0,0,0,2.068-1.547,2.131,2.131,0,0,0,.644.106,2.161,2.161,0,0,0,1.406-3.8l-1.406-1.2.36-2.881a11.522,11.522,0,1,0,7.564-20.209Zm2.1,12.607L42.672,22.3a10.015,10.015,0,0,1,1.154,2.572L38.1,30.6ZM34.86,17.606a9.99,9.99,0,0,1,3.707,1L34.86,22.314Zm6.952,3.519L35.22,27.717l-.36-.36V24.352l5-5A10.131,10.131,0,0,1,41.812,21.126Zm-8.393-3.519v9.329H24.09A10.086,10.086,0,0,1,33.419,17.606ZM18.608,32.7l-.36-.309a3.5,3.5,0,0,0,.042-.411,3.6,3.6,0,0,0-.073-.72h8.718V32.7Zm-3.921,1.441a2.161,2.161,0,1,1,2.161-2.161A2.164,2.164,0,0,1,14.688,34.139ZM6.043,13.968a8.639,8.639,0,0,1,14.712-6.15l-1.1.944a7.2,7.2,0,1,0,.939,1.092l1.1-.939A8.64,8.64,0,1,1,6.043,13.968Zm14.408,0a5.786,5.786,0,1,1-1.9-4.262l-2.22,1.9a2.952,2.952,0,1,0,.932,1.1L19.5,10.8A5.729,5.729,0,0,1,20.451,13.968Zm-4.323,0a1.441,1.441,0,1,1-1.441-1.441A1.442,1.442,0,0,1,16.129,13.968ZM14.688,24.053a10,10,0,0,0,1.441-.115v4.743a3.551,3.551,0,0,0-2.882,0V23.938A10,10,0,0,0,14.688,24.053Zm-12.247,7.2h8.718a3.6,3.6,0,0,0-.073.72,3.532,3.532,0,0,0,.042.412l-.36.308H2.441Zm1.537,2.882H9.087L4.472,38.094ZM2.614,42.532a.7.7,0,0,1-.171-.524.716.716,0,0,1,.249-.492l8.937-7.66a3.623,3.623,0,0,0,.983,1.055l-8.982,7.7A.739.739,0,0,1,2.614,42.532ZM23.5,44.225h-2.33V41.343H19.731v2.882H18.29V39.9H16.849v4.323H15.408V38.462H13.968v5.763H12.527V39.9H11.086v4.323H9.645V41.343H8.2v2.882H5.874a.722.722,0,0,1-.715-.631l-.045-.359,9-7.714a2.854,2.854,0,0,0,1.148,0l9,7.714-.045.358A.723.723,0,0,1,23.5,44.225Zm3.431-2.216a.707.707,0,0,1-.173.525.739.739,0,0,1-1.015.076l-8.981-7.7a3.613,3.613,0,0,0,.983-1.055l8.938,7.662a.712.712,0,0,1,.248.491Zm-6.643-7.87H25.4L24.9,38.1Zm6.509.416.052-.416h.084A1.442,1.442,0,0,0,28.376,32.7V31.258a1.442,1.442,0,0,0-1.441-1.441H24.289a10.2,10.2,0,0,1-.209-1.441h9.761l6.893,6.893A10.041,10.041,0,0,1,26.8,34.556Zm14.954-.305L39.12,31.618l5.044-5.045a10.14,10.14,0,0,1,.061,1.083A10.03,10.03,0,0,1,41.753,34.25Z"/><path d="M42.485,28.212l-.543-1.334a8.605,8.605,0,0,0-1.395.721l.776,1.215a7.3,7.3,0,0,1,1.162-.6Z" transform="translate(-11.057 -7.235)"/><path d="M39.4,30.268l-.981-1.054a8.668,8.668,0,0,0-1.047,1.168l1.156.861a7.286,7.286,0,0,1,.873-.975Z" transform="translate(-10.169 -7.888)"/><path d="M36.838,34.551a7.2,7.2,0,0,1,.469-1.22l-1.292-.638a8.619,8.619,0,0,0-.563,1.465Z" transform="translate(-9.632 -8.861)"/><path d="M41.918,48.367a8.539,8.539,0,0,0,1.477.533l.364-1.395a7.219,7.219,0,0,1-1.23-.443Z" transform="translate(-11.44 -12.878)"/><path d="M46.771,47.984c-.187,0-.367-.006-.548-.019L46.118,49.4c.216.016.439.028.653.023a8.462,8.462,0,0,0,.915-.049l-.154-1.432A7.369,7.369,0,0,1,46.771,47.984Z" transform="translate(-12.614 -13.125)"/><path d="M51.074,46.91a7.3,7.3,0,0,1-1.215.487l.412,1.38a8.579,8.579,0,0,0,1.457-.584Z" transform="translate(-13.66 -12.836)"/></g></svg>