<svg xmlns="http://www.w3.org/2000/svg" width="90.914" height="90.914" viewBox="0 0 90.914 90.914"><g transform="translate(-770.158 -3228.399)"><g transform="translate(770.158 3228.398)"><rect width="90.914" height="90.914" rx="45.457" transform="translate(0 0)" fill="#98b7ca" opacity="0.859"/><rect width="90.914" height="90.914" rx="45.457" transform="translate(0 0)" fill="none"/></g><g transform="translate(877.325 3335.137)"><g transform="translate(-91.899 -91.844)"><circle cx="21.614" cy="21.614" r="21.614" transform="translate(0 30.563) rotate(-45)" fill="#4677d5"/><g transform="translate(11.168 8.948)"><path d="M86.066,32.215A21.615,21.615,0,0,1,66.033,53.772a21.614,21.614,0,0,1,0-43.113A21.615,21.615,0,0,1,86.066,32.215Z" transform="translate(-45.052 -10.601)" fill="#5c85da" fill-rule="evenodd"/><path d="M35.4,21.7A21.612,21.612,0,0,1,54.607,10a21.83,21.83,0,0,1,2.752.174c-.121.691-1.155,1.3-.824,1.726.22.283,5.133,2.25-1.293,2.25-2.653,0-4.37.568-2.182,3.537,3.031,4.111-6.421,3.635-6.582,5.337-.358,3.788-1.385,2.029-1.838,3.6-.708,2.461-3.074,2.624-2.907,4.305.627,6.305-8.093,4.544-2.3-3.53.923-1.286,1.327-3.247-.424-2.079-4.285,2.86-3.97-2.9-3.613-3.625Z" transform="translate(-35.207 -10)" fill="#98d16f" fill-rule="evenodd"/><path d="M73.395,10.654q.587.043,1.164.116c-.121.691-1.155,1.3-.824,1.726.22.283,5.133,2.25-1.293,2.25-2.653,0-4.37.568-2.182,3.537,3.031,4.111-6.421,3.635-6.582,5.337-.358,3.788-1.385,2.029-1.838,3.6-.708,2.461-3.074,2.624-2.907,4.305.627,6.305-8.093,4.544-2.3-3.53.923-1.286,1.327-3.247-.424-2.079a3.613,3.613,0,0,1-2.146.785A21.628,21.628,0,0,1,73.395,10.654Z" transform="translate(-52.407 -10.597)" fill="#a9e082" fill-rule="evenodd"/><path d="M36.428,335.43a5.107,5.107,0,0,1,1.926-.274,10.965,10.965,0,0,0,3.344.124c1.6-.5,3.883,1.119,4.228,2.142,1.038,1.731,2.595,2.078,4.707,2.271a5.783,5.783,0,0,0,4.426-1.216c.579-.516-.681-1.039-1.888-1.5-2.8-1.073-1.512-1.728.262-2.132,4.238-.964,4.328.808,6.066.706,3.132-.184,5.205-1.527,5.775-2.764.45-.978,2.035-.088,1.1,1.932-.689,1.493.034,1.558.351,2a2.793,2.793,0,0,0,1.405.176c1.948-.441,1.157,2.305,2.648,4.288a21.616,21.616,0,0,1-34.354-5.746Z" transform="translate(-36.321 -304.061)" fill="#98d16f" fill-rule="evenodd"/><path d="M71.621,335.287a5.891,5.891,0,0,0,2.178-.007c1.6-.5,3.883,1.119,4.228,2.142,1.038,1.731,2.594,2.078,4.707,2.271a5.783,5.783,0,0,0,4.426-1.216c.579-.516-.681-1.039-1.888-1.5-2.8-1.073-1.512-1.728.262-2.132,4.238-.964,4.328.808,6.066.706,3.132-.184,5.205-1.527,5.775-2.764.45-.978,2.035-.088,1.1,1.932-.689,1.493.034,1.558.351,2a2.793,2.793,0,0,0,1.405.176c1.948-.441,1.157,2.305,2.648,4.288a21.54,21.54,0,0,1-13.476,6.056,21.621,21.621,0,0,1-17.786-11.945Z" transform="translate(-68.422 -304.061)" fill="#a9e082" fill-rule="evenodd"/><path d="M382.247,65.85c0,.175,0,.349-.007.522-.527.063-3.024.678-2.673,2.005.65,2.461-2.132,4.436-2.711,1.578a5.994,5.994,0,0,0-1.295-2.369c-.485-.607-1.021-1.18-1.462-1.69-3.052-3.524-.065-7.166,1.032-8.434.591-.683-.6-2.129-1.374-2.462-.8-.346-1.736-.632-.752-1.384.382-.292,2.85.665,1.033-1.495-.893-1.061-2.436-1.61-2.808-2.225-1.059-1.749-.36-1.936.881-2.364A21.6,21.6,0,0,1,382.247,65.85Z" transform="translate(-341.233 -44.236)" fill="#a9e082" fill-rule="evenodd"/><path d="M96.034,107.772c-.846-1.186-2.592-3.3-1.232-4.656a1.748,1.748,0,0,1,2.464,0c1.36,1.36-.386,3.47-1.232,4.656Z" transform="translate(-89.108 -94.471)" fill="#fd7a6e" fill-rule="evenodd"/><path d="M432.028,203.875c-.846-1.186-2.592-3.3-1.232-4.656a1.748,1.748,0,0,1,2.464,0C434.621,200.58,432.874,202.689,432.028,203.875Z" transform="translate(-395.581 -182.13)" fill="#fd7a6e" fill-rule="evenodd"/><path d="M253.3,420c-.846-1.186-2.592-3.3-1.232-4.656a1.748,1.748,0,0,1,2.464,0C255.888,416.7,254.141,418.811,253.3,420Z" transform="translate(-232.552 -379.263)" fill="#fd7a6e" fill-rule="evenodd"/><path d="M311.572,353.006c-.846-1.186-2.592-3.3-1.232-4.656a1.748,1.748,0,0,1,2.464,0C314.165,349.711,312.418,351.82,311.572,353.006Z" transform="translate(-285.709 -318.158)" fill="#fd7a6e" fill-rule="evenodd"/><path d="M154.62,56.772c-.846-1.186-2.592-3.3-1.232-4.656a1.748,1.748,0,0,1,2.464,0c1.36,1.36-.386,3.47-1.232,4.656Z" transform="translate(-142.547 -47.952)" fill="#fd7a6e" fill-rule="evenodd"/><path d="M283.777,32.938c-3.756-5.266-11.515-14.637-5.473-20.68a7.762,7.762,0,0,1,10.945,0h0C295.292,18.3,287.533,27.672,283.777,32.938Z" transform="translate(-254.913 -10)" fill="#fb695b" fill-rule="evenodd"/><path d="M298.18,10.486a7.7,7.7,0,0,1,4.66,2.215h0c6.043,6.043-1.716,15.414-5.473,20.68-3.756-5.266-9.89-14.637-3.847-20.68a7.7,7.7,0,0,1,4.66-2.215Z" transform="translate(-268.503 -10.443)" fill="#fd7a6e" fill-rule="evenodd"/></g><circle cx="5.645" cy="5.645" r="5.645" transform="translate(34.387 10.961)" fill="#fad51b"/><path d="M322.8,33.571a5.645,5.645,0,1,1-4.832,5.586A5.646,5.646,0,0,1,322.8,33.571Z" transform="translate(-281.96 -22.552)" fill="#ffe54e" fill-rule="evenodd"/><path d="M95.8,207.741c-3.753-5.262-11.506-14.625-5.468-20.663a7.756,7.756,0,0,1,10.936,0h0C107.3,193.116,99.55,202.479,95.8,207.741Z" transform="translate(-72.288 -160.514)" fill="#fb695b" fill-rule="evenodd"/><path d="M108.523,116.228a.527.527,0,1,1,0,1.054h-.008a.527.527,0,1,1,0-1.054Z" transform="translate(-90.425 -97.946)" fill="#88d453" fill-rule="evenodd"/><path d="M265.784,428.452a.527.527,0,1,1,0,1.054h-.008a.527.527,0,1,1,0-1.054Z" transform="translate(-233.869 -382.737)" fill="#88d453" fill-rule="evenodd"/><path d="M324.06,361.461a.527.527,0,1,1,0,1.054h-.008a.527.527,0,1,1,0-1.054Z" transform="translate(-287.025 -321.632)" fill="#88d453" fill-rule="evenodd"/><path d="M444.517,212.331a.527.527,0,1,1,0,1.054h-.008a.527.527,0,0,1,0-1.054Z" transform="translate(-396.898 -185.605)" fill="#88d453" fill-rule="evenodd"/><path d="M167.109,65.227a.527.527,0,1,1,0,1.054H167.1a.527.527,0,1,1,0-1.054Z" transform="translate(-143.864 -51.426)" fill="#88d453" fill-rule="evenodd"/><path d="M340.867,56.84a.527.527,0,0,1-1.054,0v-.453a2.342,2.342,0,0,1-1.036-.51,1.914,1.914,0,0,1-.688-1.452.527.527,0,1,1,1.054,0,.874.874,0,0,0,.322.657,1.4,1.4,0,0,0,1.751,0,.874.874,0,0,0,.322-.657c0-.69-.635-.83-1.255-.967-1-.22-1.97-.435-1.97-1.823a1.733,1.733,0,0,1,.623-1.315,2.1,2.1,0,0,1,.878-.447v-.46a.527.527,0,0,1,1.054,0v.46a2.1,2.1,0,0,1,.878.447,1.734,1.734,0,0,1,.623,1.315.527.527,0,1,1-1.054,0,.693.693,0,0,0-.256-.52,1.153,1.153,0,0,0-1.435,0,.693.693,0,0,0-.256.52c0,.545.565.67,1.142.8,1.029.227,2.083.46,2.083,1.992a1.914,1.914,0,0,1-.688,1.452,2.34,2.34,0,0,1-1.036.51v.453Z" transform="translate(-300.308 -36.521)" fill="#ffbd1c" fill-rule="evenodd"/><path d="M110.133,185.1a7.7,7.7,0,0,1,4.66,2.215h0c6.043,6.043-1.716,15.414-5.473,20.68-3.756-5.266-9.89-14.637-3.847-20.68a7.7,7.7,0,0,1,4.66-2.215Z" transform="translate(-85.811 -160.762)" fill="#fd7a6e" fill-rule="evenodd"/><circle cx="5.64" cy="5.64" r="5.64" transform="matrix(0.936, -0.353, 0.353, 0.936, 17.874, 28.677)" fill="#fd7a6e"/><circle cx="5.64" cy="5.64" r="5.64" transform="translate(16.236 28.692) rotate(-20.791)" fill="#dbe2ec"/><path d="M134.707,208.936a5.645,5.645,0,0,1,0,11.172,5.645,5.645,0,0,1,0-11.172Z" transform="translate(-110.389 -182.509)" fill="#f3f5fb" fill-rule="evenodd"/><path d="M137.328,243.441l.381-1.561h-3.445l.381,1.561Zm-.188,1.385a.527.527,0,0,1,0,1.054h-.008a.527.527,0,0,1,0-1.054Zm-2.3,0a.527.527,0,0,1,0,1.054h-.008a.527.527,0,0,1,0-1.054Zm-1.768-3.391-.194-.793a.131.131,0,0,0-.037-.07.035.035,0,0,0-.023-.007h-.3a.527.527,0,1,1,0-1.054h.3a1.078,1.078,0,0,1,.7.258,1.179,1.179,0,0,1,.383.626l.105.432h4.372v0a.526.526,0,0,1,.511.649l-.628,2.574a.527.527,0,0,1-.521.445h-3.507v0a.526.526,0,0,1-.511-.4l-.628-2.571a.526.526,0,0,1-.021-.086Z" transform="translate(-112.323 -210.396)" fill="#5c85da" fill-rule="evenodd"/></g><path d="M18.616,30.536a.524.524,0,0,1-.523.527h-.008a.527.527,0,1,1,.531-.527Zm2.3,0a.524.524,0,0,1-.523.527h-.008a.527.527,0,1,1,.531-.527Zm-.337-1.912H17.9l-.381-1.561h3.441Zm1.052-2.615h-4.37l-.106-.433a1.129,1.129,0,0,0-1.083-.883h-.3a.527.527,0,1,0,0,1.054h.3c.023,0,.047.033.059.078l.2.835h0l.638,2.615a.527.527,0,0,0,.512.4h3.507a.527.527,0,0,0,.512-.4l.639-2.615a.527.527,0,0,0-.512-.652Zm-2.546,6.643a5.113,5.113,0,1,0-5.113-5.113A5.119,5.119,0,0,0,19.084,32.652Zm0-11.28a6.167,6.167,0,1,0,6.167,6.167A6.174,6.174,0,0,0,19.084,21.372Zm14.27-7.889a.527.527,0,0,1,1.054,0,1.226,1.226,0,0,0,2.395,0c0-.631-.326-.759-1.255-.965-.784-.173-1.97-.435-1.97-1.825a1.872,1.872,0,0,1,1.5-1.762v-.46a.527.527,0,0,1,1.054,0v.46a1.872,1.872,0,0,1,1.5,1.762.527.527,0,1,1-1.054,0,1,1,0,0,0-1.947,0c0,.479.23.593,1.143.8.829.183,2.083.46,2.083,1.994a2.081,2.081,0,0,1-1.725,1.962V15.9a.527.527,0,0,1-1.054,0v-.453a2.08,2.08,0,0,1-1.724-1.962Zm2.252-6.415a5.117,5.117,0,1,0,5.117,5.117A5.123,5.123,0,0,0,35.606,7.068Zm0,11.289a6.172,6.172,0,1,0-6.172-6.172A6.179,6.179,0,0,0,35.606,18.357ZM18.819,10.435h-.008a.527.527,0,1,1,.008,0Zm-.863-1.37c-.8.8-.062,2.091.859,3.383.921-1.292,1.66-2.583.859-3.383a1.22,1.22,0,0,0-1.719,0Zm.43,4.589a.527.527,0,0,0,.858,0c.068-.1.142-.2.22-.3.944-1.3,2.524-3.463.956-5.031a2.275,2.275,0,0,0-3.21,0c-1.568,1.568.012,3.736.956,5.031.078.107.152.208.22.3ZM32.609,36.462H32.6a.527.527,0,1,1,.008,0Zm-4.6,5.359a.524.524,0,0,1-.523.527h-.008a.527.527,0,1,1,.531-.527Zm-.527,2.54c.921-1.291,1.66-2.582.859-3.383a1.22,1.22,0,0,0-1.719,0C25.825,41.779,26.564,43.07,27.485,44.361Zm0-4.791a2.254,2.254,0,0,0-1.6.662c-1.568,1.568.012,3.737.956,5.032.078.106.152.207.22.3a.527.527,0,0,0,.859,0c.068-.1.142-.2.22-.3.944-1.295,2.524-3.463.956-5.032a2.254,2.254,0,0,0-1.6-.662ZM43.716,22.832a.524.524,0,0,1-.523.527h-.008a.527.527,0,1,1,.531-.527Zm-.527,2.54c.921-1.292,1.66-2.583.859-3.383a1.22,1.22,0,0,0-1.719,0C41.529,22.79,42.268,24.081,43.189,25.373Zm0-4.791a2.254,2.254,0,0,0-1.6.663c-1.568,1.568.012,3.736.956,5.031.078.106.152.208.22.3a.527.527,0,0,0,.859,0c.068-.1.142-.2.219-.3.944-1.3,2.524-3.463.956-5.031a2.253,2.253,0,0,0-1.6-.663ZM13.671,14.916h-.008a.527.527,0,1,1,.008,0Zm-.863-1.37c-.8.8-.061,2.091.859,3.383.921-1.292,1.66-2.583.859-3.383a1.217,1.217,0,0,0-1.719,0Zm.43,4.589c-.068-.1-.142-.2-.22-.3-.944-1.3-2.524-3.463-.956-5.031a2.272,2.272,0,0,1,3.21,0c1.568,1.568-.012,3.736-.956,5.031-.078.107-.152.208-.22.3a.527.527,0,0,1-.858,0Zm31.544,9.447a1.459,1.459,0,0,0-.216,1.223,2.146,2.146,0,0,1-.492,2.064.7.7,0,0,1-.637.247c-.24-.075-.448-.439-.556-.972a6.315,6.315,0,0,0-1.4-2.593c-.339-.424-.691-.821-1.033-1.2-.154-.173-.3-.34-.442-.5a4.831,4.831,0,0,1-1.1-2.066,34.591,34.591,0,0,0,3.983-7.1,15.281,15.281,0,0,0,.705-2.382,20.871,20.871,0,0,1,3.635,11.84c0,.029,0,.057,0,.086a4.312,4.312,0,0,0-2.445,1.353ZM41.3,40.8a20.923,20.923,0,0,0,5.9-13.478,3.083,3.083,0,0,0-1.54.849.407.407,0,0,0-.069.361,3.189,3.189,0,0,1-.783,3.1,1.854,1.854,0,0,1-1.261.554,1.4,1.4,0,0,1-.42-.064c-.446-.14-1.028-.56-1.274-1.769a5.375,5.375,0,0,0-1.19-2.144c-.321-.4-.665-.788-1-1.161-.157-.177-.309-.348-.452-.512a6.264,6.264,0,0,1-1.061-1.682c-.385.538-.764,1.058-1.126,1.555-.351.481-.682.935-.987,1.363a.527.527,0,0,1-.858,0c-.3-.428-.636-.882-.987-1.363-2.014-2.763-4.52-6.2-5.866-9.725-1.1-2.871-1.228-5.382-.4-7.5-.345.017-.727.025-1.145.025-1.9,0-2.464.326-2.6.6-.086.17-.175.714.845,2.1a2.551,2.551,0,0,1,.6,2.389c-.508,1.414-2.68,1.958-4.6,2.439-.668.167-1.3.325-1.779.5-.568.207-.684.354-.7.383a9.256,9.256,0,0,1-.311,1.792,8.409,8.409,0,0,1,.857-.044,8.2,8.2,0,0,1,5.841,2.41C27.5,24.343,27.98,27.8,26.36,32.034a23.567,23.567,0,0,1-1.145,2.509,5.372,5.372,0,0,1,3.436.6,2.243,2.243,0,0,0,1.238.348c.165-.01.33-.024.493-.041a2.176,2.176,0,0,1,.617-1.1,2.274,2.274,0,0,1,3.082-.117,3.216,3.216,0,0,0,1.134-1.2,1.144,1.144,0,0,1,.936-.7,1.26,1.26,0,0,1,1.134.569,2.422,2.422,0,0,1-.01,2.5c-.377.816-.25.928-.021,1.132.054.047.113.1.171.158.07.021.138.044.2.068a1.279,1.279,0,0,0,.806.078c1.652-.373,1.98,1,2.244,2.11A7.86,7.86,0,0,0,41.3,40.8Zm-9.551-5.71c-.8.8-.062,2.091.859,3.383.921-1.291,1.66-2.582.859-3.383a1.216,1.216,0,0,0-1.719,0Zm-5.6,12.137A21.1,21.1,0,0,1,7.631,36.235a3.975,3.975,0,0,1,1.1-.087c.255.021.536.055.834.091a7.061,7.061,0,0,0,2.712.009,2.574,2.574,0,0,1,1.793.26c1.157,1.893,2.456,3.677,3.6,5.242.35.48.681.934.986,1.361a.526.526,0,0,0,.859,0c.3-.427.636-.881.986-1.361q.372-.51.764-1.051c.167.01.333.017.5.017a6.027,6.027,0,0,0,4.073-1.38.847.847,0,0,0,.308-.806c-.123-.67-1.04-1.075-2.325-1.567q.392-.624.762-1.263a4.85,4.85,0,0,1,3.6.386,3.352,3.352,0,0,0,1.6.462q.085,0,.174-.005c.152-.009.3-.021.454-.035a8.417,8.417,0,0,0,1.551,2.871c.078.106.152.208.22.3a.528.528,0,0,0,.858,0c.068-.1.142-.2.22-.3.8-1.1,2.069-2.84,1.456-4.3a4.179,4.179,0,0,0,1.464-1.605c.028-.061.058-.09.075-.092a.258.258,0,0,1,.176.128,1.532,1.532,0,0,1-.106,1.454c-.651,1.411-.24,1.94.238,2.363a1.291,1.291,0,0,1,.164.163.529.529,0,0,0,.4.218c.028.005.1.031.157.05a2.32,2.32,0,0,0,1.39.113c.539-.121.661-.034.986,1.327a8.011,8.011,0,0,0,.861,2.372A20.938,20.938,0,0,1,26.141,47.23ZM5.054,26.142A20.988,20.988,0,0,1,6.33,18.917a3.125,3.125,0,0,0,.892,1.775c.593.521,1.7.874,3.616-.4a2.448,2.448,0,0,1,.392-.221,3.848,3.848,0,0,1-.689,1.553c-3,4.186-2.064,6.395-1.52,7.15A2.4,2.4,0,0,0,10.978,29.8c.051,0,.1,0,.152-.006a15.39,15.39,0,0,0,.677,2.245,24.827,24.827,0,0,0,1.482,3.135,2.906,2.906,0,0,0-1.327.075,6.688,6.688,0,0,1-2.269-.051c-.308-.037-.6-.073-.874-.1a5.163,5.163,0,0,0-1.685.172,20.963,20.963,0,0,1-2.079-9.126ZM25,38.663a5.005,5.005,0,0,1-2.989.994c.408-.578.82-1.176,1.224-1.789l.172.067A9.733,9.733,0,0,1,25,38.663ZM23.765,35a.583.583,0,0,1,.04-.07c2.445-4.307,3.814-8.973.374-12.413a7.184,7.184,0,0,0-5.1-2.107,7.271,7.271,0,0,0-1.674.2.522.522,0,0,1-.106.026,7.162,7.162,0,0,0-3.316,1.885c-3.672,3.672-1.865,8.741.882,13.281a.484.484,0,0,1,.038.062c1.154,1.9,2.469,3.7,3.612,5.271l.563.775.563-.775c.923-1.265,1.957-2.685,2.929-4.184a.486.486,0,0,1,.032-.048c.4-.621.791-1.256,1.158-1.9ZM7.386,16.509c-.152.478-.289,2.694.544,3.4.573.487,1.58,0,2.323-.5.788-.526,1.383-.59,1.769-.19.648.671-.018,2.17-.624,3.015-2.128,2.965-2.181,5-1.521,5.92a1.347,1.347,0,0,0,1.074.584,7.979,7.979,0,0,1,2.292-6.97,8.179,8.179,0,0,1,3.721-2.138,4.559,4.559,0,0,0,.525-2.131c.094-1,1.5-1.35,3.273-1.8,1.578-.4,3.543-.888,3.861-1.772.127-.354-.025-.828-.452-1.407-1.033-1.4-1.331-2.419-.937-3.2C23.759,8.29,25.32,8.15,26.778,8.15c.662,0,1.224-.022,1.677-.065q.178-.3.384-.59c-.2-.119-.4-.231-.563-.323a1.977,1.977,0,0,1-.622-.422c-.44-.566.021-1.137.325-1.514l.076-.1q-.952-.085-1.914-.086A21.109,21.109,0,0,0,7.387,16.509ZM28.8,5.9a4.129,4.129,0,0,0,.436-.617q.766.113,1.521.281a8.3,8.3,0,0,0-1,.85c-.085.085-.168.172-.249.259-.253-.16-.513-.3-.724-.422l-.182-.1c.058-.081.135-.177.194-.25Zm6.806-.843a7.161,7.161,0,0,0-5.1,2.1c-5.231,5.231.646,13.294,4.536,18.629l.564.776.564-.775c.552-.758,1.145-1.57,1.74-2.422l0-.007c3.593-5.145,7.277-11.714,2.791-16.2a7.161,7.161,0,0,0-5.1-2.1Zm8.2,7.731a7.884,7.884,0,0,0-2.351-6.374A8.315,8.315,0,0,0,32.045,4.8a22,22,0,0,0-3.056-.614h0l-.054-.007A22.39,22.39,0,0,0,26.141,4,22.141,22.141,0,0,0,10.485,41.8a22,22,0,0,0,15.656,6.485h0a22.142,22.142,0,0,0,17.66-35.5Z" transform="translate(-87.473 -87.424)" fill="#242222" fill-rule="evenodd"/></g></g></svg>