<svg xmlns="http://www.w3.org/2000/svg" width="60.033" height="49.999" viewBox="0 0 60.033 49.999"><g transform="translate(-9.007 -50.289)"><path d="M138.482,380.343h5.366v9.038h-5.366Z" transform="translate(-113.74 -289.944)" fill="#ffd064"/><path d="M226.8,308.688h5.366v17.746H226.8Z" transform="translate(-191.324 -226.997)" fill="#00e499"/><path d="M403.432,302.567H408.8v18.49h-5.366Z" transform="translate(-346.492 -221.619)" fill="#fd4755"/><path d="M315.115,224.285h5.366v28h-5.366Z" transform="translate(-268.908 -152.851)" fill="#57a4ff"/><path d="M145.819,327.227a1.854,1.854,0,1,0,1.341-.574A1.848,1.848,0,0,0,145.819,327.227Z" transform="translate(-119.735 -242.778)" fill="#ffd064" fill-rule="evenodd"/><path d="M410.733,242.161a1.854,1.854,0,1,0,1.378-.614A1.847,1.847,0,0,0,410.733,242.161Z" transform="translate(-352.487 -168.015)" fill="#fd4755" fill-rule="evenodd"/><circle cx="8.934" cy="8.934" r="8.934" transform="translate(9.685 68.833) rotate(-88.854)" fill="#ffd064"/><g transform="translate(9.007 50.289)"><path d="M56.126,118.157V114.1H52a2.03,2.03,0,0,0,0,4.06h4.128Z" transform="translate(-44.991 -106.343)" fill="#057aff" fill-rule="evenodd"/><path d="M76.1,258.834a1.854,1.854,0,1,0,1.854,1.854A1.854,1.854,0,0,0,76.1,258.834Z" transform="translate(-66.322 -233.49)" fill="#dbebff" fill-rule="evenodd"/><path d="M98.949,103.185V94.318a7.187,7.187,0,0,0-4.163,2.4v4.06A7.187,7.187,0,0,0,98.949,103.185Z" transform="translate(-84.362 -88.967)" fill="#57a4ff" fill-rule="evenodd"/><path d="M234.136,244.932a1.854,1.854,0,1,0,1.341-.574A1.848,1.848,0,0,0,234.136,244.932Z" transform="translate(-206.326 -220.773)" fill="#00e499" fill-rule="evenodd"/><path d="M322.452,162.636a1.854,1.854,0,1,0,1.341-.574,1.848,1.848,0,0,0-1.341.574Z" transform="translate(-283.909 -148.479)" fill="#57a4ff" fill-rule="evenodd"/><path d="M59.627,76.389a1,1,0,1,1,1-1A1.006,1.006,0,0,1,59.627,76.389Zm-10.734-9.66a1,1,0,1,1,1-1A1,1,0,0,1,48.893,66.729Zm-10.734,10a1,1,0,1,1,1.006-1,1,1,0,0,1-1.006,1Zm-10.734,10a1,1,0,1,1,1.006-1A1,1,0,0,1,27.426,86.732ZM18.792,76.484a1,1,0,1,1-1,1A1.006,1.006,0,0,1,18.792,76.484Zm-8.08-16.41a8.083,8.083,0,1,1,8.08,8.083,8.091,8.091,0,0,1-8.08-8.083ZM25.6,91.25h3.666v7.336H25.6ZM36.33,82.542h3.66V98.587H36.33ZM47.058,72.285h3.665v26.3H47.058ZM57.791,81.8h3.665V98.587H57.791Zm10.4-15.829h-3.2a.851.851,0,1,0,0,1.7H66.14l-5.3,5.3a2.692,2.692,0,0,0-2.55.067l-6.919-6.226a2.644,2.644,0,0,0,.229-1.084,2.7,2.7,0,1,0-5.41,0,2.747,2.747,0,0,0,.246,1.127l-6.977,6.5a2.7,2.7,0,0,0-4,2.372,2.747,2.747,0,0,0,.246,1.127l-6.976,6.5a2.7,2.7,0,0,0-2.568-.015l-4.918-4.7a2.71,2.71,0,0,0-1.6-3.723v-5.1a9.785,9.785,0,1,0-1.7,0v5.1a2.7,2.7,0,0,0,0,5.133V99.437a.852.852,0,0,0,.852.85h48.3a.851.851,0,1,0,0-1.7H63.161V80.947a.852.852,0,0,0-.852-.85H56.945a.849.849,0,0,0-.852.85V98.586H52.428V71.434a.852.852,0,0,0-.852-.85H46.212a.852.852,0,0,0-.852.85V98.587H41.694v-16.9a.853.853,0,0,0-.852-.851H35.478a.853.853,0,0,0-.852.851v16.9H30.96V90.4a.849.849,0,0,0-.852-.851H24.745a.853.853,0,0,0-.852.851v8.187H19.644V80.054a2.693,2.693,0,0,0,.417-.18l4.924,4.7a2.7,2.7,0,1,0,5.147,1.157,2.657,2.657,0,0,0-.246-1.127l6.976-6.5a2.7,2.7,0,0,0,4-2.372,2.658,2.658,0,0,0-.246-1.127L47.6,68.1a2.7,2.7,0,0,0,2.636-.023L57.151,74.3a2.644,2.644,0,0,0-.229,1.085,2.7,2.7,0,1,0,5.118-1.213l5.3-5.3v1.149a.849.849,0,1,0,1.7,0v-3.2a.848.848,0,0,0-.846-.851Zm-53.353-5.9a1.178,1.178,0,0,0,1.178,1.179h2.568V58.894H16.018A1.178,1.178,0,0,0,14.84,60.073Zm5.444-1.693v3.385a7.132,7.132,0,0,0,2.465,1.66V56.721a7.122,7.122,0,0,0-2.465,1.66Zm-1.218,4.573a7.819,7.819,0,0,0,4.432,2.4c.034,0,.069.006.1.006a.852.852,0,0,0,.852-.851V55.64A.851.851,0,0,0,23.5,54.8a7.814,7.814,0,0,0-4.432,2.4H16.018a2.88,2.88,0,1,0,0,5.761h.172v1.553a.849.849,0,1,0,1.7,0V62.954h1.178Z" transform="translate(-9.007 -50.289)" fill-rule="evenodd"/></g></g></svg>