<svg xmlns="http://www.w3.org/2000/svg" width="49.795" height="49.999" viewBox="0 0 49.795 49.999"><g transform="translate(-2.042 -1.001)"><g transform="translate(2.827 1.786)"><g transform="translate(13.601 13.554)"><circle cx="8.522" cy="8.522" r="8.522" fill="#fdb800"/><circle cx="6.043" cy="6.043" r="6.043" transform="translate(2.479 2.479)" fill="#ffda2d"/></g><path d="M10.477,189.792a22.2,22.2,0,0,0,1.866,14.171l9.786-5.65a10.832,10.832,0,0,1-.829-4.169,10.968,10.968,0,0,1,.094-1.427Z" transform="translate(-10.048 -172.068)" fill="#fc685b" fill-rule="evenodd"/><path d="M191.309,294.091a22.153,22.153,0,0,0,25.318-14.615L205.71,276.55a10.885,10.885,0,0,1-11.476,6.625Z" transform="translate(-173.539 -250.32)" fill="#72d561" fill-rule="evenodd"/><path d="M47.863,307.272a22.182,22.182,0,0,0,11.337,8.7l2.925-10.916a10.907,10.907,0,0,1-4.476-3.438Z" transform="translate(-44.156 -272.934)" fill="#ffda2d" fill-rule="evenodd"/><path d="M41.416,9A22.136,22.136,0,0,0,21.863,24l10.915,2.925A10.882,10.882,0,0,1,41.416,20.3Z" transform="translate(-20.705 -9.001)" fill="#b4d2d7" fill-rule="evenodd"/><path d="M270.378,35.431A22.137,22.137,0,0,0,250.095,9V20.3a10.878,10.878,0,0,1,9.367,12.207Z" transform="translate(-226.562 -9.002)" fill="#64b5f6" fill-rule="evenodd"/><g transform="translate(21.603 21.778)"><path d="M386.693,389.8l1.5-1.6-3.022-3.022-1.6,1.491Z" transform="translate(-368.549 -370.078)" fill="#7a8c98" fill-rule="evenodd"/><ellipse cx="9.161" cy="9.161" rx="9.161" ry="9.161" transform="translate(0 1.814) rotate(-5.682)" fill="#8d9ca8"/><path d="M270.145,264.41a6.781,6.781,0,1,1-6.781,6.781A6.781,6.781,0,0,1,270.145,264.41Z" transform="translate(-260.133 -261.149)" fill="#e6f8ff" fill-rule="evenodd"/><path d="M407.044,406.1l-1.989,1.989a.529.529,0,0,0,0,.747l6.06,6.06a1.935,1.935,0,0,0,2.736-2.736l-6.06-6.06A.529.529,0,0,0,407.044,406.1Z" transform="translate(-387.794 -388.81)" fill="#da8c36" fill-rule="evenodd"/><path d="M405.055,408.837l1.389,1.389,2.736-2.736-1.389-1.389a.529.529,0,0,0-.747,0l-1.989,1.989A.529.529,0,0,0,405.055,408.837Z" transform="translate(-387.794 -388.81)" fill="#c97629" fill-rule="evenodd"/></g></g><path d="M34.441,27.609a6,6,0,1,1-6,6A6,6,0,0,1,34.441,27.609Zm0,13.562a7.565,7.565,0,1,0-7.565-7.565,7.573,7.573,0,0,0,7.565,7.565ZM49.932,49.1a1.156,1.156,0,0,1-1.626,0L44.189,44.98l1.626-1.627,4.117,4.116a1.151,1.151,0,0,1,0,1.628Zm-5.878-7.506-1.627,1.626.653.653,1.627-1.626Zm-2.806-.741q.227-.212.438-.437l.664.664-.437.437ZM21.575,44.934a21.574,21.574,0,0,0,3.375.266,21.294,21.294,0,0,0,8.383-1.711,9.969,9.969,0,0,1-8.653-7.976q-.286-.006-.573-.026ZM17.211,23.862A7.744,7.744,0,0,0,24.7,31.594q.1-.46.233-.9a6.827,6.827,0,1,1,6.844-6.826c0,.054,0,.108-.005.162q.449-.125.914-.209a7.737,7.737,0,0,0-15.474.047Zm7.738,5.259a5.266,5.266,0,0,0,.636-.04,10.02,10.02,0,0,1,4.564-4.446,5.188,5.188,0,0,0,.059-.773,5.259,5.259,0,1,0-5.259,5.259Zm17.869,4.485a8.377,8.377,0,1,0-8.377,8.377A8.386,8.386,0,0,0,42.819,33.606ZM27.144,12.414V2.637a21.351,21.351,0,0,1,18.876,24.6l-5.456-1.462A9.9,9.9,0,0,0,36.6,23.9c0-.012,0-.023,0-.035a11.68,11.68,0,0,0-9.459-11.449ZM44.888,31.477c-.165.431-.345.857-.537,1.276a9.872,9.872,0,0,0-.241-1.484Zm6.153,14.884-6.433-6.433a.786.786,0,0,0-1.11,0l-.04.04-.785-.786a9.911,9.911,0,0,0,1.2-2.4,22.806,22.806,0,0,0,2.789-5.586.785.785,0,0,0-.541-1.009l-2.627-.7a9.975,9.975,0,0,0-.874-1.531l3.823,1.024a.783.783,0,0,0,.972-.6,23.119,23.119,0,0,0,.444-4.5A22.907,22.907,0,0,0,26.409,1a.783.783,0,0,0-.833.783v11.3a.783.783,0,0,0,.683.777,10.1,10.1,0,0,1,8.772,9.818q-.293-.018-.59-.018l-.188,0a9.306,9.306,0,1,0-9.747,9.5c-.007.148-.011.3-.011.448,0,.111,0,.222.007.331-.294-.013-.588-.037-.878-.075a.784.784,0,0,0-.86.575L19.839,45.353a.785.785,0,0,0,.6.972,23.05,23.05,0,0,0,4.506.444,22.817,22.817,0,0,0,12.419-3.657,9.907,9.907,0,0,0,2.649-1.275l.786.786-.04.04a.785.785,0,0,0,0,1.109L47.2,50.206a2.724,2.724,0,0,0,3.845,0,2.723,2.723,0,0,0,0-3.845ZM27.133,25.12a2.047,2.047,0,0,1-1.4,1.939v.394a.784.784,0,1,1-1.568,0v-.361a2.06,2.06,0,0,1-1.127-.778.784.784,0,1,1,1.272-.919.476.476,0,0,0,.384.2h.4a.474.474,0,1,0,0-.948h-.281a2.043,2.043,0,0,1-.643-3.981v-.4a.784.784,0,1,1,1.568,0v.361a2.06,2.06,0,0,1,1.126.778.784.784,0,1,1-1.27.92.479.479,0,0,0-.386-.2h-.4a.474.474,0,0,0,0,.948h.281A2.045,2.045,0,0,1,27.133,25.12ZM22.754,2.637v9.776a11.686,11.686,0,0,0-8.3,6.364L5.011,16.247A21.235,21.235,0,0,1,22.754,2.637ZM3.782,17.542a.783.783,0,0,1-.54-1.009A22.919,22.919,0,0,1,23.489,1a.785.785,0,0,1,.834.783v11.3a.784.784,0,0,1-.684.777,10.1,10.1,0,0,0-8.014,6.149.786.786,0,0,1-.724.484.806.806,0,0,1-.2-.027ZM5.466,32.576l8.47-4.89a11.6,11.6,0,0,1-.642-3.824c0-.279.011-.562.03-.842L3.876,20.488a21.61,21.61,0,0,0-.265,3.375A21.106,21.106,0,0,0,5.466,32.576ZM15.631,27.73a.785.785,0,0,1-.332.98L5.514,34.36a.794.794,0,0,1-.392.1.808.808,0,0,1-.227-.033.785.785,0,0,1-.476-.4A22.672,22.672,0,0,1,2.042,23.862a23.12,23.12,0,0,1,.444-4.506.783.783,0,0,1,.972-.6l10.916,2.924a.785.785,0,0,1,.574.86,10.186,10.186,0,0,0-.087,1.325,10.03,10.03,0,0,0,.769,3.868Zm1.7,16.07a21.505,21.505,0,0,1-9.668-7.424l8.469-4.89a11.7,11.7,0,0,0,3.731,2.867ZM21.1,33.187a.783.783,0,0,1,.458.928L18.629,45.03a.789.789,0,0,1-.388.489.778.778,0,0,1-.369.092.787.787,0,0,1-.251-.041A23.049,23.049,0,0,1,5.881,36.558a.785.785,0,0,1,.261-1.115l9.786-5.65a.786.786,0,0,1,1.014.2A10.131,10.131,0,0,0,21.1,33.187Z" transform="translate(0 0)" fill-rule="evenodd"/></g></svg>