<svg xmlns="http://www.w3.org/2000/svg" width="64.773" height="59.213" viewBox="0 0 64.773 59.213"><g transform="translate(-1.25 -2.757)"><path d="M39.21,51.92A10.953,10.953,0,1,1,54.7,36.43c.18.18.34.37.51.56V24.39a8.982,8.982,0,0,1-1.05.06,9.8,9.8,0,0,1-6.73-2.67H2V49.74a4.089,4.089,0,0,0,4.09,4.09H41.78a10.863,10.863,0,0,1-2.57-1.91Z" fill="#e2e2e2"/><g opacity="0.3"><path d="M54.16,24.45a9.822,9.822,0,0,1-6.73-2.67H27.26v7.27a7.631,7.631,0,0,0,7.64,7.63h4.07c.08-.08.15-.17.23-.25a10.948,10.948,0,0,1,15.49,0,2.622,2.622,0,0,1,.22.25h.29V24.4c-.34.03-.69.05-1.04.05Z" fill="#fff"/></g><g opacity="0.5"><path d="M52.25,24.26a1.716,1.716,0,0,1,.77,1.44v5.73a2.185,2.185,0,0,0,2.18,2.18V24.39a8.937,8.937,0,0,1-1.04.06,9.3,9.3,0,0,1-1.91-.19Z" fill="#fff"/></g><g opacity="0.5"><path d="M47.46,21.8a2.177,2.177,0,0,0,2.18,2.17h1.52A9.865,9.865,0,0,1,47.46,21.8Z" fill="#fff"/></g><circle cx="9.84" cy="9.84" r="9.84" transform="translate(42.348 21.925) rotate(-76.769)" fill="#ffab03"/><g opacity="0.3"><path d="M54.16,4.78a9.768,9.768,0,0,0-5.99,2.05,9.508,9.508,0,0,0-.1,1.31A9.824,9.824,0,0,0,63.9,15.93a9.508,9.508,0,0,0,.1-1.31,9.833,9.833,0,0,0-9.84-9.84Z" fill="#fff"/></g><path d="M44.33,14.62a9.777,9.777,0,0,1,.5-3.07H6.09A4.089,4.089,0,0,0,2,15.64v6.14H47.44a9.814,9.814,0,0,1-3.11-7.16Z" fill="#4e6575"/><circle cx="10.96" cy="10.96" r="10.96" transform="translate(35.99 33.22)" fill="#f4f9fb"/><path d="M54.7,51.92a10.7,10.7,0,0,1-1.62,1.33l5.59,6.86a3,3,0,1,0,4.22-4.22L56.03,50.3A10.133,10.133,0,0,1,54.7,51.92Z" fill="#8aba55"/><g opacity="0.3"><path d="M56.03,50.3a11.441,11.441,0,0,1-1.3,1.59l4.34,5.33a3.007,3.007,0,0,0,4.45.23,2.6,2.6,0,0,0,.26-.32,3.015,3.015,0,0,0-.88-1.23Z" fill="#fff"/></g><path d="M54.45,44.18a7.477,7.477,0,0,0-7.5-7.5v7.5Z" fill="#7cb5e8"/><path d="M46.95,36.68a7.5,7.5,0,1,0,5.3,12.8l-5.31-5.31V36.68Z" fill="#ffab03"/><path d="M46.95,44.18l5.31,5.31a7.478,7.478,0,0,0,2.19-5.31Z" fill="#ef4a51"/><path d="M6,36.83h4v14H6Z" fill="#8aba55"/><path d="M13.44,26.83h4v24h-4Z" fill="#7cb5e8"/><g opacity="0.3"><path d="M15.44,47.83a1,1,0,0,0,1,1h1v-22h-2Z" fill="#fff"/></g><path d="M20.88,44.83h4v6h-4Z" fill="#8aba55"/><path d="M28.33,39.83h4v11h-4Z" fill="#7cb5e8"/><g opacity="0.3"><path d="M16.59,11.55v2.43a4,4,0,0,0,4,4H44.93a9.692,9.692,0,0,1-.1-6.43Z" fill="#e2e2e2"/></g><g opacity="0.3"><path d="M22.79,44.83v3a1,1,0,0,0,1,1h1v-4Z" fill="#fff"/></g><g opacity="0.3"><path d="M30.33,47.83a1,1,0,0,0,1,1h1v-9h-2Z" fill="#fff"/></g><g opacity="0.3"><path d="M8,47.83a1,1,0,0,0,1,1h1v-12H8Z" fill="#fff"/></g><g opacity="0.3"><path d="M40.67,35.21A10.952,10.952,0,0,0,57.44,47.35,10.952,10.952,0,0,0,40.67,35.21Z" fill="#fff"/></g><path d="M10.19,16.66a2.05,2.05,0,1,1-2.05-2.05A2.053,2.053,0,0,1,10.19,16.66Z" fill="#7cb5e8"/><circle cx="2.05" cy="2.05" r="2.05" transform="translate(13.92 14.61)" fill="#ef4a51"/><circle cx="2.05" cy="2.05" r="2.05" transform="translate(21.74 14.61)" fill="#8aba55"/><circle cx="2.05" cy="2.05" r="2.05" transform="translate(21.74 14.61)" fill="#8aba55"/><g opacity="0.3"><path d="M8.14,14.62a2.017,2.017,0,0,0-.98.26,1.635,1.635,0,0,0-.02.22,2.053,2.053,0,0,0,2.05,2.05,2.017,2.017,0,0,0,.98-.26,1.635,1.635,0,0,0,.02-.22A2.046,2.046,0,0,0,8.14,14.62Z" fill="#fff"/></g><g opacity="0.3"><path d="M15.97,14.62a2.017,2.017,0,0,0-.98.26,1.635,1.635,0,0,0-.02.22,2.053,2.053,0,0,0,2.05,2.05,2.017,2.017,0,0,0,.98-.26,1.635,1.635,0,0,0,.02-.22,2.053,2.053,0,0,0-2.05-2.05Z" fill="#fff"/></g><g opacity="0.3"><path d="M23.79,14.62a2.017,2.017,0,0,0-.98.26,1.635,1.635,0,0,0-.02.22,2.053,2.053,0,0,0,2.05,2.05,2.017,2.017,0,0,0,.98-.26,1.635,1.635,0,0,0,.02-.22A2.046,2.046,0,0,0,23.79,14.62Z" fill="#fff"/></g><path d="M54.16,18.68a2.411,2.411,0,0,1-2.41-2.41.75.75,0,0,1,1.5,0,.91.91,0,1,0,.91-.91,2.41,2.41,0,1,1,2.41-2.41.75.75,0,1,1-1.5,0,.91.91,0,1,0-.91.91,2.41,2.41,0,0,1,0,4.82Z"/><path d="M54.16,12.05a.755.755,0,0,1-.75-.75V10.15a.75.75,0,0,1,1.5,0V11.3A.749.749,0,0,1,54.16,12.05Z"/><path d="M54.16,19.83a.755.755,0,0,1-.75-.75V17.93a.75.75,0,0,1,1.5,0v1.15A.749.749,0,0,1,54.16,19.83Z"/><path d="M54.16,25.2A10.585,10.585,0,1,1,64.75,14.62,10.6,10.6,0,0,1,54.16,25.2Zm0-19.67a9.09,9.09,0,1,0,9.09,9.09A9.1,9.1,0,0,0,54.16,5.53Z"/><path d="M54.16,22.36a7.734,7.734,0,1,1,3.57-.87.749.749,0,0,1-.69-1.33,6.247,6.247,0,1,0-2.88.7.75.75,0,0,1,0,1.5Z"/><path d="M8.14,19.46a2.8,2.8,0,1,1,2.8-2.8A2.8,2.8,0,0,1,8.14,19.46Zm0-4.09a1.3,1.3,0,1,0,1.3,1.3,1.3,1.3,0,0,0-1.3-1.3Z"/><path d="M15.97,19.46a2.8,2.8,0,1,1,2.8-2.8A2.8,2.8,0,0,1,15.97,19.46Zm0-4.09a1.3,1.3,0,1,0,1.3,1.3,1.3,1.3,0,0,0-1.3-1.3Z"/><path d="M23.79,19.46a2.8,2.8,0,1,1,2.8-2.8A2.8,2.8,0,0,1,23.79,19.46Zm0-4.09a1.3,1.3,0,1,0,1.3,1.3,1.3,1.3,0,0,0-1.3-1.3Z"/><path d="M2,22.53a.755.755,0,0,1-.75-.75V15.64A4.844,4.844,0,0,1,6.09,10.8H44.82a.75.75,0,0,1,0,1.5H6.09a3.346,3.346,0,0,0-3.34,3.34v6.14a.755.755,0,0,1-.75.75Z"/><path d="M10,51.58H6a.755.755,0,0,1-.75-.75v-14A.755.755,0,0,1,6,36.08h4a.755.755,0,0,1,.75.75v14A.749.749,0,0,1,10,51.58Zm-3.25-1.5h2.5V37.58H6.75Z"/><path d="M17.44,51.58h-4a.755.755,0,0,1-.75-.75v-24a.755.755,0,0,1,.75-.75h4a.755.755,0,0,1,.75.75v1.86a.75.75,0,0,1-1.5,0V27.58h-2.5v22.5h2.5V31.02a.75.75,0,0,1,1.5,0V50.83A.743.743,0,0,1,17.44,51.58Z"/><path d="M24.88,51.58h-4a.755.755,0,0,1-.75-.75v-6a.755.755,0,0,1,.75-.75h4a.755.755,0,0,1,.75.75v6A.743.743,0,0,1,24.88,51.58Zm-3.25-1.5h2.5v-4.5h-2.5Z"/><path d="M32.33,51.58h-4a.755.755,0,0,1-.75-.75v-11a.755.755,0,0,1,.75-.75h4a.755.755,0,0,1,.75.75v11A.749.749,0,0,1,32.33,51.58Zm-3.25-1.5h2.5v-9.5h-2.5Z"/><path d="M21.38,35.92a.742.742,0,0,1-.53-.22.754.754,0,0,1,0-1.06l5.7-5.7a.754.754,0,0,1,1.06,0L31,32.33l7.94-7.94A.75.75,0,1,1,40,25.45l-8.47,8.47a.754.754,0,0,1-1.06,0l-3.39-3.39L21.91,35.7A.742.742,0,0,1,21.38,35.92Z"/><path d="M39.46,29.57a.755.755,0,0,1-.75-.75V25.68H35.57a.75.75,0,0,1,0-1.5h3.89a.755.755,0,0,1,.75.75v3.89A.755.755,0,0,1,39.46,29.57Z"/><path d="M46.95,55.88a11.705,11.705,0,1,1,8.28-3.43A11.634,11.634,0,0,1,46.95,55.88Zm0-21.91a10.205,10.205,0,1,0,7.22,2.99A10.135,10.135,0,0,0,46.95,33.97Z"/><path d="M61,61.97h-.19a3.754,3.754,0,0,1-2.72-1.38L52.5,53.73a.754.754,0,0,1,1.17-.95l5.59,6.86a2.265,2.265,0,0,0,1.63.83,2.194,2.194,0,0,0,1.71-.66,2.258,2.258,0,0,0-.17-3.34l-6.86-5.59a.754.754,0,1,1,.95-1.17l6.86,5.59a3.758,3.758,0,0,1,1.29,2.06A3.778,3.778,0,0,1,61,61.97Z"/><path d="M55.21,33.74a.755.755,0,0,1-.75-.75v-8.6a.75.75,0,1,1,1.5,0v8.6A.743.743,0,0,1,55.21,33.74Z"/><path d="M41.79,54.58H10.19a.75.75,0,1,1,0-1.5h31.6a.75.75,0,1,1,0,1.5Z"/><path d="M7.36,54.58H6.09a4.844,4.844,0,0,1-4.84-4.84V21.78A.755.755,0,0,1,2,21.03H44.44a.75.75,0,1,1,0,1.5H2.75V49.74a3.346,3.346,0,0,0,3.34,3.34H7.36a.75.75,0,1,1,0,1.5Z"/><path d="M52.62,54.29a.733.733,0,0,1-.67-.42.749.749,0,0,1,.28-.97,9.766,9.766,0,0,0,1.57-1.18.754.754,0,0,1,1.02.01.733.733,0,0,1,.07,1.01,4.793,4.793,0,0,1-2,1.49A.531.531,0,0,1,52.62,54.29Z"/><path d="M54.45,44.93h-7.5a.755.755,0,0,1-.75-.75v-7.5a.755.755,0,0,1,.75-.75,8.228,8.228,0,0,1,8.25,8.25A.749.749,0,0,1,54.45,44.93Zm-6.75-1.5h5.96a6.771,6.771,0,0,0-1.93-4.03,6.633,6.633,0,0,0-4.03-1.93Z"/><path d="M46.95,52.43a8.245,8.245,0,1,1,0-16.49.755.755,0,0,1,.75.75v7.19l5.09,5.09a.748.748,0,0,1,0,1.06,8.294,8.294,0,0,1-5.84,2.4ZM46.2,37.47a6.75,6.75,0,1,0,4.96,11.98L46.41,44.7a.749.749,0,0,1-.22-.53v-6.7Z"/><path d="M52.26,50.23a.742.742,0,0,1-.53-.22L46.42,44.7a.751.751,0,0,1,.53-1.28h7.5a.755.755,0,0,1,.75.75,8.231,8.231,0,0,1-2.41,5.84A.742.742,0,0,1,52.26,50.23Zm-3.5-5.3,3.47,3.47a6.684,6.684,0,0,0,1.43-3.47Z"/></g></svg>