<svg xmlns="http://www.w3.org/2000/svg" width="54.187" height="53.31" viewBox="0 0 54.187 53.31"><g transform="translate(-23.933 -27.93)"><g transform="translate(24.748 28.747)"><path d="M234.3,170.11h6.339v11.216H234.3Z" transform="translate(-210.546 -154.323)" fill="#ed2024" fill-rule="evenodd"/><path d="M144.33,142.08h6.339v14.49H144.33Z" transform="translate(-131.083 -129.566)" fill="#0bda64" fill-rule="evenodd"/><path d="M54.33,197.72h6.339v7.992H54.33Z" transform="translate(-51.594 -178.708)" fill="#ed2024" fill-rule="evenodd"/><path d="M324.27,112.46h6.339v17.949H324.27Z" transform="translate(-290.008 -103.405)" fill="#0bda64" fill-rule="evenodd"/><path d="M93.709,34.93a2.03,2.03,0,1,1-2.03,2.03A2.03,2.03,0,0,1,93.709,34.93Zm-32.053,10.3a2.03,2.03,0,1,1-2.026,2.03A2.03,2.03,0,0,1,61.656,45.226ZM72.24,39.138a2.028,2.028,0,1,1-2.03,2.03A2.027,2.027,0,0,1,72.24,39.138Zm10.2,4.667a2.028,2.028,0,1,1-2.03,2.03A2.03,2.03,0,0,1,82.443,43.8Z" transform="translate(-56.275 -34.93)" fill="#ffc500" fill-rule="evenodd"/><path d="M227.778,212.26H229.7a1.023,1.023,0,0,1,1.023,1.02v.749a1.007,1.007,0,0,0,.758.987,10.591,10.591,0,0,1,2.546,1.056,1.011,1.011,0,0,0,1.234-.162l.53-.53a1.023,1.023,0,0,1,1.444,0l1.361,1.361a1.021,1.021,0,0,1,0,1.447l-.53.53a1.012,1.012,0,0,0-.159,1.234,10.559,10.559,0,0,1,1.052,2.546,1.015,1.015,0,0,0,.99.758h.745a1.024,1.024,0,0,1,1.023,1.023V226.2a1.026,1.026,0,0,1-1.023,1.023h-.745a1.016,1.016,0,0,0-.99.758,10.581,10.581,0,0,1-1.052,2.546,1.009,1.009,0,0,0,.162,1.234l.527.53a1.017,1.017,0,0,1,0,1.443l-1.361,1.361a1.023,1.023,0,0,1-1.444,0l-.53-.53a1.013,1.013,0,0,0-1.234-.162,10.572,10.572,0,0,1-2.546,1.056,1.013,1.013,0,0,0-.758.987v.749a1.026,1.026,0,0,1-1.023,1.023h-1.923a1.026,1.026,0,0,1-1.023-1.023v-.749a1.013,1.013,0,0,0-.758-.987,10.591,10.591,0,0,1-2.546-1.056,1.011,1.011,0,0,0-1.234.162l-.53.53a1.023,1.023,0,0,1-1.444,0l-1.361-1.361a1.017,1.017,0,0,1,0-1.443l.53-.53a1.019,1.019,0,0,0,.162-1.234,10.572,10.572,0,0,1-1.056-2.546,1.015,1.015,0,0,0-.99-.758h-.745a1.026,1.026,0,0,1-1.023-1.023v-1.923a1.026,1.026,0,0,1,1.023-1.023h.745a1.016,1.016,0,0,0,.99-.758,10.607,10.607,0,0,1,1.052-2.546,1.012,1.012,0,0,0-.159-1.234l-.529-.53a1.021,1.021,0,0,1,0-1.447l1.361-1.361a1.023,1.023,0,0,1,1.444,0l.53.53a1.013,1.013,0,0,0,1.234.162A10.571,10.571,0,0,1,226,215.015a1.008,1.008,0,0,0,.758-.987v-.749A1.021,1.021,0,0,1,227.778,212.26Z" transform="translate(-194.171 -191.55)" fill="#31a7fb" fill-rule="evenodd"/><path d="M274.085,263.57a6.985,6.985,0,1,1-6.985,6.985A6.984,6.984,0,0,1,274.085,263.57Z" transform="translate(-239.515 -236.867)" fill="#fb8500" fill-rule="evenodd"/><path d="M305.176,288.44a6.99,6.99,0,0,1-8.626,10.087,6.99,6.99,0,0,1,8.626-10.087Z" transform="translate(-264.634 -258.374)" fill="#ffc500" fill-rule="evenodd"/><path d="M32.718,289.373c-3.887,2.261-.927,7.552,3.3,4.953l9.459-5.85c1.748-1.083,6.1,1.857,9.782-3.307a.431.431,0,0,0-.4-.679q-2.845.3-5.688.6l-2.086-2.867,1.44-3.241,5.608-.592a.43.43,0,0,0,.215-.768c-4.255-3.251-10.845-1.808-10.975,4.443a1.678,1.678,0,0,1-.7,1.53Z" transform="translate(-30.906 -247.792)" fill="#4d7389" fill-rule="evenodd"/><path d="M113.327,283.824l-1.162-1.6,1.44-3.241,5.608-.592a.43.43,0,0,0,.215-.768c-4.255-3.251-10.845-1.808-10.975,4.443a1.678,1.678,0,0,1-.7,1.53l-3.165,1.841c.6-.033,1.215-.079,1.834-.146A32.818,32.818,0,0,0,113.327,283.824Z" transform="translate(-95.985 -247.792)" fill="#a5c1cf" fill-rule="evenodd"/></g><path d="M68.71,45.459l4.019,1.076A.82.82,0,0,1,73.1,47.9l-.868.868A18.8,18.8,0,1,1,44.514,74.025a.814.814,0,0,1,1.281-1,17.171,17.171,0,1,0,25.279-23.1l-.927.927a.819.819,0,0,1-1.377-.408L67.7,46.454a.816.816,0,0,1,1.007-1Zm1.582,2.115-.646-.175.345,1.294.947-.947ZM26.967,71.037c-2.94,1.712-.832,5.581,2.463,3.549l9.455-5.846c2.089-1.294,5.684,1.4,9-2.387l-4.784.507a.818.818,0,0,1-.745-.334l-2.086-2.864a.813.813,0,0,1-.053-.874l1.411-3.174a.814.814,0,0,1,.662-.48v0l4.535-.48c-3.714-2.1-8.683-.738-8.79,4.39a2.45,2.45,0,0,1-1.106,2.218Zm-3.019,2.429a4.011,4.011,0,0,1,2.2-3.844l9.959-5.78c.249-.142.291-.556.294-.837a6.642,6.642,0,0,1,4.208-6.436H24.994a.818.818,0,0,1,0-1.635h1.671V47.759a.819.819,0,0,1,.818-.818h6.339a.818.818,0,0,1,.818.818v7.174h2.535V41.261a.815.815,0,0,1,.818-.818h6.339a.818.818,0,0,1,.818.818V54.934h2.533v-10.4a.819.819,0,0,1,.818-.818h6.339a.82.82,0,0,1,.818.818v7.1c.231-.076.467-.149.705-.211a.191.191,0,0,0,.149-.2h0v-.749h0a1.84,1.84,0,0,1,1.678-1.831V37.8a.818.818,0,0,1,.818-.818h6.339a.815.815,0,0,1,.818.818V51.708a1.863,1.863,0,0,1,.924-.245v0a1.825,1.825,0,0,1,1.3.54l1.361,1.361a1.84,1.84,0,0,1,0,2.6c-.132.132-.579.533-.592.646a.189.189,0,0,0,.03.13,11.451,11.451,0,0,1,1.139,2.745.19.19,0,0,0,.2.152,2.436,2.436,0,0,1,2.046.54,1.822,1.822,0,0,1,.54,1.3V63.4a1.843,1.843,0,0,1-1.841,1.841v0h-.745v0a.188.188,0,0,0-.2.149,12.018,12.018,0,0,1-.48,1.411,11.22,11.22,0,0,1-.659,1.334.19.19,0,0,0,.033.249c.563.563,1.066.947,1.066,1.831h0a1.846,1.846,0,0,1-.54,1.3L68.39,72.874a1.847,1.847,0,0,1-2.6,0c-.132-.132-.533-.579-.646-.592a.206.206,0,0,0-.13.027,11.141,11.141,0,0,1-2.748,1.139.194.194,0,0,0-.149.2c0,.794.083,1.427-.54,2.05a1.849,1.849,0,0,1-1.3.54H58.351a1.843,1.843,0,0,1-1.841-1.841v-.749a.193.193,0,0,0-.149-.2,11.2,11.2,0,0,1-2.748-1.139.189.189,0,0,0-.245.036c-.563.559-.951,1.066-1.831,1.066a1.844,1.844,0,0,1-1.3-.536l-1.361-1.361a1.84,1.84,0,0,1,0-2.6c.132-.132.579-.533.592-.646a.194.194,0,0,0-.03-.132c-.126-.218-.249-.444-.361-.672-2.582,2.979-5.347,2.754-7.449,2.586a3.93,3.93,0,0,0-1.891.076l-9.459,5.857a4.273,4.273,0,0,1-4.675.242,3.681,3.681,0,0,1-1.654-2.757Zm22.21-16.9a9.012,9.012,0,0,1,2.526,1.361c.043.033.083.067.119.1a11.543,11.543,0,0,1,.639-1.292l.02-.169h-3.3Zm-.284,3.82-2.956.311-1.056,2.377,1.532,2.109,2.877-.3A1.837,1.837,0,0,1,45.52,63.4V61.474A1.827,1.827,0,0,1,45.874,60.389Zm10.468,4.033a.815.815,0,1,1,1.622-.149c.072.794,1.532,1.241,2.367.559a.82.82,0,0,0,.338-.622c0-1.671-4.34-.092-4.34-3.546a2.672,2.672,0,0,1,2.175-2.5l.009-.473a.815.815,0,0,1,1.629.03l-.011.447A2.672,2.672,0,0,1,62.3,60.665a.818.818,0,1,1-1.635,0c0-.837-1.512-1.321-2.367-.622a.82.82,0,0,0-.338.622c0,1.669,4.34.09,4.34,3.546A2.671,2.671,0,0,1,60.129,66.7l-.009.476a.814.814,0,1,1-1.628-.033L58.5,66.7A2.7,2.7,0,0,1,56.342,64.422Zm2.976-9.789a7.8,7.8,0,1,1-7.8,7.8A7.8,7.8,0,0,1,59.318,54.632Zm4.36,3.443a6.168,6.168,0,1,0,0,8.723A6.165,6.165,0,0,0,63.677,58.075ZM59.828,48.64a2.081,2.081,0,0,1,1.752.54c.971.971.245,2.126.689,2.245a11.368,11.368,0,0,1,2.265.877V38.62h-4.7V48.64ZM49.319,52.92l.92-.92a1.827,1.827,0,0,1,1.3-.54v0c1.205,0,1.669,1.092,1.947,1.129.106.013.377-.169.536-.255V45.354h-4.7Zm10.958-2.645H58.354a.206.206,0,0,0-.206.2h0v.749h0A1.835,1.835,0,0,1,56.785,53a9.875,9.875,0,0,0-2.351.971,1.827,1.827,0,0,1-2.218-.288l-.53-.53a.206.206,0,0,0-.146-.063v0a.207.207,0,0,0-.146.06l-1.361,1.361a.208.208,0,0,0,0,.288l.53.53a1.836,1.836,0,0,1,.291,2.221,9.525,9.525,0,0,0-.973,2.351A1.832,1.832,0,0,1,48.1,61.271h-.745a.207.207,0,0,0-.206.206V63.4c0,.5,1.109-.155,2.073.583a1.86,1.86,0,0,1,.655.987,9.785,9.785,0,0,0,.973,2.347,1.838,1.838,0,0,1-.291,2.221l-.53.53a.211.211,0,0,0,0,.288l1.361,1.364c.357.354.672-.9,1.88-1.052a1.829,1.829,0,0,1,1.159.231,9.743,9.743,0,0,0,2.351.973,1.828,1.828,0,0,1,1.364,1.774V74.4a.207.207,0,0,0,.206.206h1.924c.5,0-.155-1.109.583-2.072a1.84,1.84,0,0,1,.987-.655A9.81,9.81,0,0,0,64.2,70.9a1.835,1.835,0,0,1,2.221.291l.527.527a.211.211,0,0,0,.291,0L68.6,70.358a.193.193,0,0,0,.06-.142h0c0-.291-.98-.689-1.115-1.734a1.841,1.841,0,0,1,.231-1.162,9.493,9.493,0,0,0,.974-2.347,1.832,1.832,0,0,1,1.778-1.364v0h.745v0a.207.207,0,0,0,.206-.206V61.479c0-.5-1.109.155-2.069-.583a1.846,1.846,0,0,1-.659-.987,9.81,9.81,0,0,0-.973-2.351,1.839,1.839,0,0,1,.291-2.221l.53-.53a.2.2,0,0,0,0-.288l-1.361-1.361a.2.2,0,0,0-.146-.06v0c-.288,0-.686.976-1.734,1.115a1.825,1.825,0,0,1-1.159-.235A9.712,9.712,0,0,0,61.847,53a1.835,1.835,0,0,1-1.364-1.778v-.749a.206.206,0,0,0-.206-.2Zm1.9-22.345a2.847,2.847,0,1,1-1.5,5.267l-7.1,5.442a2.846,2.846,0,1,1-5.479.619l-5.247-2.4a2.843,2.843,0,0,1-4.128.159l-5.863,3.254a2.845,2.845,0,1,1-.891-1.37l5.962-3.307a2.845,2.845,0,1,1,5.6-.218l5.244,2.4a2.852,2.852,0,0,1,3.811-.431L59.6,31.971a2.848,2.848,0,0,1,2.583-4.041Zm.854,1.989a1.211,1.211,0,1,0,0,1.714A1.213,1.213,0,0,0,63.035,29.919Zm-32.049,10.3a1.211,1.211,0,1,0,0,1.714,1.212,1.212,0,0,0,0-1.714Zm10.581-6.088a1.21,1.21,0,1,0,0,1.711A1.212,1.212,0,0,0,41.567,34.127Zm10.206,4.668a1.212,1.212,0,1,0,0,1.711,1.214,1.214,0,0,0,0-1.711ZM28.3,54.934h4.708V48.577H28.3Zm10.511,0h4.7V42.075h-4.7Z"/></g></svg>