<svg xmlns="http://www.w3.org/2000/svg" width="55.079" height="49.997" viewBox="0 0 55.079 49.997"><g transform="translate(-1 -24.53)"><g transform="translate(1.874 25.394)"><g transform="translate(11.859 12.817)"><path d="M231.34,422.19l-14.413.185-3.2,5.495a.336.336,0,0,0,.291.507H234.36a.336.336,0,0,0,.291-.507Z" transform="translate(-203.441 -392.925)" fill="#003748" fill-rule="evenodd"/><path d="M363.458,422.19l-1.667.022,3.3,5.659a.336.336,0,0,1-.29.507h1.679a.336.336,0,0,0,.291-.507Z" transform="translate(-335.558 -392.925)" fill="#00242f" fill-rule="evenodd"/><path d="M158.225,151.21a2.173,2.173,0,0,1,2.166,2.166v25.235a2.173,2.173,0,0,1-2.166,2.166H121.066a2.173,2.173,0,0,1-2.166-2.166V153.376a2.173,2.173,0,0,1,2.166-2.166Z" transform="translate(-118.9 -151.21)" fill="#e6f8ff" fill-rule="evenodd"/><path d="M462.22,151.21a2.173,2.173,0,0,1,2.166,2.166v25.235a2.173,2.173,0,0,1-2.166,2.166H459.7a2.173,2.173,0,0,0,2.166-2.166V153.376a2.173,2.173,0,0,0-2.166-2.166Z" transform="translate(-422.894 -151.21)" fill="#d0f1ff" fill-rule="evenodd"/><path d="M160.392,399.18H118.9v1.461a2.173,2.173,0,0,0,2.166,2.166h37.16a2.173,2.173,0,0,0,2.166-2.166V399.18Z" transform="translate(-118.9 -372.4)" fill="#004960" fill-rule="evenodd"/><path d="M464.386,399.18h-2.52v1.461a2.173,2.173,0,0,1-2.166,2.166h2.52a2.173,2.173,0,0,0,2.166-2.166Z" transform="translate(-422.894 -372.4)" fill="#003748" fill-rule="evenodd"/></g><g transform="translate(19.23 15.139)"><circle cx="1.836" cy="1.836" r="1.836" transform="translate(0 13.119) rotate(-67.486)" fill="#fc685b"/><path d="M194.1,267.91a1.838,1.838,0,0,1,1.542.838,1.836,1.836,0,0,0-2.587,2.508,1.836,1.836,0,0,1,1.044-3.346Z" transform="translate(-191.708 -257.628)" fill="#f35244" fill-rule="evenodd"/><circle cx="1.836" cy="1.836" r="1.836" transform="translate(7.111 2.596) rotate(-45)" fill="#ffda2d"/><path d="M261.916,179.73a1.838,1.838,0,0,1,1.542.838,1.836,1.836,0,0,0-2.587,2.508,1.836,1.836,0,0,1,1.044-3.346Z" transform="translate(-252.203 -178.971)" fill="#ffc700" fill-rule="evenodd"/><circle cx="1.836" cy="1.836" r="1.836" transform="translate(14.827 6.124) rotate(-13.3)" fill="#72d561"/><path d="M329.746,225.18a1.838,1.838,0,0,1,1.542.838,1.836,1.836,0,0,0-2.587,2.508,1.836,1.836,0,0,1,1.044-3.346Z" transform="translate(-312.708 -219.513)" fill="#57ca5a" fill-rule="evenodd"/><path d="M190.308,331.52h3.259a.469.469,0,0,1,.468.468v6.372a.469.469,0,0,1-.468.468h-3.259a.469.469,0,0,1-.468-.468v-6.372A.469.469,0,0,1,190.308,331.52Z" transform="translate(-189.549 -314.368)" fill="#fc685b" fill-rule="evenodd"/><path d="M193.039,331.52h.528a.469.469,0,0,1,.468.468v6.372a.469.469,0,0,1-.468.468h-3.259a.469.469,0,0,1-.468-.468v-.613h2.731a.469.469,0,0,0,.468-.468Z" transform="translate(-189.549 -314.368)" fill="#f35244" fill-rule="evenodd"/><path d="M258.128,256.55h3.259a.469.469,0,0,1,.468.468v14.469a.469.469,0,0,1-.468.468h-3.259a.469.469,0,0,1-.468-.468V257.018A.469.469,0,0,1,258.128,256.55Z" transform="translate(-250.044 -247.495)" fill="#ffda2d" fill-rule="evenodd"/><path d="M260.869,256.55h.528a.469.469,0,0,1,.468.468v14.469a.469.469,0,0,1-.468.468h-3.259a.469.469,0,0,1-.468-.468v-.613H260.4a.469.469,0,0,0,.468-.468Z" transform="translate(-250.053 -247.495)" fill="#ffc700" fill-rule="evenodd"/><path d="M325.958,288.79h3.259a.469.469,0,0,1,.468.468v10.987a.469.469,0,0,1-.468.468h-3.259a.469.469,0,0,1-.468-.468V289.258A.469.469,0,0,1,325.958,288.79Z" transform="translate(-310.549 -276.253)" fill="#72d561" fill-rule="evenodd"/><path d="M328.689,288.79h.528a.469.469,0,0,1,.468.468v10.987a.469.469,0,0,1-.468.468h-3.259a.469.469,0,0,1-.468-.468v-.613h2.731a.469.469,0,0,0,.468-.468Z" transform="translate(-310.549 -276.253)" fill="#57ca5a" fill-rule="evenodd"/><path d="M393.778,226.17h3.259a.469.469,0,0,1,.468.468v17.749a.469.469,0,0,1-.468.468h-3.259a.469.469,0,0,1-.468-.468V226.638A.469.469,0,0,1,393.778,226.17Z" transform="translate(-371.045 -220.396)" fill="#64b5f6" fill-rule="evenodd"/><path d="M396.509,226.17h.528a.469.469,0,0,1,.468.468v17.749a.469.469,0,0,1-.468.468h-3.259a.469.469,0,0,1-.468-.468v-.613h2.731a.468.468,0,0,0,.468-.468Z" transform="translate(-371.045 -220.396)" fill="#42a5f5" fill-rule="evenodd"/></g><g transform="translate(0 0)"><path d="M19.62,32.53h4.218v2.117a10.689,10.689,0,0,1,3.839,1.591l1.5-1.5,2.983,2.983-1.5,1.5a10.67,10.67,0,0,1,1.591,3.839h2.117v4.218H32.251a10.69,10.69,0,0,1-1.591,3.839l1.5,1.5L29.174,55.6l-1.5-1.5a10.651,10.651,0,0,1-3.839,1.591v2.117H19.62V55.691A10.69,10.69,0,0,1,15.78,54.1l-1.5,1.5L11.3,52.614l1.5-1.5a10.651,10.651,0,0,1-1.591-3.839H9.09V43.06h2.117A10.689,10.689,0,0,1,12.8,39.22l-1.5-1.5,2.982-2.983,1.5,1.5a10.67,10.67,0,0,1,3.839-1.591V32.53Z" transform="translate(-9.09 -32.53)" fill="#ffda2d" fill-rule="evenodd"/><path d="M132.37,34.646a10.691,10.691,0,0,1,4.664,2.2l.608-.608a10.651,10.651,0,0,0-3.839-1.591V32.53H132.37Zm6.823,4.574a10.67,10.67,0,0,1,1.592,3.84h1.432a10.671,10.671,0,0,0-1.591-3.839l1.5-1.5-2.983-2.983-.748.748,2.3,2.234Zm1.591,8.059a10.685,10.685,0,0,1-1.592,3.84l1.5,1.5-2.266,2.266.716.716,2.983-2.983-1.5-1.5a10.651,10.651,0,0,0,1.591-3.839Zm-3.75,6.213a10.692,10.692,0,0,1-4.664,2.2v2.116H133.8V55.69a10.67,10.67,0,0,0,3.839-1.591Zm5.865-6.213h1.433V43.06H142.9Z" transform="translate(-119.056 -32.53)" fill="#ffc700" fill-rule="evenodd"/><ellipse cx="7.099" cy="7.098" rx="7.099" ry="7.098" transform="translate(5.35 5.743) rotate(-1.604)" fill="#eff4f7"/><path d="M67.479,83.83a7.07,7.07,0,0,1,4.606,1.7,7.1,7.1,0,0,0-7.962,11.656A7.1,7.1,0,0,1,67.479,83.83Z" transform="translate(-54.841 -78.29)" fill="#e2e3e3" fill-rule="evenodd"/></g><g transform="translate(8.522 9.129)"><path d="M93.6,124.42a4.117,4.117,0,0,0,.672-7.35v3.421l-2.152,1.242-2.152-1.242V117.07a4.117,4.117,0,0,0,.673,7.35v3.1a7.169,7.169,0,0,0,2.96,0Z" transform="translate(-88 -117.069)" fill="#465759" fill-rule="evenodd"/><path d="M100.9,124.411a4.117,4.117,0,0,0,.672-7.35v.96a4.116,4.116,0,0,1-1.752,6.39v3.245a7.1,7.1,0,0,0,1.08-.144Zm-1.48-2.688-2.152-1.242V117.06a4.134,4.134,0,0,0-1.08.96v2.46l2.692,1.554Z" transform="translate(-95.306 -117.06)" fill="#3a484a" fill-rule="evenodd"/></g></g><path d="M8.269,38.032a6.234,6.234,0,1,1,8.578,5.776V42.426a5.017,5.017,0,0,0,2.635-4.393,4.949,4.949,0,0,0-2.376-4.245.864.864,0,0,0-1.315.737v2.922l-1.288.744-1.288-.744V34.524a.864.864,0,0,0-1.316-.737,4.952,4.952,0,0,0-2.375,4.245,5.015,5.015,0,0,0,2.635,4.393v1.381a6.243,6.243,0,0,1-3.889-5.776Zm5.617,6.2c.2.019.408.03.617.03s.414-.011.617-.03V41.873a.861.861,0,0,1,.553-.806,3.264,3.264,0,0,0,1.847-4.259v1.135a.865.865,0,0,1-.432.748l-2.152,1.243a.869.869,0,0,1-.864,0l-2.152-1.243a.865.865,0,0,1-.432-.748V36.808a3.264,3.264,0,0,0,1.847,4.259.861.861,0,0,1,.553.806Zm8.578-6.2A7.962,7.962,0,1,0,14.5,45.995,7.971,7.971,0,0,0,22.465,38.032Zm1.017,13.647a.972.972,0,1,1-.972.972A.974.974,0,0,1,23.482,51.679Zm7.326-9.523a.972.972,0,1,1-.973.972A.973.973,0,0,1,30.808,42.155Zm7.324,4.909a.972.972,0,1,1-.972.972A.973.973,0,0,1,38.132,47.064Zm-14.65,8.288a2.7,2.7,0,1,1,.875-5.255l4.207-5.469a2.7,2.7,0,1,1,4.944-1.5,2.725,2.725,0,0,1-.094.706L36.489,45.9a2.692,2.692,0,0,1,2.935-.229l4.14-3.821-.921-.043a.864.864,0,0,1,.081-1.727l3.089.146a.864.864,0,0,1,.809,1.017l-.553,3.041a.863.863,0,0,1-.849.71.968.968,0,0,1-.156-.014.864.864,0,0,1-.7-1l.113-.622L40.6,46.936a2.7,2.7,0,1,1-5.166,1.1,2.718,2.718,0,0,1,.094-.706L32.45,45.269a2.689,2.689,0,0,1-1.643.559,2.722,2.722,0,0,1-.875-.146l-4.207,5.469a2.7,2.7,0,0,1-2.244,4.2Zm29.568,12.4H15.89a1.3,1.3,0,0,1-1.3-1.3v-.6H54.351v.6A1.3,1.3,0,0,1,53.05,67.754ZM43.724,72.8H25.215l1.933-3.317H41.791ZM22.249,64.128V58.548h2.467v5.579Zm7.326,0h2.467V50.452H29.574Zm7.324,0h2.467V53.934H36.9Zm7.326,0h2.467V47.171H44.224ZM16.612,51.535H14.588V64.128h5.932V58.193a1.374,1.374,0,0,1,1.373-1.373h3.177a1.374,1.374,0,0,1,1.373,1.373v5.935h1.4V50.1a1.374,1.374,0,0,1,1.372-1.373H32.4A1.374,1.374,0,0,1,33.769,50.1V64.128h1.4V53.578a1.374,1.374,0,0,1,1.373-1.373h3.177a1.374,1.374,0,0,1,1.373,1.373V64.128h1.4V46.815a1.374,1.374,0,0,1,1.372-1.373h3.178a1.374,1.374,0,0,1,1.373,1.373V64.128h5.932V40.378a1.3,1.3,0,0,0-1.3-1.3H28.006v1.067a.864.864,0,0,1-.864.864h-1.43a11.484,11.484,0,0,1-1.181,2.85l1.012,1.012a.864.864,0,0,1,0,1.221L22.56,49.071a.862.862,0,0,1-1.221,0L20.326,48.06a11.484,11.484,0,0,1-2.85,1.181v1.43A.864.864,0,0,1,16.612,51.535Zm-7.578-5.29a9.78,9.78,0,0,0,3.529,1.463.864.864,0,0,1,.694.847v1.253h2.49V48.555a.862.862,0,0,1,.694-.847,9.78,9.78,0,0,0,3.529-1.463.862.862,0,0,1,1.09.108l.887.887,1.761-1.76-.887-.887a.864.864,0,0,1-.108-1.091,9.762,9.762,0,0,0,1.462-3.528.865.865,0,0,1,.848-.7h1.253v-2.49H25.025a.863.863,0,0,1-.847-.694,9.78,9.78,0,0,0-1.463-3.529.864.864,0,0,1,.108-1.091l.887-.887-1.761-1.76-.886.887a.864.864,0,0,1-1.091.108,9.78,9.78,0,0,0-3.529-1.463.864.864,0,0,1-.694-.847V26.258h-2.49v1.253a.862.862,0,0,1-.694.847,9.772,9.772,0,0,0-3.529,1.463.864.864,0,0,1-1.091-.108l-.886-.887L5.3,30.587l.887.887a.865.865,0,0,1,.108,1.091,9.762,9.762,0,0,0-1.462,3.528.866.866,0,0,1-.848.7H2.728v2.49H3.981a.865.865,0,0,1,.848.7A9.746,9.746,0,0,0,6.291,43.5a.864.864,0,0,1-.108,1.091l-.887.887,1.761,1.76.886-.887a.864.864,0,0,1,1.091-.108Zm44.016-8.9H28.006V35.924a.864.864,0,0,0-.864-.864h-1.43a11.484,11.484,0,0,0-1.181-2.85L25.543,31.2a.864.864,0,0,0,0-1.221L22.56,26.993a.866.866,0,0,0-1.223,0l-1.011,1.012a11.5,11.5,0,0,0-2.85-1.181v-1.43a.864.864,0,0,0-.864-.864H12.394a.864.864,0,0,0-.864.864v1.43a11.484,11.484,0,0,0-2.85,1.181L7.668,26.993a.864.864,0,0,0-1.221,0L3.463,29.976a.864.864,0,0,0,0,1.221L4.475,32.21a11.484,11.484,0,0,0-1.181,2.85H1.864A.864.864,0,0,0,1,35.924v4.218a.864.864,0,0,0,.864.864h1.43a11.467,11.467,0,0,0,1.181,2.85L3.463,44.868a.864.864,0,0,0,0,1.221l2.983,2.983a.864.864,0,0,0,1.221,0L8.68,48.061a11.5,11.5,0,0,0,2.85,1.181v1.43a.864.864,0,0,0,.864.864h.467V66.452a3.033,3.033,0,0,0,3.029,3.03h9.259l-1.888,3.24a1.183,1.183,0,0,0-.008,1.2,1.208,1.208,0,0,0,1.044.607H44.642a1.206,1.206,0,0,0,1.043-.607,1.183,1.183,0,0,0-.006-1.2l-1.888-3.24H53.05a3.033,3.033,0,0,0,3.029-3.03V40.378A3.033,3.033,0,0,0,53.05,37.347Z" fill-rule="evenodd"/></g></svg>