<svg xmlns="http://www.w3.org/2000/svg" width="90.914" height="90.914" viewBox="0 0 90.914 90.914"><g transform="translate(-1080.159 -3228.399)"><g transform="translate(1080.159 3228.398)"><rect width="90.914" height="90.914" rx="45.457" transform="translate(0 0)" fill="#98b7ca" opacity="0.859"/><rect width="90.914" height="90.914" rx="45.457" transform="translate(0 0)" fill="none"/></g><g transform="translate(1097.046 3245.367)"><circle cx="23.135" cy="23.135" r="23.135" transform="translate(0.918 0.915)" fill="#94b9ff"/><path d="M28.135,5A23.135,23.135,0,0,0,10.093,42.617,23.135,23.135,0,0,0,42.617,10.093,23.036,23.036,0,0,0,28.135,5Z" transform="translate(-0.523 -0.526)" fill="#79a8ff"/><path d="M26.911,10.815l-3.559-1.78,1.78-4.449L21.119,1.242A23.149,23.149,0,0,0,1.97,17.906l3.586,3.586,5.339-.89,2.669,3.559,5.339-.89,2.669,4.449L27.8,24.162l.89-6.229-3.559-2.669Z" transform="translate(-0.189 -0.112)" fill="#a9e991"/><path d="M27.351,11.248l-3.559-1.78L25.508,5.18A23.157,23.157,0,0,0,5.964,21.894L6,21.926l5.339-.89L14,24.6l5.339-.89,2.669,4.449L28.241,24.6l.89-6.229L25.572,15.7Z" transform="translate(-0.629 -0.546)" fill="#94e376"/><path d="M21.158,37.449l-5.339-.89L13.15,33,8.7,34.78v4.449L6.288,41.642A23.135,23.135,0,0,0,19.856,50.28l2.192-4.823L18.489,41.9Z" transform="translate(-0.665 -3.612)" fill="#a9e991"/><path d="M21.27,37.449l-5.339-.89L13.262,33,8.813,34.78v4.449L7.3,40.741a23.135,23.135,0,0,0,3.038,4.946,23.037,23.037,0,0,0,9.629,4.592l2.192-4.823L18.6,41.9Z" transform="translate(-0.776 -3.612)" fill="#94e376"/><path d="M50.67,20.818A23.113,23.113,0,0,0,42.593,6.937L41.229,9.662H37.669L35,13.222l5.339,2.669-1.78,5.339,5.339.89,2.669-2.669Z" transform="translate(-3.829 -0.74)" fill="#a9e991"/><path d="M45.918,10.413a23.135,23.135,0,0,0-3.775-2.469l-.915,1.829H37.669L35,13.333,40.339,16l-1.78,5.339,5.339.89,2.669-2.669,4.1,1.368a23.063,23.063,0,0,0-4.752-10.516Z" transform="translate(-3.829 -0.851)" fill="#94e376"/><path d="M35.339,39.118,36.229,32l8.008,1.78-.89,5.339,2.413,2.413A23.135,23.135,0,0,1,32.192,50.17L30,40.008Z" transform="translate(-3.278 -3.501)" fill="#94e376"/><path d="M10.455,1h0A4.4,4.4,0,0,1,14.39,7.367l-3.935,7.87L6.52,7.367A4.4,4.4,0,0,1,10.455,1Z" transform="translate(-0.639 -0.085)" fill="#ed5473"/><circle cx="1.78" cy="1.78" r="1.78" transform="translate(8.037 3.54)" fill="#f4faff"/><path d="M14.455,26h0a4.4,4.4,0,0,1,3.935,6.367l-3.935,7.87-3.935-7.87A4.4,4.4,0,0,1,14.455,26Z" transform="translate(-1.08 -2.84)" fill="#ed5473"/><circle cx="1.78" cy="1.78" r="1.78" transform="translate(11.596 25.786)" fill="#f4faff"/><path d="M47.455,1h0A4.4,4.4,0,0,1,51.39,7.367l-3.935,7.87L43.52,7.367A4.4,4.4,0,0,1,47.455,1Z" transform="translate(-4.716 -0.085)" fill="#ed5473"/><circle cx="1.78" cy="1.78" r="1.78" transform="translate(40.959 3.54)" fill="#f4faff"/><path d="M39.455,21h0a4.4,4.4,0,0,1,3.935,6.367l-3.935,7.87-3.935-7.87A4.4,4.4,0,0,1,39.455,21Z" transform="translate(-3.835 -2.289)" fill="#ed5473"/><circle cx="1.78" cy="1.78" r="1.78" transform="translate(33.841 21.337)" fill="#f4faff"/><circle cx="10.678" cy="10.678" r="10.678" transform="translate(34.731 34.727)" fill="#ffed96"/><path d="M51.178,40.5a10.678,10.678,0,0,0-8.186,17.529A10.678,10.678,0,0,0,58.03,42.991,10.637,10.637,0,0,0,51.178,40.5Z" transform="translate(-4.435 -4.438)" fill="#ffe175"/><circle cx="8.008" cy="8.008" r="8.008" transform="translate(37.4 37.397)" fill="#fcd354"/><path d="M10.7,8.094A2.447,2.447,0,1,0,8.25,5.647,2.447,2.447,0,0,0,10.7,8.094Zm0-3.559A1.112,1.112,0,1,1,9.585,5.647,1.112,1.112,0,0,1,10.7,4.535Z" transform="translate(-0.881 -0.328)"/><path d="M12.25,30.647A2.447,2.447,0,1,0,14.7,28.2,2.447,2.447,0,0,0,12.25,30.647ZM14.7,29.535a1.112,1.112,0,1,1-1.112,1.112A1.112,1.112,0,0,1,14.7,29.535Z" transform="translate(-1.322 -3.083)"/><path d="M47.7,8.094A2.447,2.447,0,1,0,45.25,5.647,2.447,2.447,0,0,0,47.7,8.094Zm0-3.559a1.112,1.112,0,1,1-1.112,1.112A1.112,1.112,0,0,1,47.7,4.535Z" transform="translate(-4.958 -0.328)"/><path d="M39.7,23.2a2.447,2.447,0,1,0,2.447,2.447A2.447,2.447,0,0,0,39.7,23.2Zm0,3.559a1.112,1.112,0,1,1,1.112-1.112A1.112,1.112,0,0,1,39.7,26.759Z" transform="translate(-4.077 -2.532)"/><path d="M49.926,41.25A8.676,8.676,0,1,0,58.6,49.926a8.676,8.676,0,0,0-8.676-8.676Zm0,16.016a7.341,7.341,0,1,1,7.341-7.341A7.341,7.341,0,0,1,49.926,57.266Z" transform="translate(-4.517 -4.521)"/><path d="M50.7,46.475a1.114,1.114,0,0,1,1.112,1.112.667.667,0,0,0,1.335,0,2.45,2.45,0,0,0-1.78-2.354v-.316a.667.667,0,1,0-1.335,0v.316a2.45,2.45,0,0,0-1.78,2.354v.89A2.449,2.449,0,0,0,50.7,50.924a1.114,1.114,0,0,1,1.112,1.112v.89a1.112,1.112,0,1,1-2.225,0,.667.667,0,0,0-1.335,0,2.45,2.45,0,0,0,1.78,2.354v.316a.667.667,0,1,0,1.335,0v-.316a2.45,2.45,0,0,0,1.78-2.354v-.89A2.449,2.449,0,0,0,50.7,49.589a1.114,1.114,0,0,1-1.112-1.112v-.89A1.114,1.114,0,0,1,50.7,46.475Z" transform="translate(-5.289 -4.851)"/><path d="M45.651,34.062a23.835,23.835,0,0,0-.813-21.618L47.271,7.58a5.072,5.072,0,1,0-9.548-3.017,23.834,23.834,0,0,0-23.717-2.1A5.067,5.067,0,0,0,5.286,7.58l.567,1.133A23.8,23.8,0,0,0,34.066,45.647,11.345,11.345,0,1,0,45.651,34.062Zm.869-10.013a22.521,22.521,0,0,1-2.382,10.078,11.256,11.256,0,0,0-3.294.893l.771-4.627a.667.667,0,0,0-.513-.761l-2.769-.616,1.817-3.635a5.006,5.006,0,0,0,.382-3.517l2.385-2.386,3.333,1.111a22.5,22.5,0,0,1,.271,3.458Zm-10.9,7.406-3.338-6.674a3.732,3.732,0,1,1,6.674,0ZM42.739,1.582a3.732,3.732,0,0,1,3.338,5.4l-3.338,6.676L39.4,6.986a3.732,3.732,0,0,1,3.338-5.4ZM38,9.221l.515-1.03,3.63,7.259a.667.667,0,0,0,1.194,0l.771-1.54a22.4,22.4,0,0,1,1.859,5.173l-3.015-1.005a.667.667,0,0,0-.683.161L39.98,20.527a5.026,5.026,0,0,0-3.737-2.447l.9-2.717a.667.667,0,0,0-.335-.808l-4.623-2.313L34.18,9.588H37.4a.668.668,0,0,0,.6-.367ZM9.816,1.582a3.732,3.732,0,0,1,3.338,5.4L9.816,13.659,6.478,6.983a3.737,3.737,0,0,1,3.339-5.4ZM6.5,10.019l2.715,5.428a.667.667,0,0,0,1.194,0l3.935-7.869a5.009,5.009,0,0,0,.259-3.922,22.137,22.137,0,0,1,6.115-1.833L24.144,4.67l-1.6,4.005a.667.667,0,0,0,.321.845l3.01,1.5L24.32,14.9a.667.667,0,0,0,.22.782l3.242,2.433L27,23.635l-5.378,3.072-2.333-3.888A.666.666,0,0,0,18.6,22.5l-3,.5a5.042,5.042,0,0,0-2.225-.512c-.11,0-.219,0-.327.011L11.24,20.09a.668.668,0,0,0-.644-.258l-5,.836L2.53,17.6A22.414,22.414,0,0,1,6.5,10.019ZM16.713,29.228,13.375,35.9l-3.339-6.674a3.732,3.732,0,1,1,6.674,0ZM1.585,24.05a22.476,22.476,0,0,1,.553-4.956L4.9,21.854a.666.666,0,0,0,.581.186l4.938-.824,1.192,1.59a5.072,5.072,0,0,0-2.764,7.021l.125.251-1.181.468a.666.666,0,0,0-.42.623V35.34L5.706,37A22.342,22.342,0,0,1,1.585,24.05ZM6.517,38.08l1.991-1.991a.665.665,0,0,0,.2-.472v-4l.864-.346,3.21,6.421a.667.667,0,0,0,1.194,0l1.969-3.939,3.476.579-2.165,3.608a.666.666,0,0,0,.1.815l3.23,3.233L18.8,45.9A22.512,22.512,0,0,1,6.517,38.08Zm17.536,8.437a22.512,22.512,0,0,1-3.905-.34l1.843-4.056a.666.666,0,0,0-.135-.748l-3.191-3.19,2.4-4a.667.667,0,0,0-.463-1L16.567,32.5l1.34-2.681a5.047,5.047,0,0,0-.82-5.717l1.288-.215,2.436,4.059a.666.666,0,0,0,.9.236l6.229-3.559a.666.666,0,0,0,.329-.485l.89-6.229a.667.667,0,0,0-.261-.628l-3.15-2.362,1.594-3.971a.666.666,0,0,0-.321-.844L24.011,8.6l1.554-3.88a.667.667,0,0,0-.192-.76l-2.8-2.335q.736-.044,1.48-.044a22.23,22.23,0,0,1,13.7,4.659c.02.111.045.222.075.333L36.99,8.256H33.841a.667.667,0,0,0-.534.267l-2.669,3.559a.666.666,0,0,0,.235,1l4.822,2.411L34.822,18.1a5.072,5.072,0,0,0-3.737,7.271l1.264,2.529-.89,7.136-4.849.807a.668.668,0,0,0-.543.8l2.047,9.5a22.54,22.54,0,0,1-4.062.369Zm5.372-.65-1.9-8.817,4.648-.775a.666.666,0,0,0,.553-.575l.706-5.643,1.595,3.189a.667.667,0,0,0,1.194,0l1.5-3,2.478.551-.841,5.018a11.359,11.359,0,0,0-5.226,8.323,22.4,22.4,0,0,1-4.707,1.733Zm15.984,9.548A10.01,10.01,0,1,1,55.419,45.4,10.01,10.01,0,0,1,45.408,55.415Z" transform="translate(0 0)"/></g></g></svg>