<svg xmlns="http://www.w3.org/2000/svg" width="90.914" height="90.914" viewBox="0 0 90.914 90.914"><g transform="translate(-770.158 -2617.038)"><g transform="translate(770.158 2617.038)"><rect width="90.914" height="90.914" rx="45.457" transform="translate(0 0)" fill="#98b7ca" opacity="0.859"/><rect width="90.914" height="90.914" rx="45.457" transform="translate(0 0)" fill="none"/></g><g transform="translate(786 2632.949)"><path d="M9,32H50.155V42.736H9Z" transform="translate(-0.527 -2.949)" fill="#fdb115"/><path d="M47,13.947V43.471H13V5H38.051A8.95,8.95,0,0,1,47,13.947Z" transform="translate(-0.948 -0.105)" fill="#e6e6e6"/><path d="M46.464,56.577h-34.4a.9.9,0,0,1-.866-.669L6,36H20.315L22.1,39.579H51.628l-4.3,16.33A.9.9,0,0,1,46.464,56.577Z" transform="translate(-0.211 -3.371)" fill="#fdd351"/><path d="M51.628,39.579,47.334,55.906a.907.907,0,0,1-.868.671H12.057a.907.907,0,0,1-.868-.671L6,36H20.315L22.1,39.579Z" transform="translate(-0.211 -3.371)" fill="#fdc019"/><path d="M44,24h2.684V35.631H44Z" transform="translate(-4.213 -2.107)" fill="#1c75ce"/><path d="M38,28h2.684v8.052H38Z" transform="translate(-3.581 -2.528)" fill="#419e49"/><path d="M32,31h2.684v5.368H32Z" transform="translate(-2.949 -2.844)" fill="#e13b36"/><path d="M46.1,37.789H30.895a.895.895,0,0,1,0-1.789H46.1a.895.895,0,0,1,0,1.789Z" transform="translate(-2.739 -3.371)" fill="#b3b3b3"/><path d="M30.4,14.4H26V9.29a5.45,5.45,0,0,1,.895.349A6.218,6.218,0,0,1,30.2,13.5a6.142,6.142,0,0,1,.2.895Z" transform="translate(-2.317 -0.557)" fill="#c32a28"/><path d="M30.31,13.545H27V9.68a6.218,6.218,0,0,1,3.31,3.865Z" transform="translate(-2.423 -0.598)" fill="#e13b36"/><path d="M29.266,17.06a6.456,6.456,0,0,1-1.145,2.165,6.261,6.261,0,1,1-8.813-8.8c0-.009.009-.018.018-.027A6.279,6.279,0,0,1,22.368,9.08v7.98Z" transform="translate(-1.369 -0.535)" fill="#2c7c33"/><g transform="translate(18.315 4.895)"><path d="M49.8,13.947v2.425l-1.4-2a6.021,6.021,0,0,0-5.932-2.487l-1.619.268a6.043,6.043,0,0,0-.814-6.621L39.58,5h1.27A8.95,8.95,0,0,1,49.8,13.947Z" transform="translate(-22.062 -5)" fill="#b3b3b3"/><path d="M41.157,17.789H34.895a.895.895,0,1,1,0-1.789h6.263a.895.895,0,1,1,0,1.789Z" transform="translate(-21.475 -6.159)" fill="#b3b3b3"/><path d="M44.736,20.789H34.895a.895.895,0,1,1,0-1.789h9.841a.895.895,0,1,1,0,1.789Z" transform="translate(-21.475 -6.475)" fill="#b3b3b3"/><path d="M28.052,27.789H20.895a.895.895,0,0,1,0-1.789h7.157a.895.895,0,1,1,0,1.789Z" transform="translate(-20 -7.212)" fill="#b3b3b3"/><path d="M24.473,30.789H20.895a.895.895,0,0,1,0-1.789h3.579a.895.895,0,0,1,0,1.789Z" transform="translate(-20 -7.528)" fill="#b3b3b3"/></g><path d="M9.63,18.42,8.473,19.576V11.895a.895.895,0,1,0-1.789,0v7.682L5.527,18.42a.895.895,0,1,0-1.265,1.265l2.684,2.684a.894.894,0,0,0,1.265,0L10.9,19.685A.895.895,0,1,0,9.63,18.419Z" transform="translate(0 -0.737)" fill="#2c7c33"/><path d="M58.9,18.42a.894.894,0,0,0-1.265,0l-1.157,1.157V11.895a.895.895,0,1,0-1.789,0v7.682L53.527,18.42a.895.895,0,1,0-1.265,1.265l2.684,2.684a.894.894,0,0,0,1.265,0L58.9,19.685a.894.894,0,0,0,0-1.265Z" transform="translate(-5.056 -0.737)" fill="#2c7c33"/><path d="M17.789,27.789h-.895a.895.895,0,0,1,0-1.789h.895a.895.895,0,1,1,0,1.789Z" transform="translate(-1.264 -2.317)" fill="#b3b3b3"/><path d="M17.789,30.789h-.895a.895.895,0,0,1,0-1.789h.895a.895.895,0,1,1,0,1.789Z" transform="translate(-1.264 -2.633)" fill="#b3b3b3"/><path d="M50.618,39.579l-5.86,14.646a.9.9,0,0,1-.832.564h-29.2a.9.9,0,0,1-.832-.564L6.6,36H20.378l1.789,3.579Z" transform="translate(-0.274 -3.371)" fill="#fcc831"/><path d="M48.841,53l-.6,1.789-.3.895H39.895l-.3-.895L39,53Z" transform="translate(-3.687 -5.161)" fill="#f2f2f2"/><path d="M48.313,55l-.3.895H39.965L39.67,55Z" transform="translate(-3.757 -5.372)" fill="#e6e6e6"/><path d="M29.371,17.06a6.456,6.456,0,0,1-1.145,2.165,6.2,6.2,0,0,1-3.963,1.414A6.258,6.258,0,0,1,18,14.376a6.189,6.189,0,0,1,1.414-3.954c0-.009.009-.018.018-.027A6.279,6.279,0,0,1,22.473,9.08v7.98Z" transform="translate(-1.475 -0.535)" fill="#419e49"/><path d="M47.05,13.841A9.853,9.853,0,0,0,37.208,4H12.157a.9.9,0,0,0-.895.895V28.156H8.579a.9.9,0,0,0-.895.895v2.684H5.895a.895.895,0,0,0-.866,1.12l5.194,19.908A1.789,1.789,0,0,0,11.954,54.1h34.4a1.789,1.789,0,0,0,1.731-1.336l4.3-16.33a.895.895,0,0,0-.865-1.122h-.895V29.051a.9.9,0,0,0-.895-.895H47.05Zm-1.809-.394A6.937,6.937,0,0,0,38.681,10.9l-.12.02a6.907,6.907,0,0,0-.807-5.1,8.051,8.051,0,0,1,7.486,7.631ZM13.052,5.789H35.524l.19.224a5.132,5.132,0,0,1,.694,5.639.895.895,0,0,0,.947,1.283l1.621-.268a5.152,5.152,0,0,1,5.05,2.117l1.234,1.764V35.313H22.552L21.01,32.229a.9.9,0,0,0-.8-.494H13.052ZM9.473,29.945h1.789v1.789H9.473ZM46.358,52.312h0v0h-34.4l-4.9-18.788h12.6L21.2,36.608a.9.9,0,0,0,.8.494H50.362Zm2.48-22.367v5.368H47.05V29.945Z" transform="translate(-0.105)"/><path d="M48.736,52H38.895a.9.9,0,0,0-.849,1.178l.895,2.684a.9.9,0,0,0,.849.612h8.052a.9.9,0,0,0,.849-.612l.895-2.684A.9.9,0,0,0,48.736,52ZM47.2,54.684H40.434l-.3-.895h7.359Z" transform="translate(-3.581 -5.056)"/><path d="M30.895,30.157v4.473a.895.895,0,0,0,0,1.789H46.1a.895.895,0,0,0,0-1.789V23.895A.9.9,0,0,0,45.209,23H42.525a.9.9,0,0,0-.895.895V34.631h-.895V27.473a.9.9,0,0,0-.895-.895H37.157a.9.9,0,0,0-.895.895v7.157h-.895V30.157a.9.9,0,0,0-.895-.895H31.789A.9.9,0,0,0,30.895,30.157ZM43.42,24.789h.895v9.841H43.42Zm-5.368,3.579h.895v6.263h-.895Zm-5.368,2.684h.895v3.579h-.895Z" transform="translate(-2.739 -2.001)"/><path d="M25.895,15.188h4.4a.894.894,0,0,0,.886-1.018A7.146,7.146,0,0,0,26.15,8.328.895.895,0,0,0,25,9.185v5.109A.9.9,0,0,0,25.895,15.188Zm.895-4.65A5.368,5.368,0,0,1,29.164,13.4H26.789Z" transform="translate(-2.212 -0.452)"/><path d="M23.157,22.323a7.109,7.109,0,0,0,6.861-5.113.895.895,0,0,0-.858-1.15h-6V8.975a.895.895,0,0,0-1.02-.886,7.153,7.153,0,0,0,1.02,14.234ZM21.368,10.11v6.845a.9.9,0,0,0,.895.895h5.55a5.369,5.369,0,1,1-6.444-7.74Z" transform="translate(-1.264 -0.43)"/><path d="M34.895,17.789h6.263a.895.895,0,1,0,0-1.789H34.895a.895.895,0,1,0,0,1.789Z" transform="translate(-3.16 -1.264)"/><path d="M34.895,20.789h9.841a.895.895,0,1,0,0-1.789H34.895a.895.895,0,1,0,0,1.789Z" transform="translate(-3.16 -1.58)"/><path d="M28.052,26H20.895a.895.895,0,0,0,0,1.789h7.157a.895.895,0,1,0,0-1.789Z" transform="translate(-1.685 -2.317)"/><path d="M24.473,29H20.895a.895.895,0,0,0,0,1.789h3.579a.895.895,0,0,0,0-1.789Z" transform="translate(-1.685 -2.633)"/><path d="M9.63,18.42,8.473,19.576V11.895a.895.895,0,1,0-1.789,0v7.682L5.527,18.42a.895.895,0,1,0-1.265,1.265l2.684,2.684a.894.894,0,0,0,1.265,0L10.9,19.685A.895.895,0,1,0,9.63,18.419Z" transform="translate(0 -0.737)"/><path d="M54.946,22.369a.894.894,0,0,0,1.265,0L58.9,19.685a.895.895,0,1,0-1.265-1.265l-1.157,1.157V11.895a.895.895,0,1,0-1.789,0v7.682L53.527,18.42a.895.895,0,1,0-1.265,1.265Z" transform="translate(-5.056 -0.737)"/><path d="M16.895,27.789h.895a.895.895,0,1,0,0-1.789h-.895a.895.895,0,0,0,0,1.789Z" transform="translate(-1.264 -2.317)"/><path d="M16.895,30.789h.895a.895.895,0,1,0,0-1.789h-.895a.895.895,0,0,0,0,1.789Z" transform="translate(-1.264 -2.633)"/></g></g></svg>