<svg xmlns="http://www.w3.org/2000/svg" width="90.914" height="90.914" viewBox="0 0 90.914 90.914"><g transform="translate(314 8393.602)"><g transform="translate(-314 -8393.602)"><rect width="90.914" height="90.914" rx="45.457" transform="translate(0 0)" fill="#98b7ca" opacity="0.859"/><rect width="90.914" height="90.914" rx="45.457" transform="translate(0 0)" fill="none"/></g><g transform="translate(-297 -8377)"><g transform="translate(1.903 1.903)"><g transform="translate(0 5.419)"><path d="M21.871,36.9h-.9a.956.956,0,0,1-.28-.045A.906.906,0,0,1,20.065,36V33.29h11.71a16.358,16.358,0,1,0-9.9,6.809Z" transform="translate(-2 -8)" fill="#69d6f4"/></g><g transform="translate(18.065 30.71)"><path d="M24.646,36h9.1a.906.906,0,0,1,.9.9V38.71a.906.906,0,0,1-.9.9H22.9a.956.956,0,0,1-.28-.045A.906.906,0,0,1,22,38.71V36Z" transform="translate(-22 -36)" fill="#969faa"/></g><g transform="translate(19.871 34.323)"><path d="M33.032,40l3.008,9.032H24V40Z" transform="translate(-24 -40)" fill="#aab2bd"/></g><g transform="translate(23.484 37.936)"><path d="M30.71,44l1.806,5.419H28V44Z" transform="translate(-28 -44)" fill="#fcd770"/></g><g transform="translate(14.452 43.355)"><path d="M41.484,50l-.009.108a8.139,8.139,0,0,1-6.684,7c-1.969-.4-2.385-1.689-5.058-1.689s-3.08,1.283-5.04,1.689h-.009a8.149,8.149,0,0,1-6.675-7L18,50H41.484Z" transform="translate(-18 -50)" fill="#ccd1d9"/></g><g transform="translate(13.548 48.774)"><path d="M42.29,56v3.613c-3.161,0-3.161,1.806-6.323,1.806s-3.17-1.806-6.332-1.806-3.161,1.806-6.323,1.806S20.161,59.613,17,59.613V56c3.161,0,3.161,1.806,6.314,1.806a6.44,6.44,0,0,0,1.274-.117H24.6c1.96-.406,2.375-1.689,5.04-1.689s3.089,1.292,5.058,1.689a6.44,6.44,0,0,0,1.274.117C39.129,57.806,39.129,56,42.29,56Z" transform="translate(-17 -56)" fill="#69d6f4"/></g><g transform="translate(39.742 25.29)"><path d="M60.452,30.9V41.742a.906.906,0,0,1-.9.9H46.9a.906.906,0,0,1-.9-.9V30.9a.906.906,0,0,1,.9-.9H59.548A.906.906,0,0,1,60.452,30.9Z" transform="translate(-46 -30)" fill="#d3a06c"/></g><g transform="translate(45.161 25.29)"><path d="M52,30h3.613v3.613H52Z" transform="translate(-52 -30)" fill="#cf9e76"/></g><g transform="translate(40.645 12.04)"><path d="M50.613,15.33v2.719A3.617,3.617,0,0,1,49.556,20.6L47.9,22.258H47V16.838l.388-.388.939.388a1.343,1.343,0,0,0,.849-.307Z" transform="translate(-47 -15.33)" fill="#ff826e"/></g><g transform="translate(35.226 9.935)"><path d="M46.419,15.285a1.309,1.309,0,0,0,.388.939l-.388.388H41v-.9l1.653-1.653A3.617,3.617,0,0,1,45.209,13h2.719l-1.2,1.436A1.343,1.343,0,0,0,46.419,15.285Z" transform="translate(-41 -13)" fill="#ff826e"/></g><g transform="translate(37.936)"><path d="M54.387,4.556l-3.974,4.76L44,2.9A3.084,3.084,0,0,1,46.177,2h.036a3.028,3.028,0,0,1,.975.163Z" transform="translate(-44 -2)" fill="#ff826e"/></g><g transform="translate(46.877 5.871)"><path d="M61.216,16.674v.036a3.084,3.084,0,0,1-.9,2.177L53.9,12.474,58.66,8.5l2.394,7.2A3.028,3.028,0,0,1,61.216,16.674Z" transform="translate(-53.9 -8.5)" fill="#ff826e"/></g><g transform="translate(40.645)"><path d="M49.177,15.241a1.343,1.343,0,0,1-.849.307l-.939-.388A1.309,1.309,0,0,1,47,14.221a1.343,1.343,0,0,1,.307-.849l1.2-1.436L50.7,9.316l3.974-4.76L56.186,2.75A2.555,2.555,0,1,1,59.8,6.363L57.992,7.871l-4.76,3.974L50.613,14.04Z" transform="translate(-47 -2)" fill="#e6e9ed"/></g></g><g transform="translate(1 1)"><path d="M43.826,21.774l1.917-1.916a4.487,4.487,0,0,0,1.322-3.194v-2.3l1.664-1.391,6.465,6.466.639-.639a4.036,4.036,0,0,0,.962-4.109l-2.207-6.62,1.4-1.169A3.426,3.426,0,0,0,57,4.458a3.456,3.456,0,0,0-5.959-2.385L49.923,3.41,43.307,1.2A4.041,4.041,0,0,0,42.019,1,3.96,3.96,0,0,0,39.2,2.168l-.638.639,6.464,6.465-1.39,1.664h-2.3a4.488,4.488,0,0,0-3.193,1.323l-1.917,1.916v2.18h4.142l-5.179,5.179A17.16,17.16,0,1,0,20.871,40.525v3.83h-5.54l.141,1.12A9.033,9.033,0,0,0,17.4,50.039a6.681,6.681,0,0,0-1.948-.265v1.806a4.677,4.677,0,0,1,2.71.784,6.407,6.407,0,0,0,3.607,1.022,6.417,6.417,0,0,0,3.609-1.022,5.089,5.089,0,0,1,5.427,0,6.888,6.888,0,0,0,7.222,0,4.694,4.694,0,0,1,2.715-.784V49.774a6.713,6.713,0,0,0-1.947.264,9.037,9.037,0,0,0,1.927-4.562l.141-1.121H34.469l-2.42-7.26a1.808,1.808,0,0,0,1.467-1.772V33.516a1.8,1.8,0,0,0-.538-1.284A16.962,16.962,0,0,0,34.115,29.9h6.627v9.032a1.808,1.808,0,0,0,1.806,1.806H55.194A1.808,1.808,0,0,0,57,38.936V28.1a1.808,1.808,0,0,0-1.806-1.806H42.548A1.808,1.808,0,0,0,40.742,28.1H34.711a17.172,17.172,0,0,0,.6-4.128l6.336-6.337v4.142ZM47.968,28.1h1.806V29.9H47.968Zm-5.419,0h3.613V31.71h5.419V28.1h3.613V38.936H42.548Zm1.917-9.515-1.013,1.013V16.312a2.189,2.189,0,0,0,1.806-.445v.8A2.7,2.7,0,0,1,44.465,18.581Zm10.617-3.318a2.216,2.216,0,0,1,.112.717,2.186,2.186,0,0,1-.137.766L50.119,11.81,53.1,9.318ZM52.374,3.29a1.654,1.654,0,0,1,2.4,2.281L44.144,14.449a.436.436,0,0,1-.693-.323.421.421,0,0,1,.1-.27ZM41.255,2.945a2.291,2.291,0,0,1,1.482-.027L48.68,4.9,46.189,7.88ZM39.42,13.536a2.725,2.725,0,0,1,1.916-.794h.8a2.222,2.222,0,0,0-.488,1.384,2.251,2.251,0,0,0,.042.423H38.406ZM2.853,24.484H9.166a23.056,23.056,0,0,0,1.4,7.226H5.158A15.233,15.233,0,0,1,2.853,24.484ZM17.258,8.516a19.62,19.62,0,0,1,3.88,5.129H13.378A19.6,19.6,0,0,1,17.258,8.516ZM22,15.452a21.12,21.12,0,0,1,1.544,7.226H10.973a21.1,21.1,0,0,1,1.544-7.226Zm11.47,7.226H25.35a23.057,23.057,0,0,0-1.4-7.226h7.213A15.224,15.224,0,0,1,33.47,22.677Zm-24.3,0H2.852a15.234,15.234,0,0,1,2.307-7.226h5.407A23.082,23.082,0,0,0,9.165,22.677Zm1.807,1.806H23.558a21.091,21.091,0,0,1-1.552,7.226h-9.49A21.12,21.12,0,0,1,10.973,24.484Zm8.092,9.032v1.806a1.793,1.793,0,0,0,.3,1,18.035,18.035,0,0,1-2.106,2.329,19.618,19.618,0,0,1-3.883-5.132Zm1.806,1.806V33.516H31.71v1.806ZM23.95,31.71a23.011,23.011,0,0,0,1.415-7.226h8.118a15.251,15.251,0,0,1-2.305,7.226Zm5.9-18.065H23.195A21.643,21.643,0,0,0,19.607,8.3,15.33,15.33,0,0,1,29.847,13.645ZM14.585,8.664a21.694,21.694,0,0,0-3.264,4.981H6.475A15.356,15.356,0,0,1,14.585,8.664ZM6.475,33.516h4.846A21.664,21.664,0,0,0,14.585,38.5,15.356,15.356,0,0,1,6.475,33.516ZM19.6,38.855c.393-.428.823-.94,1.271-1.532v1.349C20.45,38.749,20.028,38.815,19.6,38.855ZM33.142,51.438A5.471,5.471,0,0,1,31.7,50.8a6.885,6.885,0,0,0-7.22,0,5.519,5.519,0,0,1-1.436.64,7.168,7.168,0,0,1-5.608-5.276H38.755A7.277,7.277,0,0,1,33.142,51.438ZM26.29,44.355V40.742h1.155l1.2,3.613Zm4.264,0-1.806-5.419H24.484v5.419H22.677V37.129h7.478l2.409,7.226Z" transform="translate(-1 -1)"/><path d="M35.964,60.806a4.694,4.694,0,0,1-2.715-.784,6.885,6.885,0,0,0-7.22,0,5.079,5.079,0,0,1-5.422,0A6.407,6.407,0,0,0,17,59v1.806a4.677,4.677,0,0,1,2.71.784,6.407,6.407,0,0,0,3.607,1.022,6.417,6.417,0,0,0,3.609-1.022,5.089,5.089,0,0,1,5.427,0,6.888,6.888,0,0,0,7.222,0,4.694,4.694,0,0,1,2.715-.784V59a6.419,6.419,0,0,0-3.611,1.022A4.694,4.694,0,0,1,35.964,60.806Z" transform="translate(-2.548 -6.613)"/></g></g></g></svg>