<svg xmlns="http://www.w3.org/2000/svg" width="90.914" height="90.914" viewBox="0 0 90.914 90.914"><g transform="translate(-18 8393.602)"><g transform="translate(18 -8393.602)"><rect width="90.914" height="90.914" rx="45.457" transform="translate(0 0)" fill="#98b7ca" opacity="0.859"/><rect width="90.914" height="90.914" rx="45.457" transform="translate(0 0)" fill="none"/></g><g transform="translate(31 -8381)"><path d="M43.314,20.686A16,16,0,0,0,19.684,42.2l-2.408,2.408-.06-.06a1.249,1.249,0,0,0-1.767,0L5.106,54.894a1.249,1.249,0,0,0,0,1.767l2.233,2.233a1.249,1.249,0,0,0,1.767,0L19.448,48.552a1.249,1.249,0,0,0,0-1.767l-.06-.06L21.8,44.317A16,16,0,0,0,43.314,20.686Z" fill="#fdd756" stroke="#000" stroke-linecap="round" stroke-linejoin="round" stroke-miterlimit="10" stroke-width="1.5"/><path d="M61,47.5A7.5,7.5,0,1,0,53.5,55,7.5,7.5,0,0,0,61,47.5Z" fill="#99e6d8" stroke="#000" stroke-linecap="round" stroke-linejoin="round" stroke-miterlimit="10" stroke-width="1.5"/><path d="M56.83,51.269v-.9a3.278,3.278,0,1,0-6.556,0v.9Z" fill="#fff" stroke="#000" stroke-linecap="round" stroke-linejoin="round" stroke-miterlimit="10" stroke-width="1.5"/><path d="M55.636,45a2.089,2.089,0,1,0-2.089,2.089A2.089,2.089,0,0,0,55.636,45Z" fill="#fff" stroke="#000" stroke-linecap="round" stroke-linejoin="round" stroke-miterlimit="10" stroke-width="1.5"/><path d="M18,16.5A7.5,7.5,0,1,0,10.5,24,7.5,7.5,0,0,0,18,16.5Z" fill="#3cb4e5" stroke="#000" stroke-linecap="round" stroke-linejoin="round" stroke-miterlimit="10" stroke-width="1.5"/><path d="M13.83,20.269v-.9a3.278,3.278,0,0,0-6.556,0v.9Z" fill="#fff" stroke="#000" stroke-linecap="round" stroke-linejoin="round" stroke-miterlimit="10" stroke-width="1.5"/><path d="M12.636,14a2.089,2.089,0,1,0-2.089,2.089A2.089,2.089,0,0,0,12.636,14Z" fill="#fff" stroke="#000" stroke-linecap="round" stroke-linejoin="round" stroke-miterlimit="10" stroke-width="1.5"/><path d="M61,16.5A7.5,7.5,0,1,0,53.5,24,7.5,7.5,0,0,0,61,16.5Z" fill="#3cb4e5" stroke="#000" stroke-linecap="round" stroke-linejoin="round" stroke-miterlimit="10" stroke-width="1.5"/><path d="M56.83,20.269v-.9a3.278,3.278,0,0,0-6.556,0v.9Z" fill="#fff" stroke="#000" stroke-linecap="round" stroke-linejoin="round" stroke-miterlimit="10" stroke-width="1.5"/><path d="M55.636,14a2.089,2.089,0,1,0-2.089,2.089A2.089,2.089,0,0,0,55.636,14Z" fill="#fff" stroke="#000" stroke-linecap="round" stroke-linejoin="round" stroke-miterlimit="10" stroke-width="1.5"/><path d="M21.73,44.27l-2.4,2.4-2.05-2.05,2.4-2.41c.32.38.65.75,1.01,1.1C21.03,43.65,21.37,43.97,21.73,44.27Z" fill="#99e6d8" stroke="#000" stroke-linecap="round" stroke-linejoin="round" stroke-miterlimit="10" stroke-width="1.5"/><path d="M5.106,56.661l2.233,2.233a1.249,1.249,0,0,0,1.767,0L19.448,48.552a1.249,1.249,0,0,0,0-1.767l-2.233-2.233a1.249,1.249,0,0,0-1.767,0L5.106,54.894A1.249,1.249,0,0,0,5.106,56.661Z" fill="#3cb4e5" stroke="#000" stroke-linecap="round" stroke-linejoin="round" stroke-miterlimit="10" stroke-width="1.5"/><circle cx="16" cy="16" r="16" transform="translate(16 16)" fill="#99e6d8" stroke="#000" stroke-linecap="round" stroke-linejoin="round" stroke-miterlimit="10" stroke-width="1.5"/><circle cx="13" cy="13" r="13" transform="translate(19 19)" fill="#fdd756" stroke="#000" stroke-linecap="round" stroke-linejoin="round" stroke-miterlimit="10" stroke-width="1.5"/><path d="M25.314,39.747v-1.9a6.906,6.906,0,1,1,13.812,0v1.9Z" fill="#fff" stroke="#000" stroke-linecap="round" stroke-linejoin="round" stroke-miterlimit="10" stroke-width="1.5"/><path d="M27.819,26.543a4.4,4.4,0,1,1,4.4,4.4A4.4,4.4,0,0,1,27.819,26.543Z" fill="#fff" stroke="#000" stroke-linecap="round" stroke-linejoin="round" stroke-miterlimit="10" stroke-width="1.5"/><path d="M9,40.95a3,3,0,0,0-3-3,3,3,0,0,0,3-3,3,3,0,0,0,3,3A3,3,0,0,0,9,40.95Z" fill="#fdd756" stroke="#000" stroke-linecap="round" stroke-linejoin="round" stroke-miterlimit="10" stroke-width="1.5"/><path d="M33,13a4,4,0,0,0-4-4,4,4,0,0,0,4-4,4,4,0,0,0,4,4A4,4,0,0,0,33,13Z" fill="#fdd756" stroke="#000" stroke-linecap="round" stroke-linejoin="round" stroke-miterlimit="10" stroke-width="1.5"/><path d="M39.55,61h-.1A5.45,5.45,0,0,0,34,55.55v-.1A5.45,5.45,0,0,0,39.45,50h.1A5.45,5.45,0,0,0,45,55.45v.1A5.449,5.449,0,0,0,39.55,61Z" fill="#fdd756" stroke="#000" stroke-linecap="round" stroke-linejoin="round" stroke-miterlimit="10" stroke-width="1.5"/></g></g></svg>